<svg version="1.1" width="825.0" height="937.5" xmlns="http://www.w3.org/2000/svg"><style>rect {transform-origin: center; transform-box: fill-box;}text {transform-origin: center; transform-box: fill-box; font-family: sans-serif; font-size: 14;}.key-base {stroke: black; fill: #C3C3C3; stroke-width=1;}.key-cap {stroke: #BFBBBB; fill: white; stroke-width=1;}.key-text {fill=black;}</style><rect fill="transparent" /><rect class="key-base" width="50" height="50" transform="translate(0, 35.0) rotate(0)" rx="8" ry="8" /><rect class="key-cap" width="40.0" height="40.0" transform="translate(5.0, 40.0) rotate(0)" rx="3" ry="3" /><text class="key-text" transform="translate(10.0, 65.0) rotate(0)">ESC</text><rect class="key-base" width="50" height="50" transform="translate(50, 28.75) rotate(0)" rx="8" ry="8" /><rect class="key-cap" width="40.0" height="40.0" transform="translate(55.0, 33.75) rotate(0)" rx="3" ry="3" /><text class="key-text" transform="translate(60.0, 58.75) rotate(0)">1</text><rect class="key-base" width="50" height="50" transform="translate(100, 16.25) rotate(0)" rx="8" ry="8" /><rect class="key-cap" width="40.0" height="40.0" transform="translate(105.0, 21.25) rotate(0)" rx="3" ry="3" /><text class="key-text" transform="translate(110.0, 46.25) rotate(0)">2</text><rect class="key-base" width="50" height="50" transform="translate(150, 10) rotate(0)" rx="8" ry="8" /><rect class="key-cap" width="40.0" height="40.0" transform="translate(155.0, 15.0) rotate(0)" rx="3" ry="3" /><text class="key-text" transform="translate(160.0, 40.0) rotate(0)">3</text><rect class="key-base" width="50" height="50" transform="translate(200, 16.25) rotate(0)" rx="8" ry="8" /><rect class="key-cap" width="40.0" height="40.0" transform="translate(205.0, 21.25) rotate(0)" rx="3" ry="3" /><text class="key-text" transform="translate(210.0, 46.25) rotate(0)">4</text><rect class="key-base" width="50" height="50" transform="translate(250, 22.5) rotate(0)" rx="8" ry="8" /><rect class="key-cap" width="40.0" height="40.0" transform="translate(255.0, 27.5) rotate(0)" rx="3" ry="3" /><text class="key-text" transform="translate(260.0, 52.5) rotate(0)">5</text><rect class="key-base" width="50" height="50" transform="translate(525.0, 22.5) rotate(0)" rx="8" ry="8" /><rect class="key-cap" width="40.0" height="40.0" transform="translate(530.0, 27.5) rotate(0)" rx="3" ry="3" /><text class="key-text" transform="translate(535.0, 52.5) rotate(0)">6</text><rect class="key-base" width="50" height="50" transform="translate(575.0, 16.25) rotate(0)" rx="8" ry="8" /><rect class="key-cap" width="40.0" height="40.0" transform="translate(580.0, 21.25) rotate(0)" rx="3" ry="3" /><text class="key-text" transform="translate(585.0, 46.25) rotate(0)">7</text><rect class="key-base" width="50" height="50" transform="translate(625.0, 10) rotate(0)" rx="8" ry="8" /><rect class="key-cap" width="40.0" height="40.0" transform="translate(630.0, 15.0) rotate(0)" rx="3" ry="3" /><text class="key-text" transform="translate(635.0, 40.0) rotate(0)">8</text><rect class="key-base" width="50" height="50" transform="translate(675.0, 16.25) rotate(0)" rx="8" ry="8" /><rect class="key-cap" width="40.0" height="40.0" transform="translate(680.0, 21.25) rotate(0)" rx="3" ry="3" /><text class="key-text" transform="translate(685.0, 46.25) rotate(0)">9</text><rect class="key-base" width="50" height="50" transform="translate(725.0, 28.75) rotate(0)" rx="8" ry="8" /><rect class="key-cap" width="40.0" height="40.0" transform="translate(730.0, 33.75) rotate(0)" rx="3" ry="3" /><text class="key-text" transform="translate(735.0, 58.75) rotate(0)">0</text><rect class="key-base" width="50" height="50" transform="translate(775.0, 35.0) rotate(0)" rx="8" ry="8" /><rect class="key-cap" width="40.0" height="40.0" transform="translate(780.0, 40.0) rotate(0)" rx="3" ry="3" /><text class="key-text" transform="translate(785.0, 65.0) rotate(0)">&#9003;</text><rect class="key-base" width="50" height="50" transform="translate(0, 85.0) rotate(0)" rx="8" ry="8" /><rect class="key-cap" width="40.0" height="40.0" transform="translate(5.0, 90.0) rotate(0)" rx="3" ry="3" /><text class="key-text" transform="translate(10.0, 115.0) rotate(0)">TAB</text><rect class="key-base" width="50" height="50" transform="translate(50, 78.75) rotate(0)" rx="8" ry="8" /><rect class="key-cap" width="40.0" height="40.0" transform="translate(55.0, 83.75) rotate(0)" rx="3" ry="3" /><text class="key-text" transform="translate(60.0, 108.75) rotate(0)">Q</text><rect class="key-base" width="50" height="50" transform="translate(100, 66.25) rotate(0)" rx="8" ry="8" /><rect class="key-cap" width="40.0" height="40.0" transform="translate(105.0, 71.25) rotate(0)" rx="3" ry="3" /><text class="key-text" transform="translate(110.0, 96.25) rotate(0)">W</text><rect class="key-base" width="50" height="50" transform="translate(150, 60) rotate(0)" rx="8" ry="8" /><rect class="key-cap" width="40.0" height="40.0" transform="translate(155.0, 65.0) rotate(0)" rx="3" ry="3" /><text class="key-text" transform="translate(160.0, 90.0) rotate(0)">E</text><rect class="key-base" width="50" height="50" transform="translate(200, 66.25) rotate(0)" rx="8" ry="8" /><rect class="key-cap" width="40.0" height="40.0" transform="translate(205.0, 71.25) rotate(0)" rx="3" ry="3" /><text class="key-text" transform="translate(210.0, 96.25) rotate(0)">R</text><rect class="key-base" width="50" height="50" transform="translate(250, 72.5) rotate(0)" rx="8" ry="8" /><rect class="key-cap" width="40.0" height="40.0" transform="translate(255.0, 77.5) rotate(0)" rx="3" ry="3" /><text class="key-text" transform="translate(260.0, 102.5) rotate(0)">T</text><rect class="key-base" width="50" height="50" transform="translate(525.0, 72.5) rotate(0)" rx="8" ry="8" /><rect class="key-cap" width="40.0" height="40.0" transform="translate(530.0, 77.5) rotate(0)" rx="3" ry="3" /><text class="key-text" transform="translate(535.0, 102.5) rotate(0)">Y</text><rect class="key-base" width="50" height="50" transform="translate(575.0, 66.25) rotate(0)" rx="8" ry="8" /><rect class="key-cap" width="40.0" height="40.0" transform="translate(580.0, 71.25) rotate(0)" rx="3" ry="3" /><text class="key-text" transform="translate(585.0, 96.25) rotate(0)">U</text><rect class="key-base" width="50" height="50" transform="translate(625.0, 60) rotate(0)" rx="8" ry="8" /><rect class="key-cap" width="40.0" height="40.0" transform="translate(630.0, 65.0) rotate(0)" rx="3" ry="3" /><text class="key-text" transform="translate(635.0, 90.0) rotate(0)">I</text><rect class="key-base" width="50" height="50" transform="translate(675.0, 66.25) rotate(0)" rx="8" ry="8" /><rect class="key-cap" width="40.0" height="40.0" transform="translate(680.0, 71.25) rotate(0)" rx="3" ry="3" /><text class="key-text" transform="translate(685.0, 96.25) rotate(0)">O</text><rect class="key-base" width="50" height="50" transform="translate(725.0, 78.75) rotate(0)" rx="8" ry="8" /><rect class="key-cap" width="40.0" height="40.0" transform="translate(730.0, 83.75) rotate(0)" rx="3" ry="3" /><text class="key-text" transform="translate(735.0, 108.75) rotate(0)">P</text><rect class="key-base" width="50" height="50" transform="translate(775.0, 85.0) rotate(0)" rx="8" ry="8" /><rect class="key-cap" width="40.0" height="40.0" transform="translate(780.0, 90.0) rotate(0)" rx="3" ry="3" /><text class="key-text" transform="translate(785.0, 115.0) rotate(0)">\</text><rect class="key-base" width="50" height="50" transform="translate(0, 135.0) rotate(0)" rx="8" ry="8" /><rect class="key-cap" width="40.0" height="40.0" transform="translate(5.0, 140.0) rotate(0)" rx="3" ry="3" /><text class="key-text" transform="translate(10.0, 165.0) rotate(0)">SHIFT</text><rect class="key-base" width="50" height="50" transform="translate(50, 128.75) rotate(0)" rx="8" ry="8" /><rect class="key-cap" width="40.0" height="40.0" transform="translate(55.0, 133.75) rotate(0)" rx="3" ry="3" /><text class="key-text" transform="translate(60.0, 158.75) rotate(0)">A</text><rect class="key-base" width="50" height="50" transform="translate(100, 116.25) rotate(0)" rx="8" ry="8" /><rect class="key-cap" width="40.0" height="40.0" transform="translate(105.0, 121.25) rotate(0)" rx="3" ry="3" /><text class="key-text" transform="translate(110.0, 146.25) rotate(0)">S</text><rect class="key-base" width="50" height="50" transform="translate(150, 110) rotate(0)" rx="8" ry="8" /><rect class="key-cap" width="40.0" height="40.0" transform="translate(155.0, 115.0) rotate(0)" rx="3" ry="3" /><text class="key-text" transform="translate(160.0, 140.0) rotate(0)">D</text><rect class="key-base" width="50" height="50" transform="translate(200, 116.25) rotate(0)" rx="8" ry="8" /><rect class="key-cap" width="40.0" height="40.0" transform="translate(205.0, 121.25) rotate(0)" rx="3" ry="3" /><text class="key-text" transform="translate(210.0, 146.25) rotate(0)">F</text><rect class="key-base" width="50" height="50" transform="translate(250, 122.5) rotate(0)" rx="8" ry="8" /><rect class="key-cap" width="40.0" height="40.0" transform="translate(255.0, 127.5) rotate(0)" rx="3" ry="3" /><text class="key-text" transform="translate(260.0, 152.5) rotate(0)">G</text><rect class="key-base" width="50" height="50" transform="translate(525.0, 122.5) rotate(0)" rx="8" ry="8" /><rect class="key-cap" width="40.0" height="40.0" transform="translate(530.0, 127.5) rotate(0)" rx="3" ry="3" /><text class="key-text" transform="translate(535.0, 152.5) rotate(0)">H</text><rect class="key-base" width="50" height="50" transform="translate(575.0, 116.25) rotate(0)" rx="8" ry="8" /><rect class="key-cap" width="40.0" height="40.0" transform="translate(580.0, 121.25) rotate(0)" rx="3" ry="3" /><text class="key-text" transform="translate(585.0, 146.25) rotate(0)">J</text><rect class="key-base" width="50" height="50" transform="translate(625.0, 110) rotate(0)" rx="8" ry="8" /><rect class="key-cap" width="40.0" height="40.0" transform="translate(630.0, 115.0) rotate(0)" rx="3" ry="3" /><text class="key-text" transform="translate(635.0, 140.0) rotate(0)">K</text><rect class="key-base" width="50" height="50" transform="translate(675.0, 116.25) rotate(0)" rx="8" ry="8" /><rect class="key-cap" width="40.0" height="40.0" transform="translate(680.0, 121.25) rotate(0)" rx="3" ry="3" /><text class="key-text" transform="translate(685.0, 146.25) rotate(0)">L</text><rect class="key-base" width="50" height="50" transform="translate(725.0, 128.75) rotate(0)" rx="8" ry="8" /><rect class="key-cap" width="40.0" height="40.0" transform="translate(730.0, 133.75) rotate(0)" rx="3" ry="3" /><text class="key-text" transform="translate(735.0, 158.75) rotate(0)">;</text><rect class="key-base" width="50" height="50" transform="translate(775.0, 135.0) rotate(0)" rx="8" ry="8" /><rect class="key-cap" width="40.0" height="40.0" transform="translate(780.0, 140.0) rotate(0)" rx="3" ry="3" /><text class="key-text" transform="translate(785.0, 165.0) rotate(0)">'</text><rect class="key-base" width="50" height="50" transform="translate(0, 185.0) rotate(0)" rx="8" ry="8" /><rect class="key-cap" width="40.0" height="40.0" transform="translate(5.0, 190.0) rotate(0)" rx="3" ry="3" /><text class="key-text" transform="translate(10.0, 215.0) rotate(0)">CTRL</text><rect class="key-base" width="50" height="50" transform="translate(50, 178.75) rotate(0)" rx="8" ry="8" /><rect class="key-cap" width="40.0" height="40.0" transform="translate(55.0, 183.75) rotate(0)" rx="3" ry="3" /><text class="key-text" transform="translate(60.0, 208.75) rotate(0)">Z</text><rect class="key-base" width="50" height="50" transform="translate(100, 166.25) rotate(0)" rx="8" ry="8" /><rect class="key-cap" width="40.0" height="40.0" transform="translate(105.0, 171.25) rotate(0)" rx="3" ry="3" /><text class="key-text" transform="translate(110.0, 196.25) rotate(0)">X</text><rect class="key-base" width="50" height="50" transform="translate(150, 160) rotate(0)" rx="8" ry="8" /><rect class="key-cap" width="40.0" height="40.0" transform="translate(155.0, 165.0) rotate(0)" rx="3" ry="3" /><text class="key-text" transform="translate(160.0, 190.0) rotate(0)">C</text><rect class="key-base" width="50" height="50" transform="translate(200, 166.25) rotate(0)" rx="8" ry="8" /><rect class="key-cap" width="40.0" height="40.0" transform="translate(205.0, 171.25) rotate(0)" rx="3" ry="3" /><text class="key-text" transform="translate(210.0, 196.25) rotate(0)">V</text><rect class="key-base" width="50" height="50" transform="translate(250, 172.5) rotate(0)" rx="8" ry="8" /><rect class="key-cap" width="40.0" height="40.0" transform="translate(255.0, 177.5) rotate(0)" rx="3" ry="3" /><text class="key-text" transform="translate(260.0, 202.5) rotate(0)">B</text><rect class="key-base" width="50" height="50" transform="translate(300, 147.5) rotate(0)" rx="8" ry="8" /><rect class="key-cap" width="40.0" height="40.0" transform="translate(305.0, 152.5) rotate(0)" rx="3" ry="3" /><text class="key-text" transform="translate(310.0, 177.5) rotate(0)">_______</text><rect class="key-base" width="50" height="50" transform="translate(475.0, 147.5) rotate(0)" rx="8" ry="8" /><rect class="key-cap" width="40.0" height="40.0" transform="translate(480.0, 152.5) rotate(0)" rx="3" ry="3" /><text class="key-text" transform="translate(485.0, 177.5) rotate(0)">`</text><rect class="key-base" width="50" height="50" transform="translate(525.0, 172.5) rotate(0)" rx="8" ry="8" /><rect class="key-cap" width="40.0" height="40.0" transform="translate(530.0, 177.5) rotate(0)" rx="3" ry="3" /><text class="key-text" transform="translate(535.0, 202.5) rotate(0)">N</text><rect class="key-base" width="50" height="50" transform="translate(575.0, 166.25) rotate(0)" rx="8" ry="8" /><rect class="key-cap" width="40.0" height="40.0" transform="translate(580.0, 171.25) rotate(0)" rx="3" ry="3" /><text class="key-text" transform="translate(585.0, 196.25) rotate(0)">M</text><rect class="key-base" width="50" height="50" transform="translate(625.0, 160) rotate(0)" rx="8" ry="8" /><rect class="key-cap" width="40.0" height="40.0" transform="translate(630.0, 165.0) rotate(0)" rx="3" ry="3" /><text class="key-text" transform="translate(635.0, 190.0) rotate(0)">,</text><rect class="key-base" width="50" height="50" transform="translate(675.0, 166.25) rotate(0)" rx="8" ry="8" /><rect class="key-cap" width="40.0" height="40.0" transform="translate(680.0, 171.25) rotate(0)" rx="3" ry="3" /><text class="key-text" transform="translate(685.0, 196.25) rotate(0)">.</text><rect class="key-base" width="50" height="50" transform="translate(725.0, 178.75) rotate(0)" rx="8" ry="8" /><rect class="key-cap" width="40.0" height="40.0" transform="translate(730.0, 183.75) rotate(0)" rx="3" ry="3" /><text class="key-text" transform="translate(735.0, 208.75) rotate(0)">/</text><rect class="key-base" width="50" height="50" transform="translate(775.0, 185.0) rotate(0)" rx="8" ry="8" /><rect class="key-cap" width="40.0" height="40.0" transform="translate(780.0, 190.0) rotate(0)" rx="3" ry="3" /><text class="key-text" transform="translate(785.0, 215.0) rotate(0)">&#8629;</text><rect class="key-base" width="50" height="50" transform="translate(125.0, 216.25) rotate(0)" rx="8" ry="8" /><rect class="key-cap" width="40.0" height="40.0" transform="translate(130.0, 221.25) rotate(0)" rx="3" ry="3" /><text class="key-text" transform="translate(135.0, 246.25) rotate(0)">ALT</text><rect class="key-base" width="50" height="50" transform="translate(175.0, 217.50000000000003) rotate(0)" rx="8" ry="8" /><rect class="key-cap" width="40.0" height="40.0" transform="translate(180.0, 222.50000000000003) rotate(0)" rx="3" ry="3" /><text class="key-text" transform="translate(185.0, 247.50000000000003) rotate(0)">GUI</text><rect class="key-base" width="50" height="50" transform="translate(225.0, 222.5) rotate(0)" rx="8" ry="8" /><rect class="key-cap" width="40.0" height="40.0" transform="translate(230.0, 227.5) rotate(0)" rx="3" ry="3" /><text class="key-text" transform="translate(235.0, 252.5) rotate(0)">LOWER</text><rect class="key-base" width="50" height="75.0" transform="translate(290.0, 214.99999999999997) rotate(30)" rx="8" ry="8" /><rect class="key-cap" width="40.0" height="60.0" transform="translate(295.0, 222.49999999999997) rotate(30)" rx="3" ry="3" /><text class="key-text" transform="translate(305.0, 272.5) rotate(-60)">SPACE</text><rect class="key-base" width="50" height="75.0" transform="translate(484.99999999999994, 214.99999999999997) rotate(-30)" rx="8" ry="8" /><rect class="key-cap" width="40.0" height="60.0" transform="translate(489.99999999999994, 222.49999999999997) rotate(-30)" rx="3" ry="3" /><text class="key-text" transform="translate(496.24999999999994, 237.49999999999997) rotate(60)">SPACE</text><rect class="key-base" width="50" height="50" transform="translate(550, 222.5) rotate(0)" rx="8" ry="8" /><rect class="key-cap" width="40.0" height="40.0" transform="translate(555.0, 227.5) rotate(0)" rx="3" ry="3" /><text class="key-text" transform="translate(560.0, 252.5) rotate(0)">RAISE</text><rect class="key-base" width="50" height="50" transform="translate(600, 217.50000000000003) rotate(0)" rx="8" ry="8" /><rect class="key-cap" width="40.0" height="40.0" transform="translate(605.0, 222.50000000000003) rotate(0)" rx="3" ry="3" /><text class="key-text" transform="translate(610.0, 247.50000000000003) rotate(0)">HOME</text><rect class="key-base" width="50" height="50" transform="translate(650, 217.50000000000003) rotate(0)" rx="8" ry="8" /><rect class="key-cap" width="40.0" height="40.0" transform="translate(655.0, 222.50000000000003) rotate(0)" rx="3" ry="3" /><text class="key-text" transform="translate(660.0, 247.50000000000003) rotate(0)">END</text><rect class="key-base" width="50" height="50" transform="translate(0, 342.5) rotate(0)" rx="8" ry="8" /><rect class="key-cap" width="40.0" height="40.0" transform="translate(5.0, 347.5) rotate(0)" rx="3" ry="3" /><text class="key-text" transform="translate(10.0, 372.5) rotate(0)">`</text><rect class="key-base" width="50" height="50" transform="translate(50, 336.25) rotate(0)" rx="8" ry="8" /><rect class="key-cap" width="40.0" height="40.0" transform="translate(55.0, 341.25) rotate(0)" rx="3" ry="3" /><text class="key-text" transform="translate(60.0, 366.25) rotate(0)">F1</text><rect class="key-base" width="50" height="50" transform="translate(100, 323.75) rotate(0)" rx="8" ry="8" /><rect class="key-cap" width="40.0" height="40.0" transform="translate(105.0, 328.75) rotate(0)" rx="3" ry="3" /><text class="key-text" transform="translate(110.0, 353.75) rotate(0)">F2</text><rect class="key-base" width="50" height="50" transform="translate(150, 317.5) rotate(0)" rx="8" ry="8" /><rect class="key-cap" width="40.0" height="40.0" transform="translate(155.0, 322.5) rotate(0)" rx="3" ry="3" /><text class="key-text" transform="translate(160.0, 347.5) rotate(0)">F3</text><rect class="key-base" width="50" height="50" transform="translate(200, 323.75) rotate(0)" rx="8" ry="8" /><rect class="key-cap" width="40.0" height="40.0" transform="translate(205.0, 328.75) rotate(0)" rx="3" ry="3" /><text class="key-text" transform="translate(210.0, 353.75) rotate(0)">F4</text><rect class="key-base" width="50" height="50" transform="translate(250, 330.0) rotate(0)" rx="8" ry="8" /><rect class="key-cap" width="40.0" height="40.0" transform="translate(255.0, 335.0) rotate(0)" rx="3" ry="3" /><text class="key-text" transform="translate(260.0, 360.0) rotate(0)">F5</text><rect class="key-base" width="50" height="50" transform="translate(525.0, 330.0) rotate(0)" rx="8" ry="8" /><rect class="key-cap" width="40.0" height="40.0" transform="translate(530.0, 335.0) rotate(0)" rx="3" ry="3" /><text class="key-text" transform="translate(535.0, 360.0) rotate(0)">F6</text><rect class="key-base" width="50" height="50" transform="translate(575.0, 323.75) rotate(0)" rx="8" ry="8" /><rect class="key-cap" width="40.0" height="40.0" transform="translate(580.0, 328.75) rotate(0)" rx="3" ry="3" /><text class="key-text" transform="translate(585.0, 353.75) rotate(0)">F7</text><rect class="key-base" width="50" height="50" transform="translate(625.0, 317.5) rotate(0)" rx="8" ry="8" /><rect class="key-cap" width="40.0" height="40.0" transform="translate(630.0, 322.5) rotate(0)" rx="3" ry="3" /><text class="key-text" transform="translate(635.0, 347.5) rotate(0)">F8</text><rect class="key-base" width="50" height="50" transform="translate(675.0, 323.75) rotate(0)" rx="8" ry="8" /><rect class="key-cap" width="40.0" height="40.0" transform="translate(680.0, 328.75) rotate(0)" rx="3" ry="3" /><text class="key-text" transform="translate(685.0, 353.75) rotate(0)">F9</text><rect class="key-base" width="50" height="50" transform="translate(725.0, 336.25) rotate(0)" rx="8" ry="8" /><rect class="key-cap" width="40.0" height="40.0" transform="translate(730.0, 341.25) rotate(0)" rx="3" ry="3" /><text class="key-text" transform="translate(735.0, 366.25) rotate(0)">F10</text><rect class="key-base" width="50" height="50" transform="translate(775.0, 342.5) rotate(0)" rx="8" ry="8" /><rect class="key-cap" width="40.0" height="40.0" transform="translate(780.0, 347.5) rotate(0)" rx="3" ry="3" /><text class="key-text" transform="translate(785.0, 372.5) rotate(0)">&#8998;</text><rect class="key-base" width="50" height="50" transform="translate(0, 392.5) rotate(0)" rx="8" ry="8" /><rect class="key-cap" width="40.0" height="40.0" transform="translate(5.0, 397.5) rotate(0)" rx="3" ry="3" /><text class="key-text" transform="translate(10.0, 422.5) rotate(0)">TAB</text><rect class="key-base" width="50" height="50" transform="translate(50, 386.25) rotate(0)" rx="8" ry="8" /><rect class="key-cap" width="40.0" height="40.0" transform="translate(55.0, 391.25) rotate(0)" rx="3" ry="3" /><text class="key-text" transform="translate(60.0, 416.25) rotate(0)">!</text><rect class="key-base" width="50" height="50" transform="translate(100, 373.75) rotate(0)" rx="8" ry="8" /><rect class="key-cap" width="40.0" height="40.0" transform="translate(105.0, 378.75) rotate(0)" rx="3" ry="3" /><text class="key-text" transform="translate(110.0, 403.75) rotate(0)">@</text><rect class="key-base" width="50" height="50" transform="translate(150, 367.5) rotate(0)" rx="8" ry="8" /><rect class="key-cap" width="40.0" height="40.0" transform="translate(155.0, 372.5) rotate(0)" rx="3" ry="3" /><text class="key-text" transform="translate(160.0, 397.5) rotate(0)">{</text><rect class="key-base" width="50" height="50" transform="translate(200, 373.75) rotate(0)" rx="8" ry="8" /><rect class="key-cap" width="40.0" height="40.0" transform="translate(205.0, 378.75) rotate(0)" rx="3" ry="3" /><text class="key-text" transform="translate(210.0, 403.75) rotate(0)">}</text><rect class="key-base" width="50" height="50" transform="translate(250, 380.0) rotate(0)" rx="8" ry="8" /><rect class="key-cap" width="40.0" height="40.0" transform="translate(255.0, 385.0) rotate(0)" rx="3" ry="3" /><text class="key-text" transform="translate(260.0, 410.0) rotate(0)">|</text><rect class="key-base" width="50" height="50" transform="translate(525.0, 380.0) rotate(0)" rx="8" ry="8" /><rect class="key-cap" width="40.0" height="40.0" transform="translate(530.0, 385.0) rotate(0)" rx="3" ry="3" /><text class="key-text" transform="translate(535.0, 410.0) rotate(0)">&amp;</text><rect class="key-base" width="50" height="50" transform="translate(575.0, 373.75) rotate(0)" rx="8" ry="8" /><rect class="key-cap" width="40.0" height="40.0" transform="translate(580.0, 378.75) rotate(0)" rx="3" ry="3" /><text class="key-text" transform="translate(585.0, 403.75) rotate(0)">+</text><rect class="key-base" width="50" height="50" transform="translate(625.0, 367.5) rotate(0)" rx="8" ry="8" /><rect class="key-cap" width="40.0" height="40.0" transform="translate(630.0, 372.5) rotate(0)" rx="3" ry="3" /><text class="key-text" transform="translate(635.0, 397.5) rotate(0)">-</text><rect class="key-base" width="50" height="50" transform="translate(675.0, 373.75) rotate(0)" rx="8" ry="8" /><rect class="key-cap" width="40.0" height="40.0" transform="translate(680.0, 378.75) rotate(0)" rx="3" ry="3" /><text class="key-text" transform="translate(685.0, 403.75) rotate(0)"></text><rect class="key-base" width="50" height="50" transform="translate(725.0, 386.25) rotate(0)" rx="8" ry="8" /><rect class="key-cap" width="40.0" height="40.0" transform="translate(730.0, 391.25) rotate(0)" rx="3" ry="3" /><text class="key-text" transform="translate(735.0, 416.25) rotate(0)"></text><rect class="key-base" width="50" height="50" transform="translate(775.0, 392.5) rotate(0)" rx="8" ry="8" /><rect class="key-cap" width="40.0" height="40.0" transform="translate(780.0, 397.5) rotate(0)" rx="3" ry="3" /><text class="key-text" transform="translate(785.0, 422.5) rotate(0)"></text><rect class="key-base" width="50" height="50" transform="translate(0, 442.5) rotate(0)" rx="8" ry="8" /><rect class="key-cap" width="40.0" height="40.0" transform="translate(5.0, 447.5) rotate(0)" rx="3" ry="3" /><text class="key-text" transform="translate(10.0, 472.5) rotate(0)">SHIFT</text><rect class="key-base" width="50" height="50" transform="translate(50, 436.25) rotate(0)" rx="8" ry="8" /><rect class="key-cap" width="40.0" height="40.0" transform="translate(55.0, 441.25) rotate(0)" rx="3" ry="3" /><text class="key-text" transform="translate(60.0, 466.25) rotate(0)">#</text><rect class="key-base" width="50" height="50" transform="translate(100, 423.75) rotate(0)" rx="8" ry="8" /><rect class="key-cap" width="40.0" height="40.0" transform="translate(105.0, 428.75) rotate(0)" rx="3" ry="3" /><text class="key-text" transform="translate(110.0, 453.75) rotate(0)">$</text><rect class="key-base" width="50" height="50" transform="translate(150, 417.5) rotate(0)" rx="8" ry="8" /><rect class="key-cap" width="40.0" height="40.0" transform="translate(155.0, 422.5) rotate(0)" rx="3" ry="3" /><text class="key-text" transform="translate(160.0, 447.5) rotate(0)">(</text><rect class="key-base" width="50" height="50" transform="translate(200, 423.75) rotate(0)" rx="8" ry="8" /><rect class="key-cap" width="40.0" height="40.0" transform="translate(205.0, 428.75) rotate(0)" rx="3" ry="3" /><text class="key-text" transform="translate(210.0, 453.75) rotate(0)">)</text><rect class="key-base" width="50" height="50" transform="translate(250, 430.0) rotate(0)" rx="8" ry="8" /><rect class="key-cap" width="40.0" height="40.0" transform="translate(255.0, 435.0) rotate(0)" rx="3" ry="3" /><text class="key-text" transform="translate(260.0, 460.0) rotate(0)">`</text><rect class="key-base" width="50" height="50" transform="translate(525.0, 430.0) rotate(0)" rx="8" ry="8" /><rect class="key-cap" width="40.0" height="40.0" transform="translate(530.0, 435.0) rotate(0)" rx="3" ry="3" /><text class="key-text" transform="translate(535.0, 460.0) rotate(0)">=</text><rect class="key-base" width="50" height="50" transform="translate(575.0, 423.75) rotate(0)" rx="8" ry="8" /><rect class="key-cap" width="40.0" height="40.0" transform="translate(580.0, 428.75) rotate(0)" rx="3" ry="3" /><text class="key-text" transform="translate(585.0, 453.75) rotate(0)">&#8593;</text><rect class="key-base" width="50" height="50" transform="translate(625.0, 417.5) rotate(0)" rx="8" ry="8" /><rect class="key-cap" width="40.0" height="40.0" transform="translate(630.0, 422.5) rotate(0)" rx="3" ry="3" /><text class="key-text" transform="translate(635.0, 447.5) rotate(0)"></text><rect class="key-base" width="50" height="50" transform="translate(675.0, 423.75) rotate(0)" rx="8" ry="8" /><rect class="key-cap" width="40.0" height="40.0" transform="translate(680.0, 428.75) rotate(0)" rx="3" ry="3" /><text class="key-text" transform="translate(685.0, 453.75) rotate(0)"></text><rect class="key-base" width="50" height="50" transform="translate(725.0, 436.25) rotate(0)" rx="8" ry="8" /><rect class="key-cap" width="40.0" height="40.0" transform="translate(730.0, 441.25) rotate(0)" rx="3" ry="3" /><text class="key-text" transform="translate(735.0, 466.25) rotate(0)"></text><rect class="key-base" width="50" height="50" transform="translate(775.0, 442.5) rotate(0)" rx="8" ry="8" /><rect class="key-cap" width="40.0" height="40.0" transform="translate(780.0, 447.5) rotate(0)" rx="3" ry="3" /><text class="key-text" transform="translate(785.0, 472.5) rotate(0)"></text><rect class="key-base" width="50" height="50" transform="translate(0, 492.5) rotate(0)" rx="8" ry="8" /><rect class="key-cap" width="40.0" height="40.0" transform="translate(5.0, 497.5) rotate(0)" rx="3" ry="3" /><text class="key-text" transform="translate(10.0, 522.5) rotate(0)">CTRL</text><rect class="key-base" width="50" height="50" transform="translate(50, 486.25) rotate(0)" rx="8" ry="8" /><rect class="key-cap" width="40.0" height="40.0" transform="translate(55.0, 491.25) rotate(0)" rx="3" ry="3" /><text class="key-text" transform="translate(60.0, 516.25) rotate(0)">%</text><rect class="key-base" width="50" height="50" transform="translate(100, 473.75) rotate(0)" rx="8" ry="8" /><rect class="key-cap" width="40.0" height="40.0" transform="translate(105.0, 478.75) rotate(0)" rx="3" ry="3" /><text class="key-text" transform="translate(110.0, 503.75) rotate(0)">^</text><rect class="key-base" width="50" height="50" transform="translate(150, 467.5) rotate(0)" rx="8" ry="8" /><rect class="key-cap" width="40.0" height="40.0" transform="translate(155.0, 472.5) rotate(0)" rx="3" ry="3" /><text class="key-text" transform="translate(160.0, 497.5) rotate(0)">[</text><rect class="key-base" width="50" height="50" transform="translate(200, 473.75) rotate(0)" rx="8" ry="8" /><rect class="key-cap" width="40.0" height="40.0" transform="translate(205.0, 478.75) rotate(0)" rx="3" ry="3" /><text class="key-text" transform="translate(210.0, 503.75) rotate(0)">]</text><rect class="key-base" width="50" height="50" transform="translate(250, 480.0) rotate(0)" rx="8" ry="8" /><rect class="key-cap" width="40.0" height="40.0" transform="translate(255.0, 485.0) rotate(0)" rx="3" ry="3" /><text class="key-text" transform="translate(260.0, 510.0) rotate(0)">~</text><rect class="key-base" width="50" height="50" transform="translate(300, 455.0) rotate(0)" rx="8" ry="8" /><rect class="key-cap" width="40.0" height="40.0" transform="translate(305.0, 460.0) rotate(0)" rx="3" ry="3" /><text class="key-text" transform="translate(310.0, 485.0) rotate(0)">_______</text><rect class="key-base" width="50" height="50" transform="translate(475.0, 455.0) rotate(0)" rx="8" ry="8" /><rect class="key-cap" width="40.0" height="40.0" transform="translate(480.0, 460.0) rotate(0)" rx="3" ry="3" /><text class="key-text" transform="translate(485.0, 485.0) rotate(0)">`</text><rect class="key-base" width="50" height="50" transform="translate(525.0, 480.0) rotate(0)" rx="8" ry="8" /><rect class="key-cap" width="40.0" height="40.0" transform="translate(530.0, 485.0) rotate(0)" rx="3" ry="3" /><text class="key-text" transform="translate(535.0, 510.0) rotate(0)">&#8592;</text><rect class="key-base" width="50" height="50" transform="translate(575.0, 473.75) rotate(0)" rx="8" ry="8" /><rect class="key-cap" width="40.0" height="40.0" transform="translate(580.0, 478.75) rotate(0)" rx="3" ry="3" /><text class="key-text" transform="translate(585.0, 503.75) rotate(0)">&#8595;</text><rect class="key-base" width="50" height="50" transform="translate(625.0, 467.5) rotate(0)" rx="8" ry="8" /><rect class="key-cap" width="40.0" height="40.0" transform="translate(630.0, 472.5) rotate(0)" rx="3" ry="3" /><text class="key-text" transform="translate(635.0, 497.5) rotate(0)">&#8594;</text><rect class="key-base" width="50" height="50" transform="translate(675.0, 473.75) rotate(0)" rx="8" ry="8" /><rect class="key-cap" width="40.0" height="40.0" transform="translate(680.0, 478.75) rotate(0)" rx="3" ry="3" /><text class="key-text" transform="translate(685.0, 503.75) rotate(0)"></text><rect class="key-base" width="50" height="50" transform="translate(725.0, 486.25) rotate(0)" rx="8" ry="8" /><rect class="key-cap" width="40.0" height="40.0" transform="translate(730.0, 491.25) rotate(0)" rx="3" ry="3" /><text class="key-text" transform="translate(735.0, 516.25) rotate(0)"></text><rect class="key-base" width="50" height="50" transform="translate(775.0, 492.5) rotate(0)" rx="8" ry="8" /><rect class="key-cap" width="40.0" height="40.0" transform="translate(780.0, 497.5) rotate(0)" rx="3" ry="3" /><text class="key-text" transform="translate(785.0, 522.5) rotate(0)">CALC</text><rect class="key-base" width="50" height="50" transform="translate(125.0, 523.75) rotate(0)" rx="8" ry="8" /><rect class="key-cap" width="40.0" height="40.0" transform="translate(130.0, 528.75) rotate(0)" rx="3" ry="3" /><text class="key-text" transform="translate(135.0, 553.75) rotate(0)">ALT</text><rect class="key-base" width="50" height="50" transform="translate(175.0, 525.0) rotate(0)" rx="8" ry="8" /><rect class="key-cap" width="40.0" height="40.0" transform="translate(180.0, 530.0) rotate(0)" rx="3" ry="3" /><text class="key-text" transform="translate(185.0, 555.0) rotate(0)">GUI</text><rect class="key-base" width="50" height="50" transform="translate(225.0, 530.0) rotate(0)" rx="8" ry="8" /><rect class="key-cap" width="40.0" height="40.0" transform="translate(230.0, 535.0) rotate(0)" rx="3" ry="3" /><text class="key-text" transform="translate(235.0, 560.0) rotate(0)">LOWER</text><rect class="key-base" width="50" height="75.0" transform="translate(290.0, 522.5) rotate(30)" rx="8" ry="8" /><rect class="key-cap" width="40.0" height="60.0" transform="translate(295.0, 530.0) rotate(30)" rx="3" ry="3" /><text class="key-text" transform="translate(305.0, 580.0) rotate(-60)">SPACE</text><rect class="key-base" width="50" height="75.0" transform="translate(484.99999999999994, 522.5) rotate(-30)" rx="8" ry="8" /><rect class="key-cap" width="40.0" height="60.0" transform="translate(489.99999999999994, 530.0) rotate(-30)" rx="3" ry="3" /><text class="key-text" transform="translate(496.24999999999994, 545.0) rotate(60)">SPACE</text><rect class="key-base" width="50" height="50" transform="translate(550, 530.0) rotate(0)" rx="8" ry="8" /><rect class="key-cap" width="40.0" height="40.0" transform="translate(555.0, 535.0) rotate(0)" rx="3" ry="3" /><text class="key-text" transform="translate(560.0, 560.0) rotate(0)">RAISE</text><rect class="key-base" width="50" height="50" transform="translate(600, 525.0) rotate(0)" rx="8" ry="8" /><rect class="key-cap" width="40.0" height="40.0" transform="translate(605.0, 530.0) rotate(0)" rx="3" ry="3" /><text class="key-text" transform="translate(610.0, 555.0) rotate(0)"></text><rect class="key-base" width="50" height="50" transform="translate(650, 525.0) rotate(0)" rx="8" ry="8" /><rect class="key-cap" width="40.0" height="40.0" transform="translate(655.0, 530.0) rotate(0)" rx="3" ry="3" /><text class="key-text" transform="translate(660.0, 555.0) rotate(0)"></text><rect class="key-base" width="50" height="50" transform="translate(0, 650.0) rotate(0)" rx="8" ry="8" /><rect class="key-cap" width="40.0" height="40.0" transform="translate(5.0, 655.0) rotate(0)" rx="3" ry="3" /><text class="key-text" transform="translate(10.0, 680.0) rotate(0)">EE_CLR</text><rect class="key-base" width="50" height="50" transform="translate(50, 643.75) rotate(0)" rx="8" ry="8" /><rect class="key-cap" width="40.0" height="40.0" transform="translate(55.0, 648.75) rotate(0)" rx="3" ry="3" /><text class="key-text" transform="translate(60.0, 673.75) rotate(0)">~</text><rect class="key-base" width="50" height="50" transform="translate(100, 631.25) rotate(0)" rx="8" ry="8" /><rect class="key-cap" width="40.0" height="40.0" transform="translate(105.0, 636.25) rotate(0)" rx="3" ry="3" /><text class="key-text" transform="translate(110.0, 661.25) rotate(0)">MPLY</text><rect class="key-base" width="50" height="50" transform="translate(150, 625.0) rotate(0)" rx="8" ry="8" /><rect class="key-cap" width="40.0" height="40.0" transform="translate(155.0, 630.0) rotate(0)" rx="3" ry="3" /><text class="key-text" transform="translate(160.0, 655.0) rotate(0)">MUTE</text><rect class="key-base" width="50" height="50" transform="translate(200, 631.25) rotate(0)" rx="8" ry="8" /><rect class="key-cap" width="40.0" height="40.0" transform="translate(205.0, 636.25) rotate(0)" rx="3" ry="3" /><text class="key-text" transform="translate(210.0, 661.25) rotate(0)">VOL +</text><rect class="key-base" width="50" height="50" transform="translate(250, 637.5) rotate(0)" rx="8" ry="8" /><rect class="key-cap" width="40.0" height="40.0" transform="translate(255.0, 642.5) rotate(0)" rx="3" ry="3" /><text class="key-text" transform="translate(260.0, 667.5) rotate(0)">VOL -</text><rect class="key-base" width="50" height="50" transform="translate(525.0, 637.5) rotate(0)" rx="8" ry="8" /><rect class="key-cap" width="40.0" height="40.0" transform="translate(530.0, 642.5) rotate(0)" rx="3" ry="3" /><text class="key-text" transform="translate(535.0, 667.5) rotate(0)">F6</text><rect class="key-base" width="50" height="50" transform="translate(575.0, 631.25) rotate(0)" rx="8" ry="8" /><rect class="key-cap" width="40.0" height="40.0" transform="translate(580.0, 636.25) rotate(0)" rx="3" ry="3" /><text class="key-text" transform="translate(585.0, 661.25) rotate(0)">F7</text><rect class="key-base" width="50" height="50" transform="translate(625.0, 625.0) rotate(0)" rx="8" ry="8" /><rect class="key-cap" width="40.0" height="40.0" transform="translate(630.0, 630.0) rotate(0)" rx="3" ry="3" /><text class="key-text" transform="translate(635.0, 655.0) rotate(0)">F8</text><rect class="key-base" width="50" height="50" transform="translate(675.0, 631.25) rotate(0)" rx="8" ry="8" /><rect class="key-cap" width="40.0" height="40.0" transform="translate(680.0, 636.25) rotate(0)" rx="3" ry="3" /><text class="key-text" transform="translate(685.0, 661.25) rotate(0)">F9</text><rect class="key-base" width="50" height="50" transform="translate(725.0, 643.75) rotate(0)" rx="8" ry="8" /><rect class="key-cap" width="40.0" height="40.0" transform="translate(730.0, 648.75) rotate(0)" rx="3" ry="3" /><text class="key-text" transform="translate(735.0, 673.75) rotate(0)">F10</text><rect class="key-base" width="50" height="50" transform="translate(775.0, 650.0) rotate(0)" rx="8" ry="8" /><rect class="key-cap" width="40.0" height="40.0" transform="translate(780.0, 655.0) rotate(0)" rx="3" ry="3" /><text class="key-text" transform="translate(785.0, 680.0) rotate(0)">&#8998;</text><rect class="key-base" width="50" height="50" transform="translate(0, 700.0) rotate(0)" rx="8" ry="8" /><rect class="key-cap" width="40.0" height="40.0" transform="translate(5.0, 705.0) rotate(0)" rx="3" ry="3" /><text class="key-text" transform="translate(10.0, 730.0) rotate(0)">+</text><rect class="key-base" width="50" height="50" transform="translate(50, 693.75) rotate(0)" rx="8" ry="8" /><rect class="key-cap" width="40.0" height="40.0" transform="translate(55.0, 698.75) rotate(0)" rx="3" ry="3" /><text class="key-text" transform="translate(60.0, 723.75) rotate(0)">=</text><rect class="key-base" width="50" height="50" transform="translate(100, 681.25) rotate(0)" rx="8" ry="8" /><rect class="key-cap" width="40.0" height="40.0" transform="translate(105.0, 686.25) rotate(0)" rx="3" ry="3" /><text class="key-text" transform="translate(110.0, 711.25) rotate(0)">\</text><rect class="key-base" width="50" height="50" transform="translate(150, 675.0) rotate(0)" rx="8" ry="8" /><rect class="key-cap" width="40.0" height="40.0" transform="translate(155.0, 680.0) rotate(0)" rx="3" ry="3" /><text class="key-text" transform="translate(160.0, 705.0) rotate(0)">|</text><rect class="key-base" width="50" height="50" transform="translate(200, 681.25) rotate(0)" rx="8" ry="8" /><rect class="key-cap" width="40.0" height="40.0" transform="translate(205.0, 686.25) rotate(0)" rx="3" ry="3" /><text class="key-text" transform="translate(210.0, 711.25) rotate(0)">-</text><rect class="key-base" width="50" height="50" transform="translate(250, 687.5) rotate(0)" rx="8" ry="8" /><rect class="key-cap" width="40.0" height="40.0" transform="translate(255.0, 692.5) rotate(0)" rx="3" ry="3" /><text class="key-text" transform="translate(260.0, 717.5) rotate(0)">+</text><rect class="key-base" width="50" height="50" transform="translate(525.0, 687.5) rotate(0)" rx="8" ry="8" /><rect class="key-cap" width="40.0" height="40.0" transform="translate(530.0, 692.5) rotate(0)" rx="3" ry="3" /><text class="key-text" transform="translate(535.0, 717.5) rotate(0)">&amp;</text><rect class="key-base" width="50" height="50" transform="translate(575.0, 681.25) rotate(0)" rx="8" ry="8" /><rect class="key-cap" width="40.0" height="40.0" transform="translate(580.0, 686.25) rotate(0)" rx="3" ry="3" /><text class="key-text" transform="translate(585.0, 711.25) rotate(0)">+</text><rect class="key-base" width="50" height="50" transform="translate(625.0, 675.0) rotate(0)" rx="8" ry="8" /><rect class="key-cap" width="40.0" height="40.0" transform="translate(630.0, 680.0) rotate(0)" rx="3" ry="3" /><text class="key-text" transform="translate(635.0, 705.0) rotate(0)">-</text><rect class="key-base" width="50" height="50" transform="translate(675.0, 681.25) rotate(0)" rx="8" ry="8" /><rect class="key-cap" width="40.0" height="40.0" transform="translate(680.0, 686.25) rotate(0)" rx="3" ry="3" /><text class="key-text" transform="translate(685.0, 711.25) rotate(0)"></text><rect class="key-base" width="50" height="50" transform="translate(725.0, 693.75) rotate(0)" rx="8" ry="8" /><rect class="key-cap" width="40.0" height="40.0" transform="translate(730.0, 698.75) rotate(0)" rx="3" ry="3" /><text class="key-text" transform="translate(735.0, 723.75) rotate(0)"></text><rect class="key-base" width="50" height="50" transform="translate(775.0, 700.0) rotate(0)" rx="8" ry="8" /><rect class="key-cap" width="40.0" height="40.0" transform="translate(780.0, 705.0) rotate(0)" rx="3" ry="3" /><text class="key-text" transform="translate(785.0, 730.0) rotate(0)"></text><rect class="key-base" width="50" height="50" transform="translate(0, 750.0) rotate(0)" rx="8" ry="8" /><rect class="key-cap" width="40.0" height="40.0" transform="translate(5.0, 755.0) rotate(0)" rx="3" ry="3" /><text class="key-text" transform="translate(10.0, 780.0) rotate(0)">F1</text><rect class="key-base" width="50" height="50" transform="translate(50, 743.75) rotate(0)" rx="8" ry="8" /><rect class="key-cap" width="40.0" height="40.0" transform="translate(55.0, 748.75) rotate(0)" rx="3" ry="3" /><text class="key-text" transform="translate(60.0, 773.75) rotate(0)">F2</text><rect class="key-base" width="50" height="50" transform="translate(100, 731.25) rotate(0)" rx="8" ry="8" /><rect class="key-cap" width="40.0" height="40.0" transform="translate(105.0, 736.25) rotate(0)" rx="3" ry="3" /><text class="key-text" transform="translate(110.0, 761.25) rotate(0)">F3</text><rect class="key-base" width="50" height="50" transform="translate(150, 725.0) rotate(0)" rx="8" ry="8" /><rect class="key-cap" width="40.0" height="40.0" transform="translate(155.0, 730.0) rotate(0)" rx="3" ry="3" /><text class="key-text" transform="translate(160.0, 755.0) rotate(0)">F4</text><rect class="key-base" width="50" height="50" transform="translate(200, 731.25) rotate(0)" rx="8" ry="8" /><rect class="key-cap" width="40.0" height="40.0" transform="translate(205.0, 736.25) rotate(0)" rx="3" ry="3" /><text class="key-text" transform="translate(210.0, 761.25) rotate(0)">F5</text><rect class="key-base" width="50" height="50" transform="translate(250, 737.5) rotate(0)" rx="8" ry="8" /><rect class="key-cap" width="40.0" height="40.0" transform="translate(255.0, 742.5) rotate(0)" rx="3" ry="3" /><text class="key-text" transform="translate(260.0, 767.5) rotate(0)">F6</text><rect class="key-base" width="50" height="50" transform="translate(525.0, 737.5) rotate(0)" rx="8" ry="8" /><rect class="key-cap" width="40.0" height="40.0" transform="translate(530.0, 742.5) rotate(0)" rx="3" ry="3" /><text class="key-text" transform="translate(535.0, 767.5) rotate(0)">=</text><rect class="key-base" width="50" height="50" transform="translate(575.0, 731.25) rotate(0)" rx="8" ry="8" /><rect class="key-cap" width="40.0" height="40.0" transform="translate(580.0, 736.25) rotate(0)" rx="3" ry="3" /><text class="key-text" transform="translate(585.0, 761.25) rotate(0)">&#8593;</text><rect class="key-base" width="50" height="50" transform="translate(625.0, 725.0) rotate(0)" rx="8" ry="8" /><rect class="key-cap" width="40.0" height="40.0" transform="translate(630.0, 730.0) rotate(0)" rx="3" ry="3" /><text class="key-text" transform="translate(635.0, 755.0) rotate(0)"></text><rect class="key-base" width="50" height="50" transform="translate(675.0, 731.25) rotate(0)" rx="8" ry="8" /><rect class="key-cap" width="40.0" height="40.0" transform="translate(680.0, 736.25) rotate(0)" rx="3" ry="3" /><text class="key-text" transform="translate(685.0, 761.25) rotate(0)"></text><rect class="key-base" width="50" height="50" transform="translate(725.0, 743.75) rotate(0)" rx="8" ry="8" /><rect class="key-cap" width="40.0" height="40.0" transform="translate(730.0, 748.75) rotate(0)" rx="3" ry="3" /><text class="key-text" transform="translate(735.0, 773.75) rotate(0)"></text><rect class="key-base" width="50" height="50" transform="translate(775.0, 750.0) rotate(0)" rx="8" ry="8" /><rect class="key-cap" width="40.0" height="40.0" transform="translate(780.0, 755.0) rotate(0)" rx="3" ry="3" /><text class="key-text" transform="translate(785.0, 780.0) rotate(0)"></text><rect class="key-base" width="50" height="50" transform="translate(0, 800.0) rotate(0)" rx="8" ry="8" /><rect class="key-cap" width="40.0" height="40.0" transform="translate(5.0, 805.0) rotate(0)" rx="3" ry="3" /><text class="key-text" transform="translate(10.0, 830.0) rotate(0)">F7</text><rect class="key-base" width="50" height="50" transform="translate(50, 793.75) rotate(0)" rx="8" ry="8" /><rect class="key-cap" width="40.0" height="40.0" transform="translate(55.0, 798.75) rotate(0)" rx="3" ry="3" /><text class="key-text" transform="translate(60.0, 823.75) rotate(0)">F8</text><rect class="key-base" width="50" height="50" transform="translate(100, 781.25) rotate(0)" rx="8" ry="8" /><rect class="key-cap" width="40.0" height="40.0" transform="translate(105.0, 786.25) rotate(0)" rx="3" ry="3" /><text class="key-text" transform="translate(110.0, 811.25) rotate(0)">F9</text><rect class="key-base" width="50" height="50" transform="translate(150, 775.0) rotate(0)" rx="8" ry="8" /><rect class="key-cap" width="40.0" height="40.0" transform="translate(155.0, 780.0) rotate(0)" rx="3" ry="3" /><text class="key-text" transform="translate(160.0, 805.0) rotate(0)">F10</text><rect class="key-base" width="50" height="50" transform="translate(200, 781.25) rotate(0)" rx="8" ry="8" /><rect class="key-cap" width="40.0" height="40.0" transform="translate(205.0, 786.25) rotate(0)" rx="3" ry="3" /><text class="key-text" transform="translate(210.0, 811.25) rotate(0)">F11</text><rect class="key-base" width="50" height="50" transform="translate(250, 787.5) rotate(0)" rx="8" ry="8" /><rect class="key-cap" width="40.0" height="40.0" transform="translate(255.0, 792.5) rotate(0)" rx="3" ry="3" /><text class="key-text" transform="translate(260.0, 817.5) rotate(0)">F12</text><rect class="key-base" width="50" height="50" transform="translate(300, 762.5) rotate(0)" rx="8" ry="8" /><rect class="key-cap" width="40.0" height="40.0" transform="translate(305.0, 767.5) rotate(0)" rx="3" ry="3" /><text class="key-text" transform="translate(310.0, 792.5) rotate(0)"></text><rect class="key-base" width="50" height="50" transform="translate(475.0, 762.5) rotate(0)" rx="8" ry="8" /><rect class="key-cap" width="40.0" height="40.0" transform="translate(480.0, 767.5) rotate(0)" rx="3" ry="3" /><text class="key-text" transform="translate(485.0, 792.5) rotate(0)"></text><rect class="key-base" width="50" height="50" transform="translate(525.0, 787.5) rotate(0)" rx="8" ry="8" /><rect class="key-cap" width="40.0" height="40.0" transform="translate(530.0, 792.5) rotate(0)" rx="3" ry="3" /><text class="key-text" transform="translate(535.0, 817.5) rotate(0)">&#8592;</text><rect class="key-base" width="50" height="50" transform="translate(575.0, 781.25) rotate(0)" rx="8" ry="8" /><rect class="key-cap" width="40.0" height="40.0" transform="translate(580.0, 786.25) rotate(0)" rx="3" ry="3" /><text class="key-text" transform="translate(585.0, 811.25) rotate(0)">&#8595;</text><rect class="key-base" width="50" height="50" transform="translate(625.0, 775.0) rotate(0)" rx="8" ry="8" /><rect class="key-cap" width="40.0" height="40.0" transform="translate(630.0, 780.0) rotate(0)" rx="3" ry="3" /><text class="key-text" transform="translate(635.0, 805.0) rotate(0)">&#8594;</text><rect class="key-base" width="50" height="50" transform="translate(675.0, 781.25) rotate(0)" rx="8" ry="8" /><rect class="key-cap" width="40.0" height="40.0" transform="translate(680.0, 786.25) rotate(0)" rx="3" ry="3" /><text class="key-text" transform="translate(685.0, 811.25) rotate(0)"></text><rect class="key-base" width="50" height="50" transform="translate(725.0, 793.75) rotate(0)" rx="8" ry="8" /><rect class="key-cap" width="40.0" height="40.0" transform="translate(730.0, 798.75) rotate(0)" rx="3" ry="3" /><text class="key-text" transform="translate(735.0, 823.75) rotate(0)"></text><rect class="key-base" width="50" height="50" transform="translate(775.0, 800.0) rotate(0)" rx="8" ry="8" /><rect class="key-cap" width="40.0" height="40.0" transform="translate(780.0, 805.0) rotate(0)" rx="3" ry="3" /><text class="key-text" transform="translate(785.0, 830.0) rotate(0)">CALC</text><rect class="key-base" width="50" height="50" transform="translate(125.0, 831.25) rotate(0)" rx="8" ry="8" /><rect class="key-cap" width="40.0" height="40.0" transform="translate(130.0, 836.25) rotate(0)" rx="3" ry="3" /><text class="key-text" transform="translate(135.0, 861.25) rotate(0)"></text><rect class="key-base" width="50" height="50" transform="translate(175.0, 832.5) rotate(0)" rx="8" ry="8" /><rect class="key-cap" width="40.0" height="40.0" transform="translate(180.0, 837.5) rotate(0)" rx="3" ry="3" /><text class="key-text" transform="translate(185.0, 862.5) rotate(0)"></text><rect class="key-base" width="50" height="50" transform="translate(225.0, 837.5) rotate(0)" rx="8" ry="8" /><rect class="key-cap" width="40.0" height="40.0" transform="translate(230.0, 842.5) rotate(0)" rx="3" ry="3" /><text class="key-text" transform="translate(235.0, 867.5) rotate(0)"></text><rect class="key-base" width="50" height="75.0" transform="translate(290.0, 830.0) rotate(30)" rx="8" ry="8" /><rect class="key-cap" width="40.0" height="60.0" transform="translate(295.0, 837.5) rotate(30)" rx="3" ry="3" /><text class="key-text" transform="translate(305.0, 887.5) rotate(-60)"></text><rect class="key-base" width="50" height="75.0" transform="translate(484.99999999999994, 830.0) rotate(-30)" rx="8" ry="8" /><rect class="key-cap" width="40.0" height="60.0" transform="translate(489.99999999999994, 837.5) rotate(-30)" rx="3" ry="3" /><text class="key-text" transform="translate(496.24999999999994, 852.5) rotate(60)"></text><rect class="key-base" width="50" height="50" transform="translate(550, 837.5) rotate(0)" rx="8" ry="8" /><rect class="key-cap" width="40.0" height="40.0" transform="translate(555.0, 842.5) rotate(0)" rx="3" ry="3" /><text class="key-text" transform="translate(560.0, 867.5) rotate(0)">RAISE</text><rect class="key-base" width="50" height="50" transform="translate(600, 832.5) rotate(0)" rx="8" ry="8" /><rect class="key-cap" width="40.0" height="40.0" transform="translate(605.0, 837.5) rotate(0)" rx="3" ry="3" /><text class="key-text" transform="translate(610.0, 862.5) rotate(0)"></text><rect class="key-base" width="50" height="50" transform="translate(650, 832.5) rotate(0)" rx="8" ry="8" /><rect class="key-cap" width="40.0" height="40.0" transform="translate(655.0, 837.5) rotate(0)" rx="3" ry="3" /><text class="key-text" transform="translate(660.0, 862.5) rotate(0)"></text></svg>