<svg version="1.1" width="1000" height="2500" xmlns="http://www.w3.org/2000/svg"><style>rect {transform-origin: center; transform-box: fill-box;}text {transform-origin: center; transform-box: fill-box; font-family: sans-serif; font-size: 14;}.key-base {stroke: black; fill: #C3C3C3; stroke-width=1;}.key-cap {stroke: #BFBBBB; fill: white; stroke-width=1;}.key-text {fill=black;}</style><rect fill="transparent" /><rect class="key-base" width="50" height="50" transform="translate(0, 55.0) rotate(0)" rx="8" ry="8" /><rect class="key-cap" width="40.0" height="40.0" transform="translate(5.0, 60.0) rotate(0)" rx="3" ry="3" /><text class="key-text" transform="translate(10.0, 85.0) rotate(0)">ESC</text><rect class="key-base" width="50" height="50" transform="translate(50, 48.75) rotate(0)" rx="8" ry="8" /><rect class="key-cap" width="40.0" height="40.0" transform="translate(55.0, 53.75) rotate(0)" rx="3" ry="3" /><text class="key-text" transform="translate(60.0, 78.75) rotate(0)">1</text><rect class="key-base" width="50" height="50" transform="translate(100, 36.25) rotate(0)" rx="8" ry="8" /><rect class="key-cap" width="40.0" height="40.0" transform="translate(105.0, 41.25) rotate(0)" rx="3" ry="3" /><text class="key-text" transform="translate(110.0, 66.25) rotate(0)">2</text><rect class="key-base" width="50" height="50" transform="translate(150, 30) rotate(0)" rx="8" ry="8" /><rect class="key-cap" width="40.0" height="40.0" transform="translate(155.0, 35.0) rotate(0)" rx="3" ry="3" /><text class="key-text" transform="translate(160.0, 60.0) rotate(0)">3</text><rect class="key-base" width="50" height="50" transform="translate(200, 36.25) rotate(0)" rx="8" ry="8" /><rect class="key-cap" width="40.0" height="40.0" transform="translate(205.0, 41.25) rotate(0)" rx="3" ry="3" /><text class="key-text" transform="translate(210.0, 66.25) rotate(0)">4</text><rect class="key-base" width="50" height="50" transform="translate(250, 42.5) rotate(0)" rx="8" ry="8" /><rect class="key-cap" width="40.0" height="40.0" transform="translate(255.0, 47.5) rotate(0)" rx="3" ry="3" /><text class="key-text" transform="translate(260.0, 72.5) rotate(0)">5</text><rect class="key-base" width="50" height="50" transform="translate(525.0, 42.5) rotate(0)" rx="8" ry="8" /><rect class="key-cap" width="40.0" height="40.0" transform="translate(530.0, 47.5) rotate(0)" rx="3" ry="3" /><text class="key-text" transform="translate(535.0, 72.5) rotate(0)">6</text><rect class="key-base" width="50" height="50" transform="translate(575.0, 36.25) rotate(0)" rx="8" ry="8" /><rect class="key-cap" width="40.0" height="40.0" transform="translate(580.0, 41.25) rotate(0)" rx="3" ry="3" /><text class="key-text" transform="translate(585.0, 66.25) rotate(0)">7</text><rect class="key-base" width="50" height="50" transform="translate(625.0, 30) rotate(0)" rx="8" ry="8" /><rect class="key-cap" width="40.0" height="40.0" transform="translate(630.0, 35.0) rotate(0)" rx="3" ry="3" /><text class="key-text" transform="translate(635.0, 60.0) rotate(0)">8</text><rect class="key-base" width="50" height="50" transform="translate(675.0, 36.25) rotate(0)" rx="8" ry="8" /><rect class="key-cap" width="40.0" height="40.0" transform="translate(680.0, 41.25) rotate(0)" rx="3" ry="3" /><text class="key-text" transform="translate(685.0, 66.25) rotate(0)">9</text><rect class="key-base" width="50" height="50" transform="translate(725.0, 48.75) rotate(0)" rx="8" ry="8" /><rect class="key-cap" width="40.0" height="40.0" transform="translate(730.0, 53.75) rotate(0)" rx="3" ry="3" /><text class="key-text" transform="translate(735.0, 78.75) rotate(0)">0</text><rect class="key-base" width="50" height="50" transform="translate(775.0, 55.0) rotate(0)" rx="8" ry="8" /><rect class="key-cap" width="40.0" height="40.0" transform="translate(780.0, 60.0) rotate(0)" rx="3" ry="3" /><text class="key-text" transform="translate(785.0, 85.0) rotate(0)">&#9003;</text><rect class="key-base" width="50" height="50" transform="translate(0, 105.0) rotate(0)" rx="8" ry="8" /><rect class="key-cap" width="40.0" height="40.0" transform="translate(5.0, 110.0) rotate(0)" rx="3" ry="3" /><text class="key-text" transform="translate(10.0, 135.0) rotate(0)">TAB</text><rect class="key-base" width="50" height="50" transform="translate(50, 98.75) rotate(0)" rx="8" ry="8" /><rect class="key-cap" width="40.0" height="40.0" transform="translate(55.0, 103.75) rotate(0)" rx="3" ry="3" /><text class="key-text" transform="translate(60.0, 128.75) rotate(0)">Q</text><rect class="key-base" width="50" height="50" transform="translate(100, 86.25) rotate(0)" rx="8" ry="8" /><rect class="key-cap" width="40.0" height="40.0" transform="translate(105.0, 91.25) rotate(0)" rx="3" ry="3" /><text class="key-text" transform="translate(110.0, 116.25) rotate(0)">W</text><rect class="key-base" width="50" height="50" transform="translate(150, 80) rotate(0)" rx="8" ry="8" /><rect class="key-cap" width="40.0" height="40.0" transform="translate(155.0, 85.0) rotate(0)" rx="3" ry="3" /><text class="key-text" transform="translate(160.0, 110.0) rotate(0)">E</text><rect class="key-base" width="50" height="50" transform="translate(200, 86.25) rotate(0)" rx="8" ry="8" /><rect class="key-cap" width="40.0" height="40.0" transform="translate(205.0, 91.25) rotate(0)" rx="3" ry="3" /><text class="key-text" transform="translate(210.0, 116.25) rotate(0)">R</text><rect class="key-base" width="50" height="50" transform="translate(250, 92.5) rotate(0)" rx="8" ry="8" /><rect class="key-cap" width="40.0" height="40.0" transform="translate(255.0, 97.5) rotate(0)" rx="3" ry="3" /><text class="key-text" transform="translate(260.0, 122.5) rotate(0)">T</text><rect class="key-base" width="50" height="50" transform="translate(525.0, 92.5) rotate(0)" rx="8" ry="8" /><rect class="key-cap" width="40.0" height="40.0" transform="translate(530.0, 97.5) rotate(0)" rx="3" ry="3" /><text class="key-text" transform="translate(535.0, 122.5) rotate(0)">Y</text><rect class="key-base" width="50" height="50" transform="translate(575.0, 86.25) rotate(0)" rx="8" ry="8" /><rect class="key-cap" width="40.0" height="40.0" transform="translate(580.0, 91.25) rotate(0)" rx="3" ry="3" /><text class="key-text" transform="translate(585.0, 116.25) rotate(0)">U</text><rect class="key-base" width="50" height="50" transform="translate(625.0, 80) rotate(0)" rx="8" ry="8" /><rect class="key-cap" width="40.0" height="40.0" transform="translate(630.0, 85.0) rotate(0)" rx="3" ry="3" /><text class="key-text" transform="translate(635.0, 110.0) rotate(0)">I</text><rect class="key-base" width="50" height="50" transform="translate(675.0, 86.25) rotate(0)" rx="8" ry="8" /><rect class="key-cap" width="40.0" height="40.0" transform="translate(680.0, 91.25) rotate(0)" rx="3" ry="3" /><text class="key-text" transform="translate(685.0, 116.25) rotate(0)">O</text><rect class="key-base" width="50" height="50" transform="translate(725.0, 98.75) rotate(0)" rx="8" ry="8" /><rect class="key-cap" width="40.0" height="40.0" transform="translate(730.0, 103.75) rotate(0)" rx="3" ry="3" /><text class="key-text" transform="translate(735.0, 128.75) rotate(0)">P</text><rect class="key-base" width="50" height="50" transform="translate(775.0, 105.0) rotate(0)" rx="8" ry="8" /><rect class="key-cap" width="40.0" height="40.0" transform="translate(780.0, 110.0) rotate(0)" rx="3" ry="3" /><text class="key-text" transform="translate(785.0, 135.0) rotate(0)">\</text><rect class="key-base" width="50" height="50" transform="translate(0, 155.0) rotate(0)" rx="8" ry="8" /><rect class="key-cap" width="40.0" height="40.0" transform="translate(5.0, 160.0) rotate(0)" rx="3" ry="3" /><text class="key-text" transform="translate(10.0, 185.0) rotate(0)">SHIFT</text><rect class="key-base" width="50" height="50" transform="translate(50, 148.75) rotate(0)" rx="8" ry="8" /><rect class="key-cap" width="40.0" height="40.0" transform="translate(55.0, 153.75) rotate(0)" rx="3" ry="3" /><text class="key-text" transform="translate(60.0, 178.75) rotate(0)">A</text><rect class="key-base" width="50" height="50" transform="translate(100, 136.25) rotate(0)" rx="8" ry="8" /><rect class="key-cap" width="40.0" height="40.0" transform="translate(105.0, 141.25) rotate(0)" rx="3" ry="3" /><text class="key-text" transform="translate(110.0, 166.25) rotate(0)">S</text><rect class="key-base" width="50" height="50" transform="translate(150, 130) rotate(0)" rx="8" ry="8" /><rect class="key-cap" width="40.0" height="40.0" transform="translate(155.0, 135.0) rotate(0)" rx="3" ry="3" /><text class="key-text" transform="translate(160.0, 160.0) rotate(0)">D</text><rect class="key-base" width="50" height="50" transform="translate(200, 136.25) rotate(0)" rx="8" ry="8" /><rect class="key-cap" width="40.0" height="40.0" transform="translate(205.0, 141.25) rotate(0)" rx="3" ry="3" /><text class="key-text" transform="translate(210.0, 166.25) rotate(0)">F</text><rect class="key-base" width="50" height="50" transform="translate(250, 142.5) rotate(0)" rx="8" ry="8" /><rect class="key-cap" width="40.0" height="40.0" transform="translate(255.0, 147.5) rotate(0)" rx="3" ry="3" /><text class="key-text" transform="translate(260.0, 172.5) rotate(0)">G</text><rect class="key-base" width="50" height="50" transform="translate(525.0, 142.5) rotate(0)" rx="8" ry="8" /><rect class="key-cap" width="40.0" height="40.0" transform="translate(530.0, 147.5) rotate(0)" rx="3" ry="3" /><text class="key-text" transform="translate(535.0, 172.5) rotate(0)">H</text><rect class="key-base" width="50" height="50" transform="translate(575.0, 136.25) rotate(0)" rx="8" ry="8" /><rect class="key-cap" width="40.0" height="40.0" transform="translate(580.0, 141.25) rotate(0)" rx="3" ry="3" /><text class="key-text" transform="translate(585.0, 166.25) rotate(0)">J</text><rect class="key-base" width="50" height="50" transform="translate(625.0, 130) rotate(0)" rx="8" ry="8" /><rect class="key-cap" width="40.0" height="40.0" transform="translate(630.0, 135.0) rotate(0)" rx="3" ry="3" /><text class="key-text" transform="translate(635.0, 160.0) rotate(0)">K</text><rect class="key-base" width="50" height="50" transform="translate(675.0, 136.25) rotate(0)" rx="8" ry="8" /><rect class="key-cap" width="40.0" height="40.0" transform="translate(680.0, 141.25) rotate(0)" rx="3" ry="3" /><text class="key-text" transform="translate(685.0, 166.25) rotate(0)">L</text><rect class="key-base" width="50" height="50" transform="translate(725.0, 148.75) rotate(0)" rx="8" ry="8" /><rect class="key-cap" width="40.0" height="40.0" transform="translate(730.0, 153.75) rotate(0)" rx="3" ry="3" /><text class="key-text" transform="translate(735.0, 178.75) rotate(0)">;</text><rect class="key-base" width="50" height="50" transform="translate(775.0, 155.0) rotate(0)" rx="8" ry="8" /><rect class="key-cap" width="40.0" height="40.0" transform="translate(780.0, 160.0) rotate(0)" rx="3" ry="3" /><text class="key-text" transform="translate(785.0, 185.0) rotate(0)">'</text><rect class="key-base" width="50" height="50" transform="translate(0, 205.0) rotate(0)" rx="8" ry="8" /><rect class="key-cap" width="40.0" height="40.0" transform="translate(5.0, 210.0) rotate(0)" rx="3" ry="3" /><text class="key-text" transform="translate(10.0, 235.0) rotate(0)">CTRL</text><rect class="key-base" width="50" height="50" transform="translate(50, 198.75) rotate(0)" rx="8" ry="8" /><rect class="key-cap" width="40.0" height="40.0" transform="translate(55.0, 203.75) rotate(0)" rx="3" ry="3" /><text class="key-text" transform="translate(60.0, 228.75) rotate(0)">Z</text><rect class="key-base" width="50" height="50" transform="translate(100, 186.25) rotate(0)" rx="8" ry="8" /><rect class="key-cap" width="40.0" height="40.0" transform="translate(105.0, 191.25) rotate(0)" rx="3" ry="3" /><text class="key-text" transform="translate(110.0, 216.25) rotate(0)">X</text><rect class="key-base" width="50" height="50" transform="translate(150, 180) rotate(0)" rx="8" ry="8" /><rect class="key-cap" width="40.0" height="40.0" transform="translate(155.0, 185.0) rotate(0)" rx="3" ry="3" /><text class="key-text" transform="translate(160.0, 210.0) rotate(0)">C</text><rect class="key-base" width="50" height="50" transform="translate(200, 186.25) rotate(0)" rx="8" ry="8" /><rect class="key-cap" width="40.0" height="40.0" transform="translate(205.0, 191.25) rotate(0)" rx="3" ry="3" /><text class="key-text" transform="translate(210.0, 216.25) rotate(0)">V</text><rect class="key-base" width="50" height="50" transform="translate(250, 192.5) rotate(0)" rx="8" ry="8" /><rect class="key-cap" width="40.0" height="40.0" transform="translate(255.0, 197.5) rotate(0)" rx="3" ry="3" /><text class="key-text" transform="translate(260.0, 222.5) rotate(0)">B</text><rect class="key-base" width="50" height="50" transform="translate(300, 167.5) rotate(0)" rx="8" ry="8" /><rect class="key-cap" width="40.0" height="40.0" transform="translate(305.0, 172.5) rotate(0)" rx="3" ry="3" /><text class="key-text" transform="translate(310.0, 197.5) rotate(0)">_______</text><rect class="key-base" width="50" height="50" transform="translate(475.0, 167.5) rotate(0)" rx="8" ry="8" /><rect class="key-cap" width="40.0" height="40.0" transform="translate(480.0, 172.5) rotate(0)" rx="3" ry="3" /><text class="key-text" transform="translate(485.0, 197.5) rotate(0)">`</text><rect class="key-base" width="50" height="50" transform="translate(525.0, 192.5) rotate(0)" rx="8" ry="8" /><rect class="key-cap" width="40.0" height="40.0" transform="translate(530.0, 197.5) rotate(0)" rx="3" ry="3" /><text class="key-text" transform="translate(535.0, 222.5) rotate(0)">N</text><rect class="key-base" width="50" height="50" transform="translate(575.0, 186.25) rotate(0)" rx="8" ry="8" /><rect class="key-cap" width="40.0" height="40.0" transform="translate(580.0, 191.25) rotate(0)" rx="3" ry="3" /><text class="key-text" transform="translate(585.0, 216.25) rotate(0)">M</text><rect class="key-base" width="50" height="50" transform="translate(625.0, 180) rotate(0)" rx="8" ry="8" /><rect class="key-cap" width="40.0" height="40.0" transform="translate(630.0, 185.0) rotate(0)" rx="3" ry="3" /><text class="key-text" transform="translate(635.0, 210.0) rotate(0)">,</text><rect class="key-base" width="50" height="50" transform="translate(675.0, 186.25) rotate(0)" rx="8" ry="8" /><rect class="key-cap" width="40.0" height="40.0" transform="translate(680.0, 191.25) rotate(0)" rx="3" ry="3" /><text class="key-text" transform="translate(685.0, 216.25) rotate(0)">.</text><rect class="key-base" width="50" height="50" transform="translate(725.0, 198.75) rotate(0)" rx="8" ry="8" /><rect class="key-cap" width="40.0" height="40.0" transform="translate(730.0, 203.75) rotate(0)" rx="3" ry="3" /><text class="key-text" transform="translate(735.0, 228.75) rotate(0)">/</text><rect class="key-base" width="50" height="50" transform="translate(775.0, 205.0) rotate(0)" rx="8" ry="8" /><rect class="key-cap" width="40.0" height="40.0" transform="translate(780.0, 210.0) rotate(0)" rx="3" ry="3" /><text class="key-text" transform="translate(785.0, 235.0) rotate(0)">&#8629;</text><rect class="key-base" width="50" height="50" transform="translate(125.0, 236.25) rotate(0)" rx="8" ry="8" /><rect class="key-cap" width="40.0" height="40.0" transform="translate(130.0, 241.25) rotate(0)" rx="3" ry="3" /><text class="key-text" transform="translate(135.0, 266.25) rotate(0)">ALT</text><rect class="key-base" width="50" height="50" transform="translate(175.0, 237.50000000000003) rotate(0)" rx="8" ry="8" /><rect class="key-cap" width="40.0" height="40.0" transform="translate(180.0, 242.50000000000003) rotate(0)" rx="3" ry="3" /><text class="key-text" transform="translate(185.0, 267.5) rotate(0)">GUI</text><rect class="key-base" width="50" height="50" transform="translate(225.0, 242.5) rotate(0)" rx="8" ry="8" /><rect class="key-cap" width="40.0" height="40.0" transform="translate(230.0, 247.5) rotate(0)" rx="3" ry="3" /><text class="key-text" transform="translate(235.0, 272.5) rotate(0)">LOWER</text><rect class="key-base" width="50" height="75.0" transform="translate(290.0, 234.99999999999997) rotate(30)" rx="8" ry="8" /><rect class="key-cap" width="40.0" height="60.0" transform="translate(295.0, 242.49999999999997) rotate(30)" rx="3" ry="3" /><text class="key-text" transform="translate(305.0, 292.5) rotate(-60)">SPACE</text><rect class="key-base" width="50" height="75.0" transform="translate(484.99999999999994, 234.99999999999997) rotate(-30)" rx="8" ry="8" /><rect class="key-cap" width="40.0" height="60.0" transform="translate(489.99999999999994, 242.49999999999997) rotate(-30)" rx="3" ry="3" /><text class="key-text" transform="translate(496.24999999999994, 257.5) rotate(60)">SPACE</text><rect class="key-base" width="50" height="50" transform="translate(550, 242.5) rotate(0)" rx="8" ry="8" /><rect class="key-cap" width="40.0" height="40.0" transform="translate(555.0, 247.5) rotate(0)" rx="3" ry="3" /><text class="key-text" transform="translate(560.0, 272.5) rotate(0)">RAISE</text><rect class="key-base" width="50" height="50" transform="translate(600, 237.50000000000003) rotate(0)" rx="8" ry="8" /><rect class="key-cap" width="40.0" height="40.0" transform="translate(605.0, 242.50000000000003) rotate(0)" rx="3" ry="3" /><text class="key-text" transform="translate(610.0, 267.5) rotate(0)">HOME</text><rect class="key-base" width="50" height="50" transform="translate(650, 237.50000000000003) rotate(0)" rx="8" ry="8" /><rect class="key-cap" width="40.0" height="40.0" transform="translate(655.0, 242.50000000000003) rotate(0)" rx="3" ry="3" /><text class="key-text" transform="translate(660.0, 267.5) rotate(0)">END</text><rect class="key-base" width="50" height="50" transform="translate(0, 355.0) rotate(0)" rx="8" ry="8" /><rect class="key-cap" width="40.0" height="40.0" transform="translate(5.0, 360.0) rotate(0)" rx="3" ry="3" /><text class="key-text" transform="translate(10.0, 385.0) rotate(0)">`</text><rect class="key-base" width="50" height="50" transform="translate(50, 348.75) rotate(0)" rx="8" ry="8" /><rect class="key-cap" width="40.0" height="40.0" transform="translate(55.0, 353.75) rotate(0)" rx="3" ry="3" /><text class="key-text" transform="translate(60.0, 378.75) rotate(0)">F1</text><rect class="key-base" width="50" height="50" transform="translate(100, 336.25) rotate(0)" rx="8" ry="8" /><rect class="key-cap" width="40.0" height="40.0" transform="translate(105.0, 341.25) rotate(0)" rx="3" ry="3" /><text class="key-text" transform="translate(110.0, 366.25) rotate(0)">F2</text><rect class="key-base" width="50" height="50" transform="translate(150, 330) rotate(0)" rx="8" ry="8" /><rect class="key-cap" width="40.0" height="40.0" transform="translate(155.0, 335.0) rotate(0)" rx="3" ry="3" /><text class="key-text" transform="translate(160.0, 360.0) rotate(0)">F3</text><rect class="key-base" width="50" height="50" transform="translate(200, 336.25) rotate(0)" rx="8" ry="8" /><rect class="key-cap" width="40.0" height="40.0" transform="translate(205.0, 341.25) rotate(0)" rx="3" ry="3" /><text class="key-text" transform="translate(210.0, 366.25) rotate(0)">F4</text><rect class="key-base" width="50" height="50" transform="translate(250, 342.5) rotate(0)" rx="8" ry="8" /><rect class="key-cap" width="40.0" height="40.0" transform="translate(255.0, 347.5) rotate(0)" rx="3" ry="3" /><text class="key-text" transform="translate(260.0, 372.5) rotate(0)">F5</text><rect class="key-base" width="50" height="50" transform="translate(525.0, 342.5) rotate(0)" rx="8" ry="8" /><rect class="key-cap" width="40.0" height="40.0" transform="translate(530.0, 347.5) rotate(0)" rx="3" ry="3" /><text class="key-text" transform="translate(535.0, 372.5) rotate(0)">F6</text><rect class="key-base" width="50" height="50" transform="translate(575.0, 336.25) rotate(0)" rx="8" ry="8" /><rect class="key-cap" width="40.0" height="40.0" transform="translate(580.0, 341.25) rotate(0)" rx="3" ry="3" /><text class="key-text" transform="translate(585.0, 366.25) rotate(0)">F7</text><rect class="key-base" width="50" height="50" transform="translate(625.0, 330) rotate(0)" rx="8" ry="8" /><rect class="key-cap" width="40.0" height="40.0" transform="translate(630.0, 335.0) rotate(0)" rx="3" ry="3" /><text class="key-text" transform="translate(635.0, 360.0) rotate(0)">F8</text><rect class="key-base" width="50" height="50" transform="translate(675.0, 336.25) rotate(0)" rx="8" ry="8" /><rect class="key-cap" width="40.0" height="40.0" transform="translate(680.0, 341.25) rotate(0)" rx="3" ry="3" /><text class="key-text" transform="translate(685.0, 366.25) rotate(0)">F9</text><rect class="key-base" width="50" height="50" transform="translate(725.0, 348.75) rotate(0)" rx="8" ry="8" /><rect class="key-cap" width="40.0" height="40.0" transform="translate(730.0, 353.75) rotate(0)" rx="3" ry="3" /><text class="key-text" transform="translate(735.0, 378.75) rotate(0)">F10</text><rect class="key-base" width="50" height="50" transform="translate(775.0, 355.0) rotate(0)" rx="8" ry="8" /><rect class="key-cap" width="40.0" height="40.0" transform="translate(780.0, 360.0) rotate(0)" rx="3" ry="3" /><text class="key-text" transform="translate(785.0, 385.0) rotate(0)">&#8998;</text><rect class="key-base" width="50" height="50" transform="translate(0, 405.0) rotate(0)" rx="8" ry="8" /><rect class="key-cap" width="40.0" height="40.0" transform="translate(5.0, 410.0) rotate(0)" rx="3" ry="3" /><text class="key-text" transform="translate(10.0, 435.0) rotate(0)">TAB</text><rect class="key-base" width="50" height="50" transform="translate(50, 398.75) rotate(0)" rx="8" ry="8" /><rect class="key-cap" width="40.0" height="40.0" transform="translate(55.0, 403.75) rotate(0)" rx="3" ry="3" /><text class="key-text" transform="translate(60.0, 428.75) rotate(0)">!</text><rect class="key-base" width="50" height="50" transform="translate(100, 386.25) rotate(0)" rx="8" ry="8" /><rect class="key-cap" width="40.0" height="40.0" transform="translate(105.0, 391.25) rotate(0)" rx="3" ry="3" /><text class="key-text" transform="translate(110.0, 416.25) rotate(0)">@</text><rect class="key-base" width="50" height="50" transform="translate(150, 380) rotate(0)" rx="8" ry="8" /><rect class="key-cap" width="40.0" height="40.0" transform="translate(155.0, 385.0) rotate(0)" rx="3" ry="3" /><text class="key-text" transform="translate(160.0, 410.0) rotate(0)">{</text><rect class="key-base" width="50" height="50" transform="translate(200, 386.25) rotate(0)" rx="8" ry="8" /><rect class="key-cap" width="40.0" height="40.0" transform="translate(205.0, 391.25) rotate(0)" rx="3" ry="3" /><text class="key-text" transform="translate(210.0, 416.25) rotate(0)">}</text><rect class="key-base" width="50" height="50" transform="translate(250, 392.5) rotate(0)" rx="8" ry="8" /><rect class="key-cap" width="40.0" height="40.0" transform="translate(255.0, 397.5) rotate(0)" rx="3" ry="3" /><text class="key-text" transform="translate(260.0, 422.5) rotate(0)">|</text><rect class="key-base" width="50" height="50" transform="translate(525.0, 392.5) rotate(0)" rx="8" ry="8" /><rect class="key-cap" width="40.0" height="40.0" transform="translate(530.0, 397.5) rotate(0)" rx="3" ry="3" /><text class="key-text" transform="translate(535.0, 422.5) rotate(0)">&amp;</text><rect class="key-base" width="50" height="50" transform="translate(575.0, 386.25) rotate(0)" rx="8" ry="8" /><rect class="key-cap" width="40.0" height="40.0" transform="translate(580.0, 391.25) rotate(0)" rx="3" ry="3" /><text class="key-text" transform="translate(585.0, 416.25) rotate(0)">+</text><rect class="key-base" width="50" height="50" transform="translate(625.0, 380) rotate(0)" rx="8" ry="8" /><rect class="key-cap" width="40.0" height="40.0" transform="translate(630.0, 385.0) rotate(0)" rx="3" ry="3" /><text class="key-text" transform="translate(635.0, 410.0) rotate(0)">-</text><rect class="key-base" width="50" height="50" transform="translate(675.0, 386.25) rotate(0)" rx="8" ry="8" /><rect class="key-cap" width="40.0" height="40.0" transform="translate(680.0, 391.25) rotate(0)" rx="3" ry="3" /><text class="key-text" transform="translate(685.0, 416.25) rotate(0)"></text><rect class="key-base" width="50" height="50" transform="translate(725.0, 398.75) rotate(0)" rx="8" ry="8" /><rect class="key-cap" width="40.0" height="40.0" transform="translate(730.0, 403.75) rotate(0)" rx="3" ry="3" /><text class="key-text" transform="translate(735.0, 428.75) rotate(0)"></text><rect class="key-base" width="50" height="50" transform="translate(775.0, 405.0) rotate(0)" rx="8" ry="8" /><rect class="key-cap" width="40.0" height="40.0" transform="translate(780.0, 410.0) rotate(0)" rx="3" ry="3" /><text class="key-text" transform="translate(785.0, 435.0) rotate(0)"></text><rect class="key-base" width="50" height="50" transform="translate(0, 455.0) rotate(0)" rx="8" ry="8" /><rect class="key-cap" width="40.0" height="40.0" transform="translate(5.0, 460.0) rotate(0)" rx="3" ry="3" /><text class="key-text" transform="translate(10.0, 485.0) rotate(0)">SHIFT</text><rect class="key-base" width="50" height="50" transform="translate(50, 448.75) rotate(0)" rx="8" ry="8" /><rect class="key-cap" width="40.0" height="40.0" transform="translate(55.0, 453.75) rotate(0)" rx="3" ry="3" /><text class="key-text" transform="translate(60.0, 478.75) rotate(0)">#</text><rect class="key-base" width="50" height="50" transform="translate(100, 436.25) rotate(0)" rx="8" ry="8" /><rect class="key-cap" width="40.0" height="40.0" transform="translate(105.0, 441.25) rotate(0)" rx="3" ry="3" /><text class="key-text" transform="translate(110.0, 466.25) rotate(0)">$</text><rect class="key-base" width="50" height="50" transform="translate(150, 430) rotate(0)" rx="8" ry="8" /><rect class="key-cap" width="40.0" height="40.0" transform="translate(155.0, 435.0) rotate(0)" rx="3" ry="3" /><text class="key-text" transform="translate(160.0, 460.0) rotate(0)">(</text><rect class="key-base" width="50" height="50" transform="translate(200, 436.25) rotate(0)" rx="8" ry="8" /><rect class="key-cap" width="40.0" height="40.0" transform="translate(205.0, 441.25) rotate(0)" rx="3" ry="3" /><text class="key-text" transform="translate(210.0, 466.25) rotate(0)">)</text><rect class="key-base" width="50" height="50" transform="translate(250, 442.5) rotate(0)" rx="8" ry="8" /><rect class="key-cap" width="40.0" height="40.0" transform="translate(255.0, 447.5) rotate(0)" rx="3" ry="3" /><text class="key-text" transform="translate(260.0, 472.5) rotate(0)">`</text><rect class="key-base" width="50" height="50" transform="translate(525.0, 442.5) rotate(0)" rx="8" ry="8" /><rect class="key-cap" width="40.0" height="40.0" transform="translate(530.0, 447.5) rotate(0)" rx="3" ry="3" /><text class="key-text" transform="translate(535.0, 472.5) rotate(0)">=</text><rect class="key-base" width="50" height="50" transform="translate(575.0, 436.25) rotate(0)" rx="8" ry="8" /><rect class="key-cap" width="40.0" height="40.0" transform="translate(580.0, 441.25) rotate(0)" rx="3" ry="3" /><text class="key-text" transform="translate(585.0, 466.25) rotate(0)">&#8593;</text><rect class="key-base" width="50" height="50" transform="translate(625.0, 430) rotate(0)" rx="8" ry="8" /><rect class="key-cap" width="40.0" height="40.0" transform="translate(630.0, 435.0) rotate(0)" rx="3" ry="3" /><text class="key-text" transform="translate(635.0, 460.0) rotate(0)"></text><rect class="key-base" width="50" height="50" transform="translate(675.0, 436.25) rotate(0)" rx="8" ry="8" /><rect class="key-cap" width="40.0" height="40.0" transform="translate(680.0, 441.25) rotate(0)" rx="3" ry="3" /><text class="key-text" transform="translate(685.0, 466.25) rotate(0)"></text><rect class="key-base" width="50" height="50" transform="translate(725.0, 448.75) rotate(0)" rx="8" ry="8" /><rect class="key-cap" width="40.0" height="40.0" transform="translate(730.0, 453.75) rotate(0)" rx="3" ry="3" /><text class="key-text" transform="translate(735.0, 478.75) rotate(0)"></text><rect class="key-base" width="50" height="50" transform="translate(775.0, 455.0) rotate(0)" rx="8" ry="8" /><rect class="key-cap" width="40.0" height="40.0" transform="translate(780.0, 460.0) rotate(0)" rx="3" ry="3" /><text class="key-text" transform="translate(785.0, 485.0) rotate(0)"></text><rect class="key-base" width="50" height="50" transform="translate(0, 505.0) rotate(0)" rx="8" ry="8" /><rect class="key-cap" width="40.0" height="40.0" transform="translate(5.0, 510.0) rotate(0)" rx="3" ry="3" /><text class="key-text" transform="translate(10.0, 535.0) rotate(0)">CTRL</text><rect class="key-base" width="50" height="50" transform="translate(50, 498.75) rotate(0)" rx="8" ry="8" /><rect class="key-cap" width="40.0" height="40.0" transform="translate(55.0, 503.75) rotate(0)" rx="3" ry="3" /><text class="key-text" transform="translate(60.0, 528.75) rotate(0)">%</text><rect class="key-base" width="50" height="50" transform="translate(100, 486.25) rotate(0)" rx="8" ry="8" /><rect class="key-cap" width="40.0" height="40.0" transform="translate(105.0, 491.25) rotate(0)" rx="3" ry="3" /><text class="key-text" transform="translate(110.0, 516.25) rotate(0)">^</text><rect class="key-base" width="50" height="50" transform="translate(150, 480) rotate(0)" rx="8" ry="8" /><rect class="key-cap" width="40.0" height="40.0" transform="translate(155.0, 485.0) rotate(0)" rx="3" ry="3" /><text class="key-text" transform="translate(160.0, 510.0) rotate(0)">[</text><rect class="key-base" width="50" height="50" transform="translate(200, 486.25) rotate(0)" rx="8" ry="8" /><rect class="key-cap" width="40.0" height="40.0" transform="translate(205.0, 491.25) rotate(0)" rx="3" ry="3" /><text class="key-text" transform="translate(210.0, 516.25) rotate(0)">]</text><rect class="key-base" width="50" height="50" transform="translate(250, 492.5) rotate(0)" rx="8" ry="8" /><rect class="key-cap" width="40.0" height="40.0" transform="translate(255.0, 497.5) rotate(0)" rx="3" ry="3" /><text class="key-text" transform="translate(260.0, 522.5) rotate(0)">~</text><rect class="key-base" width="50" height="50" transform="translate(300, 467.5) rotate(0)" rx="8" ry="8" /><rect class="key-cap" width="40.0" height="40.0" transform="translate(305.0, 472.5) rotate(0)" rx="3" ry="3" /><text class="key-text" transform="translate(310.0, 497.5) rotate(0)">_______</text><rect class="key-base" width="50" height="50" transform="translate(475.0, 467.5) rotate(0)" rx="8" ry="8" /><rect class="key-cap" width="40.0" height="40.0" transform="translate(480.0, 472.5) rotate(0)" rx="3" ry="3" /><text class="key-text" transform="translate(485.0, 497.5) rotate(0)">`</text><rect class="key-base" width="50" height="50" transform="translate(525.0, 492.5) rotate(0)" rx="8" ry="8" /><rect class="key-cap" width="40.0" height="40.0" transform="translate(530.0, 497.5) rotate(0)" rx="3" ry="3" /><text class="key-text" transform="translate(535.0, 522.5) rotate(0)">&#8592;</text><rect class="key-base" width="50" height="50" transform="translate(575.0, 486.25) rotate(0)" rx="8" ry="8" /><rect class="key-cap" width="40.0" height="40.0" transform="translate(580.0, 491.25) rotate(0)" rx="3" ry="3" /><text class="key-text" transform="translate(585.0, 516.25) rotate(0)">&#8595;</text><rect class="key-base" width="50" height="50" transform="translate(625.0, 480) rotate(0)" rx="8" ry="8" /><rect class="key-cap" width="40.0" height="40.0" transform="translate(630.0, 485.0) rotate(0)" rx="3" ry="3" /><text class="key-text" transform="translate(635.0, 510.0) rotate(0)">&#8594;</text><rect class="key-base" width="50" height="50" transform="translate(675.0, 486.25) rotate(0)" rx="8" ry="8" /><rect class="key-cap" width="40.0" height="40.0" transform="translate(680.0, 491.25) rotate(0)" rx="3" ry="3" /><text class="key-text" transform="translate(685.0, 516.25) rotate(0)"></text><rect class="key-base" width="50" height="50" transform="translate(725.0, 498.75) rotate(0)" rx="8" ry="8" /><rect class="key-cap" width="40.0" height="40.0" transform="translate(730.0, 503.75) rotate(0)" rx="3" ry="3" /><text class="key-text" transform="translate(735.0, 528.75) rotate(0)"></text><rect class="key-base" width="50" height="50" transform="translate(775.0, 505.0) rotate(0)" rx="8" ry="8" /><rect class="key-cap" width="40.0" height="40.0" transform="translate(780.0, 510.0) rotate(0)" rx="3" ry="3" /><text class="key-text" transform="translate(785.0, 535.0) rotate(0)">CALC</text><rect class="key-base" width="50" height="50" transform="translate(125.0, 536.25) rotate(0)" rx="8" ry="8" /><rect class="key-cap" width="40.0" height="40.0" transform="translate(130.0, 541.25) rotate(0)" rx="3" ry="3" /><text class="key-text" transform="translate(135.0, 566.25) rotate(0)">ALT</text><rect class="key-base" width="50" height="50" transform="translate(175.0, 537.5) rotate(0)" rx="8" ry="8" /><rect class="key-cap" width="40.0" height="40.0" transform="translate(180.0, 542.5) rotate(0)" rx="3" ry="3" /><text class="key-text" transform="translate(185.0, 567.5) rotate(0)">GUI</text><rect class="key-base" width="50" height="50" transform="translate(225.0, 542.5) rotate(0)" rx="8" ry="8" /><rect class="key-cap" width="40.0" height="40.0" transform="translate(230.0, 547.5) rotate(0)" rx="3" ry="3" /><text class="key-text" transform="translate(235.0, 572.5) rotate(0)">LOWER</text><rect class="key-base" width="50" height="75.0" transform="translate(290.0, 535.0) rotate(30)" rx="8" ry="8" /><rect class="key-cap" width="40.0" height="60.0" transform="translate(295.0, 542.5) rotate(30)" rx="3" ry="3" /><text class="key-text" transform="translate(305.0, 592.5) rotate(-60)">SPACE</text><rect class="key-base" width="50" height="75.0" transform="translate(484.99999999999994, 535.0) rotate(-30)" rx="8" ry="8" /><rect class="key-cap" width="40.0" height="60.0" transform="translate(489.99999999999994, 542.5) rotate(-30)" rx="3" ry="3" /><text class="key-text" transform="translate(496.24999999999994, 557.5) rotate(60)">SPACE</text><rect class="key-base" width="50" height="50" transform="translate(550, 542.5) rotate(0)" rx="8" ry="8" /><rect class="key-cap" width="40.0" height="40.0" transform="translate(555.0, 547.5) rotate(0)" rx="3" ry="3" /><text class="key-text" transform="translate(560.0, 572.5) rotate(0)">RAISE</text><rect class="key-base" width="50" height="50" transform="translate(600, 537.5) rotate(0)" rx="8" ry="8" /><rect class="key-cap" width="40.0" height="40.0" transform="translate(605.0, 542.5) rotate(0)" rx="3" ry="3" /><text class="key-text" transform="translate(610.0, 567.5) rotate(0)"></text><rect class="key-base" width="50" height="50" transform="translate(650, 537.5) rotate(0)" rx="8" ry="8" /><rect class="key-cap" width="40.0" height="40.0" transform="translate(655.0, 542.5) rotate(0)" rx="3" ry="3" /><text class="key-text" transform="translate(660.0, 567.5) rotate(0)"></text><rect class="key-base" width="50" height="50" transform="translate(0, 655.0) rotate(0)" rx="8" ry="8" /><rect class="key-cap" width="40.0" height="40.0" transform="translate(5.0, 660.0) rotate(0)" rx="3" ry="3" /><text class="key-text" transform="translate(10.0, 685.0) rotate(0)">EE_CLR</text><rect class="key-base" width="50" height="50" transform="translate(50, 648.75) rotate(0)" rx="8" ry="8" /><rect class="key-cap" width="40.0" height="40.0" transform="translate(55.0, 653.75) rotate(0)" rx="3" ry="3" /><text class="key-text" transform="translate(60.0, 678.75) rotate(0)">~</text><rect class="key-base" width="50" height="50" transform="translate(100, 636.25) rotate(0)" rx="8" ry="8" /><rect class="key-cap" width="40.0" height="40.0" transform="translate(105.0, 641.25) rotate(0)" rx="3" ry="3" /><text class="key-text" transform="translate(110.0, 666.25) rotate(0)">MPLY</text><rect class="key-base" width="50" height="50" transform="translate(150, 630) rotate(0)" rx="8" ry="8" /><rect class="key-cap" width="40.0" height="40.0" transform="translate(155.0, 635.0) rotate(0)" rx="3" ry="3" /><text class="key-text" transform="translate(160.0, 660.0) rotate(0)">MUTE</text><rect class="key-base" width="50" height="50" transform="translate(200, 636.25) rotate(0)" rx="8" ry="8" /><rect class="key-cap" width="40.0" height="40.0" transform="translate(205.0, 641.25) rotate(0)" rx="3" ry="3" /><text class="key-text" transform="translate(210.0, 666.25) rotate(0)">VOL +</text><rect class="key-base" width="50" height="50" transform="translate(250, 642.5) rotate(0)" rx="8" ry="8" /><rect class="key-cap" width="40.0" height="40.0" transform="translate(255.0, 647.5) rotate(0)" rx="3" ry="3" /><text class="key-text" transform="translate(260.0, 672.5) rotate(0)">VOL -</text><rect class="key-base" width="50" height="50" transform="translate(525.0, 642.5) rotate(0)" rx="8" ry="8" /><rect class="key-cap" width="40.0" height="40.0" transform="translate(530.0, 647.5) rotate(0)" rx="3" ry="3" /><text class="key-text" transform="translate(535.0, 672.5) rotate(0)">F6</text><rect class="key-base" width="50" height="50" transform="translate(575.0, 636.25) rotate(0)" rx="8" ry="8" /><rect class="key-cap" width="40.0" height="40.0" transform="translate(580.0, 641.25) rotate(0)" rx="3" ry="3" /><text class="key-text" transform="translate(585.0, 666.25) rotate(0)">F7</text><rect class="key-base" width="50" height="50" transform="translate(625.0, 630) rotate(0)" rx="8" ry="8" /><rect class="key-cap" width="40.0" height="40.0" transform="translate(630.0, 635.0) rotate(0)" rx="3" ry="3" /><text class="key-text" transform="translate(635.0, 660.0) rotate(0)">F8</text><rect class="key-base" width="50" height="50" transform="translate(675.0, 636.25) rotate(0)" rx="8" ry="8" /><rect class="key-cap" width="40.0" height="40.0" transform="translate(680.0, 641.25) rotate(0)" rx="3" ry="3" /><text class="key-text" transform="translate(685.0, 666.25) rotate(0)">F9</text><rect class="key-base" width="50" height="50" transform="translate(725.0, 648.75) rotate(0)" rx="8" ry="8" /><rect class="key-cap" width="40.0" height="40.0" transform="translate(730.0, 653.75) rotate(0)" rx="3" ry="3" /><text class="key-text" transform="translate(735.0, 678.75) rotate(0)">F10</text><rect class="key-base" width="50" height="50" transform="translate(775.0, 655.0) rotate(0)" rx="8" ry="8" /><rect class="key-cap" width="40.0" height="40.0" transform="translate(780.0, 660.0) rotate(0)" rx="3" ry="3" /><text class="key-text" transform="translate(785.0, 685.0) rotate(0)">&#8998;</text><rect class="key-base" width="50" height="50" transform="translate(0, 705.0) rotate(0)" rx="8" ry="8" /><rect class="key-cap" width="40.0" height="40.0" transform="translate(5.0, 710.0) rotate(0)" rx="3" ry="3" /><text class="key-text" transform="translate(10.0, 735.0) rotate(0)">+</text><rect class="key-base" width="50" height="50" transform="translate(50, 698.75) rotate(0)" rx="8" ry="8" /><rect class="key-cap" width="40.0" height="40.0" transform="translate(55.0, 703.75) rotate(0)" rx="3" ry="3" /><text class="key-text" transform="translate(60.0, 728.75) rotate(0)">=</text><rect class="key-base" width="50" height="50" transform="translate(100, 686.25) rotate(0)" rx="8" ry="8" /><rect class="key-cap" width="40.0" height="40.0" transform="translate(105.0, 691.25) rotate(0)" rx="3" ry="3" /><text class="key-text" transform="translate(110.0, 716.25) rotate(0)">\</text><rect class="key-base" width="50" height="50" transform="translate(150, 680) rotate(0)" rx="8" ry="8" /><rect class="key-cap" width="40.0" height="40.0" transform="translate(155.0, 685.0) rotate(0)" rx="3" ry="3" /><text class="key-text" transform="translate(160.0, 710.0) rotate(0)">|</text><rect class="key-base" width="50" height="50" transform="translate(200, 686.25) rotate(0)" rx="8" ry="8" /><rect class="key-cap" width="40.0" height="40.0" transform="translate(205.0, 691.25) rotate(0)" rx="3" ry="3" /><text class="key-text" transform="translate(210.0, 716.25) rotate(0)">-</text><rect class="key-base" width="50" height="50" transform="translate(250, 692.5) rotate(0)" rx="8" ry="8" /><rect class="key-cap" width="40.0" height="40.0" transform="translate(255.0, 697.5) rotate(0)" rx="3" ry="3" /><text class="key-text" transform="translate(260.0, 722.5) rotate(0)">+</text><rect class="key-base" width="50" height="50" transform="translate(525.0, 692.5) rotate(0)" rx="8" ry="8" /><rect class="key-cap" width="40.0" height="40.0" transform="translate(530.0, 697.5) rotate(0)" rx="3" ry="3" /><text class="key-text" transform="translate(535.0, 722.5) rotate(0)">&amp;</text><rect class="key-base" width="50" height="50" transform="translate(575.0, 686.25) rotate(0)" rx="8" ry="8" /><rect class="key-cap" width="40.0" height="40.0" transform="translate(580.0, 691.25) rotate(0)" rx="3" ry="3" /><text class="key-text" transform="translate(585.0, 716.25) rotate(0)">+</text><rect class="key-base" width="50" height="50" transform="translate(625.0, 680) rotate(0)" rx="8" ry="8" /><rect class="key-cap" width="40.0" height="40.0" transform="translate(630.0, 685.0) rotate(0)" rx="3" ry="3" /><text class="key-text" transform="translate(635.0, 710.0) rotate(0)">-</text><rect class="key-base" width="50" height="50" transform="translate(675.0, 686.25) rotate(0)" rx="8" ry="8" /><rect class="key-cap" width="40.0" height="40.0" transform="translate(680.0, 691.25) rotate(0)" rx="3" ry="3" /><text class="key-text" transform="translate(685.0, 716.25) rotate(0)"></text><rect class="key-base" width="50" height="50" transform="translate(725.0, 698.75) rotate(0)" rx="8" ry="8" /><rect class="key-cap" width="40.0" height="40.0" transform="translate(730.0, 703.75) rotate(0)" rx="3" ry="3" /><text class="key-text" transform="translate(735.0, 728.75) rotate(0)"></text><rect class="key-base" width="50" height="50" transform="translate(775.0, 705.0) rotate(0)" rx="8" ry="8" /><rect class="key-cap" width="40.0" height="40.0" transform="translate(780.0, 710.0) rotate(0)" rx="3" ry="3" /><text class="key-text" transform="translate(785.0, 735.0) rotate(0)"></text><rect class="key-base" width="50" height="50" transform="translate(0, 755.0) rotate(0)" rx="8" ry="8" /><rect class="key-cap" width="40.0" height="40.0" transform="translate(5.0, 760.0) rotate(0)" rx="3" ry="3" /><text class="key-text" transform="translate(10.0, 785.0) rotate(0)">F1</text><rect class="key-base" width="50" height="50" transform="translate(50, 748.75) rotate(0)" rx="8" ry="8" /><rect class="key-cap" width="40.0" height="40.0" transform="translate(55.0, 753.75) rotate(0)" rx="3" ry="3" /><text class="key-text" transform="translate(60.0, 778.75) rotate(0)">F2</text><rect class="key-base" width="50" height="50" transform="translate(100, 736.25) rotate(0)" rx="8" ry="8" /><rect class="key-cap" width="40.0" height="40.0" transform="translate(105.0, 741.25) rotate(0)" rx="3" ry="3" /><text class="key-text" transform="translate(110.0, 766.25) rotate(0)">F3</text><rect class="key-base" width="50" height="50" transform="translate(150, 730) rotate(0)" rx="8" ry="8" /><rect class="key-cap" width="40.0" height="40.0" transform="translate(155.0, 735.0) rotate(0)" rx="3" ry="3" /><text class="key-text" transform="translate(160.0, 760.0) rotate(0)">F4</text><rect class="key-base" width="50" height="50" transform="translate(200, 736.25) rotate(0)" rx="8" ry="8" /><rect class="key-cap" width="40.0" height="40.0" transform="translate(205.0, 741.25) rotate(0)" rx="3" ry="3" /><text class="key-text" transform="translate(210.0, 766.25) rotate(0)">F5</text><rect class="key-base" width="50" height="50" transform="translate(250, 742.5) rotate(0)" rx="8" ry="8" /><rect class="key-cap" width="40.0" height="40.0" transform="translate(255.0, 747.5) rotate(0)" rx="3" ry="3" /><text class="key-text" transform="translate(260.0, 772.5) rotate(0)">F6</text><rect class="key-base" width="50" height="50" transform="translate(525.0, 742.5) rotate(0)" rx="8" ry="8" /><rect class="key-cap" width="40.0" height="40.0" transform="translate(530.0, 747.5) rotate(0)" rx="3" ry="3" /><text class="key-text" transform="translate(535.0, 772.5) rotate(0)">=</text><rect class="key-base" width="50" height="50" transform="translate(575.0, 736.25) rotate(0)" rx="8" ry="8" /><rect class="key-cap" width="40.0" height="40.0" transform="translate(580.0, 741.25) rotate(0)" rx="3" ry="3" /><text class="key-text" transform="translate(585.0, 766.25) rotate(0)">&#8593;</text><rect class="key-base" width="50" height="50" transform="translate(625.0, 730) rotate(0)" rx="8" ry="8" /><rect class="key-cap" width="40.0" height="40.0" transform="translate(630.0, 735.0) rotate(0)" rx="3" ry="3" /><text class="key-text" transform="translate(635.0, 760.0) rotate(0)"></text><rect class="key-base" width="50" height="50" transform="translate(675.0, 736.25) rotate(0)" rx="8" ry="8" /><rect class="key-cap" width="40.0" height="40.0" transform="translate(680.0, 741.25) rotate(0)" rx="3" ry="3" /><text class="key-text" transform="translate(685.0, 766.25) rotate(0)"></text><rect class="key-base" width="50" height="50" transform="translate(725.0, 748.75) rotate(0)" rx="8" ry="8" /><rect class="key-cap" width="40.0" height="40.0" transform="translate(730.0, 753.75) rotate(0)" rx="3" ry="3" /><text class="key-text" transform="translate(735.0, 778.75) rotate(0)"></text><rect class="key-base" width="50" height="50" transform="translate(775.0, 755.0) rotate(0)" rx="8" ry="8" /><rect class="key-cap" width="40.0" height="40.0" transform="translate(780.0, 760.0) rotate(0)" rx="3" ry="3" /><text class="key-text" transform="translate(785.0, 785.0) rotate(0)"></text><rect class="key-base" width="50" height="50" transform="translate(0, 805.0) rotate(0)" rx="8" ry="8" /><rect class="key-cap" width="40.0" height="40.0" transform="translate(5.0, 810.0) rotate(0)" rx="3" ry="3" /><text class="key-text" transform="translate(10.0, 835.0) rotate(0)">F7</text><rect class="key-base" width="50" height="50" transform="translate(50, 798.75) rotate(0)" rx="8" ry="8" /><rect class="key-cap" width="40.0" height="40.0" transform="translate(55.0, 803.75) rotate(0)" rx="3" ry="3" /><text class="key-text" transform="translate(60.0, 828.75) rotate(0)">F8</text><rect class="key-base" width="50" height="50" transform="translate(100, 786.25) rotate(0)" rx="8" ry="8" /><rect class="key-cap" width="40.0" height="40.0" transform="translate(105.0, 791.25) rotate(0)" rx="3" ry="3" /><text class="key-text" transform="translate(110.0, 816.25) rotate(0)">F9</text><rect class="key-base" width="50" height="50" transform="translate(150, 780) rotate(0)" rx="8" ry="8" /><rect class="key-cap" width="40.0" height="40.0" transform="translate(155.0, 785.0) rotate(0)" rx="3" ry="3" /><text class="key-text" transform="translate(160.0, 810.0) rotate(0)">F10</text><rect class="key-base" width="50" height="50" transform="translate(200, 786.25) rotate(0)" rx="8" ry="8" /><rect class="key-cap" width="40.0" height="40.0" transform="translate(205.0, 791.25) rotate(0)" rx="3" ry="3" /><text class="key-text" transform="translate(210.0, 816.25) rotate(0)">F11</text><rect class="key-base" width="50" height="50" transform="translate(250, 792.5) rotate(0)" rx="8" ry="8" /><rect class="key-cap" width="40.0" height="40.0" transform="translate(255.0, 797.5) rotate(0)" rx="3" ry="3" /><text class="key-text" transform="translate(260.0, 822.5) rotate(0)">F12</text><rect class="key-base" width="50" height="50" transform="translate(300, 767.5) rotate(0)" rx="8" ry="8" /><rect class="key-cap" width="40.0" height="40.0" transform="translate(305.0, 772.5) rotate(0)" rx="3" ry="3" /><text class="key-text" transform="translate(310.0, 797.5) rotate(0)"></text><rect class="key-base" width="50" height="50" transform="translate(475.0, 767.5) rotate(0)" rx="8" ry="8" /><rect class="key-cap" width="40.0" height="40.0" transform="translate(480.0, 772.5) rotate(0)" rx="3" ry="3" /><text class="key-text" transform="translate(485.0, 797.5) rotate(0)"></text><rect class="key-base" width="50" height="50" transform="translate(525.0, 792.5) rotate(0)" rx="8" ry="8" /><rect class="key-cap" width="40.0" height="40.0" transform="translate(530.0, 797.5) rotate(0)" rx="3" ry="3" /><text class="key-text" transform="translate(535.0, 822.5) rotate(0)">&#8592;</text><rect class="key-base" width="50" height="50" transform="translate(575.0, 786.25) rotate(0)" rx="8" ry="8" /><rect class="key-cap" width="40.0" height="40.0" transform="translate(580.0, 791.25) rotate(0)" rx="3" ry="3" /><text class="key-text" transform="translate(585.0, 816.25) rotate(0)">&#8595;</text><rect class="key-base" width="50" height="50" transform="translate(625.0, 780) rotate(0)" rx="8" ry="8" /><rect class="key-cap" width="40.0" height="40.0" transform="translate(630.0, 785.0) rotate(0)" rx="3" ry="3" /><text class="key-text" transform="translate(635.0, 810.0) rotate(0)">&#8594;</text><rect class="key-base" width="50" height="50" transform="translate(675.0, 786.25) rotate(0)" rx="8" ry="8" /><rect class="key-cap" width="40.0" height="40.0" transform="translate(680.0, 791.25) rotate(0)" rx="3" ry="3" /><text class="key-text" transform="translate(685.0, 816.25) rotate(0)"></text><rect class="key-base" width="50" height="50" transform="translate(725.0, 798.75) rotate(0)" rx="8" ry="8" /><rect class="key-cap" width="40.0" height="40.0" transform="translate(730.0, 803.75) rotate(0)" rx="3" ry="3" /><text class="key-text" transform="translate(735.0, 828.75) rotate(0)"></text><rect class="key-base" width="50" height="50" transform="translate(775.0, 805.0) rotate(0)" rx="8" ry="8" /><rect class="key-cap" width="40.0" height="40.0" transform="translate(780.0, 810.0) rotate(0)" rx="3" ry="3" /><text class="key-text" transform="translate(785.0, 835.0) rotate(0)">CALC</text><rect class="key-base" width="50" height="50" transform="translate(125.0, 836.25) rotate(0)" rx="8" ry="8" /><rect class="key-cap" width="40.0" height="40.0" transform="translate(130.0, 841.25) rotate(0)" rx="3" ry="3" /><text class="key-text" transform="translate(135.0, 866.25) rotate(0)"></text><rect class="key-base" width="50" height="50" transform="translate(175.0, 837.5) rotate(0)" rx="8" ry="8" /><rect class="key-cap" width="40.0" height="40.0" transform="translate(180.0, 842.5) rotate(0)" rx="3" ry="3" /><text class="key-text" transform="translate(185.0, 867.5) rotate(0)"></text><rect class="key-base" width="50" height="50" transform="translate(225.0, 842.5) rotate(0)" rx="8" ry="8" /><rect class="key-cap" width="40.0" height="40.0" transform="translate(230.0, 847.5) rotate(0)" rx="3" ry="3" /><text class="key-text" transform="translate(235.0, 872.5) rotate(0)"></text><rect class="key-base" width="50" height="75.0" transform="translate(290.0, 835.0) rotate(30)" rx="8" ry="8" /><rect class="key-cap" width="40.0" height="60.0" transform="translate(295.0, 842.5) rotate(30)" rx="3" ry="3" /><text class="key-text" transform="translate(305.0, 892.5) rotate(-60)"></text><rect class="key-base" width="50" height="75.0" transform="translate(484.99999999999994, 835.0) rotate(-30)" rx="8" ry="8" /><rect class="key-cap" width="40.0" height="60.0" transform="translate(489.99999999999994, 842.5) rotate(-30)" rx="3" ry="3" /><text class="key-text" transform="translate(496.24999999999994, 857.5) rotate(60)"></text><rect class="key-base" width="50" height="50" transform="translate(550, 842.5) rotate(0)" rx="8" ry="8" /><rect class="key-cap" width="40.0" height="40.0" transform="translate(555.0, 847.5) rotate(0)" rx="3" ry="3" /><text class="key-text" transform="translate(560.0, 872.5) rotate(0)">RAISE</text><rect class="key-base" width="50" height="50" transform="translate(600, 837.5) rotate(0)" rx="8" ry="8" /><rect class="key-cap" width="40.0" height="40.0" transform="translate(605.0, 842.5) rotate(0)" rx="3" ry="3" /><text class="key-text" transform="translate(610.0, 867.5) rotate(0)"></text><rect class="key-base" width="50" height="50" transform="translate(650, 837.5) rotate(0)" rx="8" ry="8" /><rect class="key-cap" width="40.0" height="40.0" transform="translate(655.0, 842.5) rotate(0)" rx="3" ry="3" /><text class="key-text" transform="translate(660.0, 867.5) rotate(0)"></text></svg>