<svg version="1.1" xmlns="http://www.w3.org/2000/svg"><style>svg {width:990.0px; height:1125.0px;}
                    rect {transform-origin: center; transform-box: fill-box;}'
                    text {transform-origin: center; transform-box: fill-box;}
                    .key-base {stroke: black; fill: #C3C3C3; stroke-width=1;}
                    .key-cap {stroke: #BFBBBB; fill: white; stroke-width=1;}
                    .key-text {fill=black; pointer-events: none;}
                </style><rect fill="transparent" /><rect class="key-base" width="60" height="60" transform="translate(0, 40.0) rotate(0)" rx="8" ry="8" /><rect class="key-cap" width="45.0" height="45.0" transform="translate(7.5, 43.333333333333336) rotate(0)" rx="3" ry="3" /><text class="key-text" dominant-baseline="middle" text-anchor="middle" transform="translate(30.0, 65.83333333333334) rotate(0)">ESC</text><rect class="key-base" width="60" height="60" transform="translate(60, 32.5) rotate(0)" rx="8" ry="8" /><rect class="key-cap" width="45.0" height="45.0" transform="translate(67.5, 35.833333333333336) rotate(0)" rx="3" ry="3" /><text class="key-text" dominant-baseline="middle" text-anchor="middle" transform="translate(90.0, 58.333333333333336) rotate(0)">1</text><rect class="key-base" width="60" height="60" transform="translate(120, 17.5) rotate(0)" rx="8" ry="8" /><rect class="key-cap" width="45.0" height="45.0" transform="translate(127.5, 20.833333333333332) rotate(0)" rx="3" ry="3" /><text class="key-text" dominant-baseline="middle" text-anchor="middle" transform="translate(150.0, 43.33333333333333) rotate(0)">2</text><rect class="key-base" width="60" height="60" transform="translate(180, 10) rotate(0)" rx="8" ry="8" /><rect class="key-cap" width="45.0" height="45.0" transform="translate(187.5, 13.333333333333334) rotate(0)" rx="3" ry="3" /><text class="key-text" dominant-baseline="middle" text-anchor="middle" transform="translate(210.0, 35.833333333333336) rotate(0)">3</text><rect class="key-base" width="60" height="60" transform="translate(240, 17.5) rotate(0)" rx="8" ry="8" /><rect class="key-cap" width="45.0" height="45.0" transform="translate(247.5, 20.833333333333332) rotate(0)" rx="3" ry="3" /><text class="key-text" dominant-baseline="middle" text-anchor="middle" transform="translate(270.0, 43.33333333333333) rotate(0)">4</text><rect class="key-base" width="60" height="60" transform="translate(300, 25.0) rotate(0)" rx="8" ry="8" /><rect class="key-cap" width="45.0" height="45.0" transform="translate(307.5, 28.333333333333332) rotate(0)" rx="3" ry="3" /><text class="key-text" dominant-baseline="middle" text-anchor="middle" transform="translate(330.0, 50.83333333333333) rotate(0)">5</text><rect class="key-base" width="60" height="60" transform="translate(630.0, 25.0) rotate(0)" rx="8" ry="8" /><rect class="key-cap" width="45.0" height="45.0" transform="translate(637.5, 28.333333333333332) rotate(0)" rx="3" ry="3" /><text class="key-text" dominant-baseline="middle" text-anchor="middle" transform="translate(660.0, 50.83333333333333) rotate(0)">6</text><rect class="key-base" width="60" height="60" transform="translate(690.0, 17.5) rotate(0)" rx="8" ry="8" /><rect class="key-cap" width="45.0" height="45.0" transform="translate(697.5, 20.833333333333332) rotate(0)" rx="3" ry="3" /><text class="key-text" dominant-baseline="middle" text-anchor="middle" transform="translate(720.0, 43.33333333333333) rotate(0)">7</text><rect class="key-base" width="60" height="60" transform="translate(750.0, 10) rotate(0)" rx="8" ry="8" /><rect class="key-cap" width="45.0" height="45.0" transform="translate(757.5, 13.333333333333334) rotate(0)" rx="3" ry="3" /><text class="key-text" dominant-baseline="middle" text-anchor="middle" transform="translate(780.0, 35.833333333333336) rotate(0)">8</text><rect class="key-base" width="60" height="60" transform="translate(810.0, 17.5) rotate(0)" rx="8" ry="8" /><rect class="key-cap" width="45.0" height="45.0" transform="translate(817.5, 20.833333333333332) rotate(0)" rx="3" ry="3" /><text class="key-text" dominant-baseline="middle" text-anchor="middle" transform="translate(840.0, 43.33333333333333) rotate(0)">9</text><rect class="key-base" width="60" height="60" transform="translate(870.0, 32.5) rotate(0)" rx="8" ry="8" /><rect class="key-cap" width="45.0" height="45.0" transform="translate(877.5, 35.833333333333336) rotate(0)" rx="3" ry="3" /><text class="key-text" dominant-baseline="middle" text-anchor="middle" transform="translate(900.0, 58.333333333333336) rotate(0)">0</text><rect class="key-base" width="60" height="60" transform="translate(930.0, 40.0) rotate(0)" rx="8" ry="8" /><rect class="key-cap" width="45.0" height="45.0" transform="translate(937.5, 43.333333333333336) rotate(0)" rx="3" ry="3" /><text class="key-text" dominant-baseline="middle" text-anchor="middle" transform="translate(960.0, 65.83333333333334) rotate(0)">&#9003;</text><rect class="key-base" width="60" height="60" transform="translate(0, 100.0) rotate(0)" rx="8" ry="8" /><rect class="key-cap" width="45.0" height="45.0" transform="translate(7.5, 103.33333333333333) rotate(0)" rx="3" ry="3" /><text class="key-text" dominant-baseline="middle" text-anchor="middle" transform="translate(30.0, 125.83333333333333) rotate(0)">TAB</text><rect class="key-base" width="60" height="60" transform="translate(60, 92.5) rotate(0)" rx="8" ry="8" /><rect class="key-cap" width="45.0" height="45.0" transform="translate(67.5, 95.83333333333333) rotate(0)" rx="3" ry="3" /><text class="key-text" dominant-baseline="middle" text-anchor="middle" transform="translate(90.0, 118.33333333333333) rotate(0)">Q</text><rect class="key-base" width="60" height="60" transform="translate(120, 77.5) rotate(0)" rx="8" ry="8" /><rect class="key-cap" width="45.0" height="45.0" transform="translate(127.5, 80.83333333333333) rotate(0)" rx="3" ry="3" /><text class="key-text" dominant-baseline="middle" text-anchor="middle" transform="translate(150.0, 103.33333333333333) rotate(0)">W</text><rect class="key-base" width="60" height="60" transform="translate(180, 70) rotate(0)" rx="8" ry="8" /><rect class="key-cap" width="45.0" height="45.0" transform="translate(187.5, 73.33333333333333) rotate(0)" rx="3" ry="3" /><text class="key-text" dominant-baseline="middle" text-anchor="middle" transform="translate(210.0, 95.83333333333333) rotate(0)">E</text><rect class="key-base" width="60" height="60" transform="translate(240, 77.5) rotate(0)" rx="8" ry="8" /><rect class="key-cap" width="45.0" height="45.0" transform="translate(247.5, 80.83333333333333) rotate(0)" rx="3" ry="3" /><text class="key-text" dominant-baseline="middle" text-anchor="middle" transform="translate(270.0, 103.33333333333333) rotate(0)">R</text><rect class="key-base" width="60" height="60" transform="translate(300, 85.0) rotate(0)" rx="8" ry="8" /><rect class="key-cap" width="45.0" height="45.0" transform="translate(307.5, 88.33333333333333) rotate(0)" rx="3" ry="3" /><text class="key-text" dominant-baseline="middle" text-anchor="middle" transform="translate(330.0, 110.83333333333333) rotate(0)">T</text><rect class="key-base" width="60" height="60" transform="translate(630.0, 85.0) rotate(0)" rx="8" ry="8" /><rect class="key-cap" width="45.0" height="45.0" transform="translate(637.5, 88.33333333333333) rotate(0)" rx="3" ry="3" /><text class="key-text" dominant-baseline="middle" text-anchor="middle" transform="translate(660.0, 110.83333333333333) rotate(0)">Y</text><rect class="key-base" width="60" height="60" transform="translate(690.0, 77.5) rotate(0)" rx="8" ry="8" /><rect class="key-cap" width="45.0" height="45.0" transform="translate(697.5, 80.83333333333333) rotate(0)" rx="3" ry="3" /><text class="key-text" dominant-baseline="middle" text-anchor="middle" transform="translate(720.0, 103.33333333333333) rotate(0)">U</text><rect class="key-base" width="60" height="60" transform="translate(750.0, 70) rotate(0)" rx="8" ry="8" /><rect class="key-cap" width="45.0" height="45.0" transform="translate(757.5, 73.33333333333333) rotate(0)" rx="3" ry="3" /><text class="key-text" dominant-baseline="middle" text-anchor="middle" transform="translate(780.0, 95.83333333333333) rotate(0)">I</text><rect class="key-base" width="60" height="60" transform="translate(810.0, 77.5) rotate(0)" rx="8" ry="8" /><rect class="key-cap" width="45.0" height="45.0" transform="translate(817.5, 80.83333333333333) rotate(0)" rx="3" ry="3" /><text class="key-text" dominant-baseline="middle" text-anchor="middle" transform="translate(840.0, 103.33333333333333) rotate(0)">O</text><rect class="key-base" width="60" height="60" transform="translate(870.0, 92.5) rotate(0)" rx="8" ry="8" /><rect class="key-cap" width="45.0" height="45.0" transform="translate(877.5, 95.83333333333333) rotate(0)" rx="3" ry="3" /><text class="key-text" dominant-baseline="middle" text-anchor="middle" transform="translate(900.0, 118.33333333333333) rotate(0)">P</text><rect class="key-base" width="60" height="60" transform="translate(930.0, 100.0) rotate(0)" rx="8" ry="8" /><rect class="key-cap" width="45.0" height="45.0" transform="translate(937.5, 103.33333333333333) rotate(0)" rx="3" ry="3" /><text class="key-text" dominant-baseline="middle" text-anchor="middle" transform="translate(960.0, 125.83333333333333) rotate(0)">\</text><rect class="key-base" width="60" height="60" transform="translate(0, 160.0) rotate(0)" rx="8" ry="8" /><rect class="key-cap" width="45.0" height="45.0" transform="translate(7.5, 163.33333333333334) rotate(0)" rx="3" ry="3" /><text class="key-text" dominant-baseline="middle" text-anchor="middle" transform="translate(30.0, 185.83333333333334) rotate(0)">SHIFT</text><rect class="key-base" width="60" height="60" transform="translate(60, 152.5) rotate(0)" rx="8" ry="8" /><rect class="key-cap" width="45.0" height="45.0" transform="translate(67.5, 155.83333333333334) rotate(0)" rx="3" ry="3" /><text class="key-text" dominant-baseline="middle" text-anchor="middle" transform="translate(90.0, 178.33333333333334) rotate(0)">A</text><rect class="key-base" width="60" height="60" transform="translate(120, 137.5) rotate(0)" rx="8" ry="8" /><rect class="key-cap" width="45.0" height="45.0" transform="translate(127.5, 140.83333333333334) rotate(0)" rx="3" ry="3" /><text class="key-text" dominant-baseline="middle" text-anchor="middle" transform="translate(150.0, 163.33333333333334) rotate(0)">S</text><rect class="key-base" width="60" height="60" transform="translate(180, 130) rotate(0)" rx="8" ry="8" /><rect class="key-cap" width="45.0" height="45.0" transform="translate(187.5, 133.33333333333334) rotate(0)" rx="3" ry="3" /><text class="key-text" dominant-baseline="middle" text-anchor="middle" transform="translate(210.0, 155.83333333333334) rotate(0)">D</text><rect class="key-base" width="60" height="60" transform="translate(240, 137.5) rotate(0)" rx="8" ry="8" /><rect class="key-cap" width="45.0" height="45.0" transform="translate(247.5, 140.83333333333334) rotate(0)" rx="3" ry="3" /><text class="key-text" dominant-baseline="middle" text-anchor="middle" transform="translate(270.0, 163.33333333333334) rotate(0)">F</text><rect class="key-base" width="60" height="60" transform="translate(300, 145.0) rotate(0)" rx="8" ry="8" /><rect class="key-cap" width="45.0" height="45.0" transform="translate(307.5, 148.33333333333334) rotate(0)" rx="3" ry="3" /><text class="key-text" dominant-baseline="middle" text-anchor="middle" transform="translate(330.0, 170.83333333333334) rotate(0)">G</text><rect class="key-base" width="60" height="60" transform="translate(630.0, 145.0) rotate(0)" rx="8" ry="8" /><rect class="key-cap" width="45.0" height="45.0" transform="translate(637.5, 148.33333333333334) rotate(0)" rx="3" ry="3" /><text class="key-text" dominant-baseline="middle" text-anchor="middle" transform="translate(660.0, 170.83333333333334) rotate(0)">H</text><rect class="key-base" width="60" height="60" transform="translate(690.0, 137.5) rotate(0)" rx="8" ry="8" /><rect class="key-cap" width="45.0" height="45.0" transform="translate(697.5, 140.83333333333334) rotate(0)" rx="3" ry="3" /><text class="key-text" dominant-baseline="middle" text-anchor="middle" transform="translate(720.0, 163.33333333333334) rotate(0)">J</text><rect class="key-base" width="60" height="60" transform="translate(750.0, 130) rotate(0)" rx="8" ry="8" /><rect class="key-cap" width="45.0" height="45.0" transform="translate(757.5, 133.33333333333334) rotate(0)" rx="3" ry="3" /><text class="key-text" dominant-baseline="middle" text-anchor="middle" transform="translate(780.0, 155.83333333333334) rotate(0)">K</text><rect class="key-base" width="60" height="60" transform="translate(810.0, 137.5) rotate(0)" rx="8" ry="8" /><rect class="key-cap" width="45.0" height="45.0" transform="translate(817.5, 140.83333333333334) rotate(0)" rx="3" ry="3" /><text class="key-text" dominant-baseline="middle" text-anchor="middle" transform="translate(840.0, 163.33333333333334) rotate(0)">L</text><rect class="key-base" width="60" height="60" transform="translate(870.0, 152.5) rotate(0)" rx="8" ry="8" /><rect class="key-cap" width="45.0" height="45.0" transform="translate(877.5, 155.83333333333334) rotate(0)" rx="3" ry="3" /><text class="key-text" dominant-baseline="middle" text-anchor="middle" transform="translate(900.0, 178.33333333333334) rotate(0)">;</text><rect class="key-base" width="60" height="60" transform="translate(930.0, 160.0) rotate(0)" rx="8" ry="8" /><rect class="key-cap" width="45.0" height="45.0" transform="translate(937.5, 163.33333333333334) rotate(0)" rx="3" ry="3" /><text class="key-text" dominant-baseline="middle" text-anchor="middle" transform="translate(960.0, 185.83333333333334) rotate(0)">'</text><rect class="key-base" width="60" height="60" transform="translate(0, 220.0) rotate(0)" rx="8" ry="8" /><rect class="key-cap" width="45.0" height="45.0" transform="translate(7.5, 223.33333333333334) rotate(0)" rx="3" ry="3" /><text class="key-text" dominant-baseline="middle" text-anchor="middle" transform="translate(30.0, 245.83333333333334) rotate(0)">CTRL</text><rect class="key-base" width="60" height="60" transform="translate(60, 212.5) rotate(0)" rx="8" ry="8" /><rect class="key-cap" width="45.0" height="45.0" transform="translate(67.5, 215.83333333333334) rotate(0)" rx="3" ry="3" /><text class="key-text" dominant-baseline="middle" text-anchor="middle" transform="translate(90.0, 238.33333333333334) rotate(0)">Z</text><rect class="key-base" width="60" height="60" transform="translate(120, 197.5) rotate(0)" rx="8" ry="8" /><rect class="key-cap" width="45.0" height="45.0" transform="translate(127.5, 200.83333333333334) rotate(0)" rx="3" ry="3" /><text class="key-text" dominant-baseline="middle" text-anchor="middle" transform="translate(150.0, 223.33333333333334) rotate(0)">X</text><rect class="key-base" width="60" height="60" transform="translate(180, 190) rotate(0)" rx="8" ry="8" /><rect class="key-cap" width="45.0" height="45.0" transform="translate(187.5, 193.33333333333334) rotate(0)" rx="3" ry="3" /><text class="key-text" dominant-baseline="middle" text-anchor="middle" transform="translate(210.0, 215.83333333333334) rotate(0)">C</text><rect class="key-base" width="60" height="60" transform="translate(240, 197.5) rotate(0)" rx="8" ry="8" /><rect class="key-cap" width="45.0" height="45.0" transform="translate(247.5, 200.83333333333334) rotate(0)" rx="3" ry="3" /><text class="key-text" dominant-baseline="middle" text-anchor="middle" transform="translate(270.0, 223.33333333333334) rotate(0)">V</text><rect class="key-base" width="60" height="60" transform="translate(300, 205.0) rotate(0)" rx="8" ry="8" /><rect class="key-cap" width="45.0" height="45.0" transform="translate(307.5, 208.33333333333334) rotate(0)" rx="3" ry="3" /><text class="key-text" dominant-baseline="middle" text-anchor="middle" transform="translate(330.0, 230.83333333333334) rotate(0)">B</text><rect class="key-base" width="60" height="60" transform="translate(360, 175.0) rotate(0)" rx="8" ry="8" /><rect class="key-cap" width="45.0" height="45.0" transform="translate(367.5, 178.33333333333334) rotate(0)" rx="3" ry="3" /><text class="key-text" dominant-baseline="middle" text-anchor="middle" transform="translate(390.0, 200.83333333333334) rotate(0)">_______</text><rect class="key-base" width="60" height="60" transform="translate(570.0, 175.0) rotate(0)" rx="8" ry="8" /><rect class="key-cap" width="45.0" height="45.0" transform="translate(577.5, 178.33333333333334) rotate(0)" rx="3" ry="3" /><text class="key-text" dominant-baseline="middle" text-anchor="middle" transform="translate(600.0, 200.83333333333334) rotate(0)">`</text><rect class="key-base" width="60" height="60" transform="translate(630.0, 205.0) rotate(0)" rx="8" ry="8" /><rect class="key-cap" width="45.0" height="45.0" transform="translate(637.5, 208.33333333333334) rotate(0)" rx="3" ry="3" /><text class="key-text" dominant-baseline="middle" text-anchor="middle" transform="translate(660.0, 230.83333333333334) rotate(0)">N</text><rect class="key-base" width="60" height="60" transform="translate(690.0, 197.5) rotate(0)" rx="8" ry="8" /><rect class="key-cap" width="45.0" height="45.0" transform="translate(697.5, 200.83333333333334) rotate(0)" rx="3" ry="3" /><text class="key-text" dominant-baseline="middle" text-anchor="middle" transform="translate(720.0, 223.33333333333334) rotate(0)">M</text><rect class="key-base" width="60" height="60" transform="translate(750.0, 190) rotate(0)" rx="8" ry="8" /><rect class="key-cap" width="45.0" height="45.0" transform="translate(757.5, 193.33333333333334) rotate(0)" rx="3" ry="3" /><text class="key-text" dominant-baseline="middle" text-anchor="middle" transform="translate(780.0, 215.83333333333334) rotate(0)">,</text><rect class="key-base" width="60" height="60" transform="translate(810.0, 197.5) rotate(0)" rx="8" ry="8" /><rect class="key-cap" width="45.0" height="45.0" transform="translate(817.5, 200.83333333333334) rotate(0)" rx="3" ry="3" /><text class="key-text" dominant-baseline="middle" text-anchor="middle" transform="translate(840.0, 223.33333333333334) rotate(0)">.</text><rect class="key-base" width="60" height="60" transform="translate(870.0, 212.5) rotate(0)" rx="8" ry="8" /><rect class="key-cap" width="45.0" height="45.0" transform="translate(877.5, 215.83333333333334) rotate(0)" rx="3" ry="3" /><text class="key-text" dominant-baseline="middle" text-anchor="middle" transform="translate(900.0, 238.33333333333334) rotate(0)">/</text><rect class="key-base" width="60" height="60" transform="translate(930.0, 220.0) rotate(0)" rx="8" ry="8" /><rect class="key-cap" width="45.0" height="45.0" transform="translate(937.5, 223.33333333333334) rotate(0)" rx="3" ry="3" /><text class="key-text" dominant-baseline="middle" text-anchor="middle" transform="translate(960.0, 245.83333333333334) rotate(0)">&#8629;</text><rect class="key-base" width="60" height="60" transform="translate(150.0, 257.5) rotate(0)" rx="8" ry="8" /><rect class="key-cap" width="45.0" height="45.0" transform="translate(157.5, 260.8333333333333) rotate(0)" rx="3" ry="3" /><text class="key-text" dominant-baseline="middle" text-anchor="middle" transform="translate(180.0, 283.3333333333333) rotate(0)">ALT</text><rect class="key-base" width="60" height="60" transform="translate(210.0, 259.0) rotate(0)" rx="8" ry="8" /><rect class="key-cap" width="45.0" height="45.0" transform="translate(217.5, 262.3333333333333) rotate(0)" rx="3" ry="3" /><text class="key-text" dominant-baseline="middle" text-anchor="middle" transform="translate(240.0, 284.8333333333333) rotate(0)">GUI</text><rect class="key-base" width="60" height="60" transform="translate(270.0, 265.0) rotate(0)" rx="8" ry="8" /><rect class="key-cap" width="45.0" height="45.0" transform="translate(277.5, 268.3333333333333) rotate(0)" rx="3" ry="3" /><text class="key-text" dominant-baseline="middle" text-anchor="middle" transform="translate(300.0, 290.8333333333333) rotate(0)">LOWER</text><rect class="key-base" width="60" height="90.0" transform="translate(348.0, 255.99999999999997) rotate(30)" rx="8" ry="8" /><rect class="key-cap" width="45.0" height="67.5" transform="translate(354.0, 265.0) rotate(30)" rx="3" ry="3" /><text class="key-text"  transform="translate(366.0, 325.0) rotate(-60)">SPACE</text><rect class="key-base" width="60" height="90.0" transform="translate(582.0, 255.99999999999997) rotate(-30)" rx="8" ry="8" /><rect class="key-cap" width="45.0" height="67.5" transform="translate(588.0, 265.0) rotate(-30)" rx="3" ry="3" /><text class="key-text"  transform="translate(595.5, 283.0) rotate(60)">SPACE</text><rect class="key-base" width="60" height="60" transform="translate(660, 265.0) rotate(0)" rx="8" ry="8" /><rect class="key-cap" width="45.0" height="45.0" transform="translate(667.5, 268.3333333333333) rotate(0)" rx="3" ry="3" /><text class="key-text" dominant-baseline="middle" text-anchor="middle" transform="translate(690.0, 290.8333333333333) rotate(0)">RAISE</text><rect class="key-base" width="60" height="60" transform="translate(720, 259.0) rotate(0)" rx="8" ry="8" /><rect class="key-cap" width="45.0" height="45.0" transform="translate(727.5, 262.3333333333333) rotate(0)" rx="3" ry="3" /><text class="key-text" dominant-baseline="middle" text-anchor="middle" transform="translate(750.0, 284.8333333333333) rotate(0)">HOME</text><rect class="key-base" width="60" height="60" transform="translate(780, 259.0) rotate(0)" rx="8" ry="8" /><rect class="key-cap" width="45.0" height="45.0" transform="translate(787.5, 262.3333333333333) rotate(0)" rx="3" ry="3" /><text class="key-text" dominant-baseline="middle" text-anchor="middle" transform="translate(810.0, 284.8333333333333) rotate(0)">END</text><rect class="key-base" width="60" height="60" transform="translate(0, 389.0) rotate(0)" rx="8" ry="8" /><rect class="key-cap" width="45.0" height="45.0" transform="translate(7.5, 392.3333333333333) rotate(0)" rx="3" ry="3" /><text class="key-text" dominant-baseline="middle" text-anchor="middle" transform="translate(30.0, 414.8333333333333) rotate(0)">`</text><rect class="key-base" width="60" height="60" transform="translate(60, 381.5) rotate(0)" rx="8" ry="8" /><rect class="key-cap" width="45.0" height="45.0" transform="translate(67.5, 384.8333333333333) rotate(0)" rx="3" ry="3" /><text class="key-text" dominant-baseline="middle" text-anchor="middle" transform="translate(90.0, 407.3333333333333) rotate(0)">F1</text><rect class="key-base" width="60" height="60" transform="translate(120, 366.5) rotate(0)" rx="8" ry="8" /><rect class="key-cap" width="45.0" height="45.0" transform="translate(127.5, 369.8333333333333) rotate(0)" rx="3" ry="3" /><text class="key-text" dominant-baseline="middle" text-anchor="middle" transform="translate(150.0, 392.3333333333333) rotate(0)">F2</text><rect class="key-base" width="60" height="60" transform="translate(180, 359.0) rotate(0)" rx="8" ry="8" /><rect class="key-cap" width="45.0" height="45.0" transform="translate(187.5, 362.3333333333333) rotate(0)" rx="3" ry="3" /><text class="key-text" dominant-baseline="middle" text-anchor="middle" transform="translate(210.0, 384.8333333333333) rotate(0)">F3</text><rect class="key-base" width="60" height="60" transform="translate(240, 366.5) rotate(0)" rx="8" ry="8" /><rect class="key-cap" width="45.0" height="45.0" transform="translate(247.5, 369.8333333333333) rotate(0)" rx="3" ry="3" /><text class="key-text" dominant-baseline="middle" text-anchor="middle" transform="translate(270.0, 392.3333333333333) rotate(0)">F4</text><rect class="key-base" width="60" height="60" transform="translate(300, 374.0) rotate(0)" rx="8" ry="8" /><rect class="key-cap" width="45.0" height="45.0" transform="translate(307.5, 377.3333333333333) rotate(0)" rx="3" ry="3" /><text class="key-text" dominant-baseline="middle" text-anchor="middle" transform="translate(330.0, 399.8333333333333) rotate(0)">F5</text><rect class="key-base" width="60" height="60" transform="translate(630.0, 374.0) rotate(0)" rx="8" ry="8" /><rect class="key-cap" width="45.0" height="45.0" transform="translate(637.5, 377.3333333333333) rotate(0)" rx="3" ry="3" /><text class="key-text" dominant-baseline="middle" text-anchor="middle" transform="translate(660.0, 399.8333333333333) rotate(0)">F6</text><rect class="key-base" width="60" height="60" transform="translate(690.0, 366.5) rotate(0)" rx="8" ry="8" /><rect class="key-cap" width="45.0" height="45.0" transform="translate(697.5, 369.8333333333333) rotate(0)" rx="3" ry="3" /><text class="key-text" dominant-baseline="middle" text-anchor="middle" transform="translate(720.0, 392.3333333333333) rotate(0)">F7</text><rect class="key-base" width="60" height="60" transform="translate(750.0, 359.0) rotate(0)" rx="8" ry="8" /><rect class="key-cap" width="45.0" height="45.0" transform="translate(757.5, 362.3333333333333) rotate(0)" rx="3" ry="3" /><text class="key-text" dominant-baseline="middle" text-anchor="middle" transform="translate(780.0, 384.8333333333333) rotate(0)">F8</text><rect class="key-base" width="60" height="60" transform="translate(810.0, 366.5) rotate(0)" rx="8" ry="8" /><rect class="key-cap" width="45.0" height="45.0" transform="translate(817.5, 369.8333333333333) rotate(0)" rx="3" ry="3" /><text class="key-text" dominant-baseline="middle" text-anchor="middle" transform="translate(840.0, 392.3333333333333) rotate(0)">F9</text><rect class="key-base" width="60" height="60" transform="translate(870.0, 381.5) rotate(0)" rx="8" ry="8" /><rect class="key-cap" width="45.0" height="45.0" transform="translate(877.5, 384.8333333333333) rotate(0)" rx="3" ry="3" /><text class="key-text" dominant-baseline="middle" text-anchor="middle" transform="translate(900.0, 407.3333333333333) rotate(0)">F10</text><rect class="key-base" width="60" height="60" transform="translate(930.0, 389.0) rotate(0)" rx="8" ry="8" /><rect class="key-cap" width="45.0" height="45.0" transform="translate(937.5, 392.3333333333333) rotate(0)" rx="3" ry="3" /><text class="key-text" dominant-baseline="middle" text-anchor="middle" transform="translate(960.0, 414.8333333333333) rotate(0)">&#8998;</text><rect class="key-base" width="60" height="60" transform="translate(0, 449.0) rotate(0)" rx="8" ry="8" /><rect class="key-cap" width="45.0" height="45.0" transform="translate(7.5, 452.3333333333333) rotate(0)" rx="3" ry="3" /><text class="key-text" dominant-baseline="middle" text-anchor="middle" transform="translate(30.0, 474.8333333333333) rotate(0)">TAB</text><rect class="key-base" width="60" height="60" transform="translate(60, 441.5) rotate(0)" rx="8" ry="8" /><rect class="key-cap" width="45.0" height="45.0" transform="translate(67.5, 444.8333333333333) rotate(0)" rx="3" ry="3" /><text class="key-text" dominant-baseline="middle" text-anchor="middle" transform="translate(90.0, 467.3333333333333) rotate(0)">!</text><rect class="key-base" width="60" height="60" transform="translate(120, 426.5) rotate(0)" rx="8" ry="8" /><rect class="key-cap" width="45.0" height="45.0" transform="translate(127.5, 429.8333333333333) rotate(0)" rx="3" ry="3" /><text class="key-text" dominant-baseline="middle" text-anchor="middle" transform="translate(150.0, 452.3333333333333) rotate(0)">@</text><rect class="key-base" width="60" height="60" transform="translate(180, 419.0) rotate(0)" rx="8" ry="8" /><rect class="key-cap" width="45.0" height="45.0" transform="translate(187.5, 422.3333333333333) rotate(0)" rx="3" ry="3" /><text class="key-text" dominant-baseline="middle" text-anchor="middle" transform="translate(210.0, 444.8333333333333) rotate(0)">{</text><rect class="key-base" width="60" height="60" transform="translate(240, 426.5) rotate(0)" rx="8" ry="8" /><rect class="key-cap" width="45.0" height="45.0" transform="translate(247.5, 429.8333333333333) rotate(0)" rx="3" ry="3" /><text class="key-text" dominant-baseline="middle" text-anchor="middle" transform="translate(270.0, 452.3333333333333) rotate(0)">}</text><rect class="key-base" width="60" height="60" transform="translate(300, 434.0) rotate(0)" rx="8" ry="8" /><rect class="key-cap" width="45.0" height="45.0" transform="translate(307.5, 437.3333333333333) rotate(0)" rx="3" ry="3" /><text class="key-text" dominant-baseline="middle" text-anchor="middle" transform="translate(330.0, 459.8333333333333) rotate(0)">|</text><rect class="key-base" width="60" height="60" transform="translate(630.0, 434.0) rotate(0)" rx="8" ry="8" /><rect class="key-cap" width="45.0" height="45.0" transform="translate(637.5, 437.3333333333333) rotate(0)" rx="3" ry="3" /><text class="key-text" dominant-baseline="middle" text-anchor="middle" transform="translate(660.0, 459.8333333333333) rotate(0)">&amp;</text><rect class="key-base" width="60" height="60" transform="translate(690.0, 426.5) rotate(0)" rx="8" ry="8" /><rect class="key-cap" width="45.0" height="45.0" transform="translate(697.5, 429.8333333333333) rotate(0)" rx="3" ry="3" /><text class="key-text" dominant-baseline="middle" text-anchor="middle" transform="translate(720.0, 452.3333333333333) rotate(0)">+</text><rect class="key-base" width="60" height="60" transform="translate(750.0, 419.0) rotate(0)" rx="8" ry="8" /><rect class="key-cap" width="45.0" height="45.0" transform="translate(757.5, 422.3333333333333) rotate(0)" rx="3" ry="3" /><text class="key-text" dominant-baseline="middle" text-anchor="middle" transform="translate(780.0, 444.8333333333333) rotate(0)">-</text><rect class="key-base" width="60" height="60" transform="translate(810.0, 426.5) rotate(0)" rx="8" ry="8" /><rect class="key-cap" width="45.0" height="45.0" transform="translate(817.5, 429.8333333333333) rotate(0)" rx="3" ry="3" /><text class="key-text" dominant-baseline="middle" text-anchor="middle" transform="translate(840.0, 452.3333333333333) rotate(0)"></text><rect class="key-base" width="60" height="60" transform="translate(870.0, 441.5) rotate(0)" rx="8" ry="8" /><rect class="key-cap" width="45.0" height="45.0" transform="translate(877.5, 444.8333333333333) rotate(0)" rx="3" ry="3" /><text class="key-text" dominant-baseline="middle" text-anchor="middle" transform="translate(900.0, 467.3333333333333) rotate(0)"></text><rect class="key-base" width="60" height="60" transform="translate(930.0, 449.0) rotate(0)" rx="8" ry="8" /><rect class="key-cap" width="45.0" height="45.0" transform="translate(937.5, 452.3333333333333) rotate(0)" rx="3" ry="3" /><text class="key-text" dominant-baseline="middle" text-anchor="middle" transform="translate(960.0, 474.8333333333333) rotate(0)"></text><rect class="key-base" width="60" height="60" transform="translate(0, 509.0) rotate(0)" rx="8" ry="8" /><rect class="key-cap" width="45.0" height="45.0" transform="translate(7.5, 512.3333333333334) rotate(0)" rx="3" ry="3" /><text class="key-text" dominant-baseline="middle" text-anchor="middle" transform="translate(30.0, 534.8333333333334) rotate(0)">SHIFT</text><rect class="key-base" width="60" height="60" transform="translate(60, 501.5) rotate(0)" rx="8" ry="8" /><rect class="key-cap" width="45.0" height="45.0" transform="translate(67.5, 504.8333333333333) rotate(0)" rx="3" ry="3" /><text class="key-text" dominant-baseline="middle" text-anchor="middle" transform="translate(90.0, 527.3333333333333) rotate(0)">#</text><rect class="key-base" width="60" height="60" transform="translate(120, 486.5) rotate(0)" rx="8" ry="8" /><rect class="key-cap" width="45.0" height="45.0" transform="translate(127.5, 489.8333333333333) rotate(0)" rx="3" ry="3" /><text class="key-text" dominant-baseline="middle" text-anchor="middle" transform="translate(150.0, 512.3333333333333) rotate(0)">$</text><rect class="key-base" width="60" height="60" transform="translate(180, 479.0) rotate(0)" rx="8" ry="8" /><rect class="key-cap" width="45.0" height="45.0" transform="translate(187.5, 482.3333333333333) rotate(0)" rx="3" ry="3" /><text class="key-text" dominant-baseline="middle" text-anchor="middle" transform="translate(210.0, 504.8333333333333) rotate(0)">(</text><rect class="key-base" width="60" height="60" transform="translate(240, 486.5) rotate(0)" rx="8" ry="8" /><rect class="key-cap" width="45.0" height="45.0" transform="translate(247.5, 489.8333333333333) rotate(0)" rx="3" ry="3" /><text class="key-text" dominant-baseline="middle" text-anchor="middle" transform="translate(270.0, 512.3333333333333) rotate(0)">)</text><rect class="key-base" width="60" height="60" transform="translate(300, 494.0) rotate(0)" rx="8" ry="8" /><rect class="key-cap" width="45.0" height="45.0" transform="translate(307.5, 497.3333333333333) rotate(0)" rx="3" ry="3" /><text class="key-text" dominant-baseline="middle" text-anchor="middle" transform="translate(330.0, 519.8333333333333) rotate(0)">`</text><rect class="key-base" width="60" height="60" transform="translate(630.0, 494.0) rotate(0)" rx="8" ry="8" /><rect class="key-cap" width="45.0" height="45.0" transform="translate(637.5, 497.3333333333333) rotate(0)" rx="3" ry="3" /><text class="key-text" dominant-baseline="middle" text-anchor="middle" transform="translate(660.0, 519.8333333333333) rotate(0)">=</text><rect class="key-base" width="60" height="60" transform="translate(690.0, 486.5) rotate(0)" rx="8" ry="8" /><rect class="key-cap" width="45.0" height="45.0" transform="translate(697.5, 489.8333333333333) rotate(0)" rx="3" ry="3" /><text class="key-text" dominant-baseline="middle" text-anchor="middle" transform="translate(720.0, 512.3333333333333) rotate(0)">&#8593;</text><rect class="key-base" width="60" height="60" transform="translate(750.0, 479.0) rotate(0)" rx="8" ry="8" /><rect class="key-cap" width="45.0" height="45.0" transform="translate(757.5, 482.3333333333333) rotate(0)" rx="3" ry="3" /><text class="key-text" dominant-baseline="middle" text-anchor="middle" transform="translate(780.0, 504.8333333333333) rotate(0)"></text><rect class="key-base" width="60" height="60" transform="translate(810.0, 486.5) rotate(0)" rx="8" ry="8" /><rect class="key-cap" width="45.0" height="45.0" transform="translate(817.5, 489.8333333333333) rotate(0)" rx="3" ry="3" /><text class="key-text" dominant-baseline="middle" text-anchor="middle" transform="translate(840.0, 512.3333333333333) rotate(0)"></text><rect class="key-base" width="60" height="60" transform="translate(870.0, 501.5) rotate(0)" rx="8" ry="8" /><rect class="key-cap" width="45.0" height="45.0" transform="translate(877.5, 504.8333333333333) rotate(0)" rx="3" ry="3" /><text class="key-text" dominant-baseline="middle" text-anchor="middle" transform="translate(900.0, 527.3333333333333) rotate(0)"></text><rect class="key-base" width="60" height="60" transform="translate(930.0, 509.0) rotate(0)" rx="8" ry="8" /><rect class="key-cap" width="45.0" height="45.0" transform="translate(937.5, 512.3333333333334) rotate(0)" rx="3" ry="3" /><text class="key-text" dominant-baseline="middle" text-anchor="middle" transform="translate(960.0, 534.8333333333334) rotate(0)"></text><rect class="key-base" width="60" height="60" transform="translate(0, 569.0) rotate(0)" rx="8" ry="8" /><rect class="key-cap" width="45.0" height="45.0" transform="translate(7.5, 572.3333333333334) rotate(0)" rx="3" ry="3" /><text class="key-text" dominant-baseline="middle" text-anchor="middle" transform="translate(30.0, 594.8333333333334) rotate(0)">CTRL</text><rect class="key-base" width="60" height="60" transform="translate(60, 561.5) rotate(0)" rx="8" ry="8" /><rect class="key-cap" width="45.0" height="45.0" transform="translate(67.5, 564.8333333333334) rotate(0)" rx="3" ry="3" /><text class="key-text" dominant-baseline="middle" text-anchor="middle" transform="translate(90.0, 587.3333333333334) rotate(0)">%</text><rect class="key-base" width="60" height="60" transform="translate(120, 546.5) rotate(0)" rx="8" ry="8" /><rect class="key-cap" width="45.0" height="45.0" transform="translate(127.5, 549.8333333333334) rotate(0)" rx="3" ry="3" /><text class="key-text" dominant-baseline="middle" text-anchor="middle" transform="translate(150.0, 572.3333333333334) rotate(0)">^</text><rect class="key-base" width="60" height="60" transform="translate(180, 539.0) rotate(0)" rx="8" ry="8" /><rect class="key-cap" width="45.0" height="45.0" transform="translate(187.5, 542.3333333333334) rotate(0)" rx="3" ry="3" /><text class="key-text" dominant-baseline="middle" text-anchor="middle" transform="translate(210.0, 564.8333333333334) rotate(0)">[</text><rect class="key-base" width="60" height="60" transform="translate(240, 546.5) rotate(0)" rx="8" ry="8" /><rect class="key-cap" width="45.0" height="45.0" transform="translate(247.5, 549.8333333333334) rotate(0)" rx="3" ry="3" /><text class="key-text" dominant-baseline="middle" text-anchor="middle" transform="translate(270.0, 572.3333333333334) rotate(0)">]</text><rect class="key-base" width="60" height="60" transform="translate(300, 554.0) rotate(0)" rx="8" ry="8" /><rect class="key-cap" width="45.0" height="45.0" transform="translate(307.5, 557.3333333333334) rotate(0)" rx="3" ry="3" /><text class="key-text" dominant-baseline="middle" text-anchor="middle" transform="translate(330.0, 579.8333333333334) rotate(0)">~</text><rect class="key-base" width="60" height="60" transform="translate(360, 524.0) rotate(0)" rx="8" ry="8" /><rect class="key-cap" width="45.0" height="45.0" transform="translate(367.5, 527.3333333333334) rotate(0)" rx="3" ry="3" /><text class="key-text" dominant-baseline="middle" text-anchor="middle" transform="translate(390.0, 549.8333333333334) rotate(0)">_______</text><rect class="key-base" width="60" height="60" transform="translate(570.0, 524.0) rotate(0)" rx="8" ry="8" /><rect class="key-cap" width="45.0" height="45.0" transform="translate(577.5, 527.3333333333334) rotate(0)" rx="3" ry="3" /><text class="key-text" dominant-baseline="middle" text-anchor="middle" transform="translate(600.0, 549.8333333333334) rotate(0)">`</text><rect class="key-base" width="60" height="60" transform="translate(630.0, 554.0) rotate(0)" rx="8" ry="8" /><rect class="key-cap" width="45.0" height="45.0" transform="translate(637.5, 557.3333333333334) rotate(0)" rx="3" ry="3" /><text class="key-text" dominant-baseline="middle" text-anchor="middle" transform="translate(660.0, 579.8333333333334) rotate(0)">&#8592;</text><rect class="key-base" width="60" height="60" transform="translate(690.0, 546.5) rotate(0)" rx="8" ry="8" /><rect class="key-cap" width="45.0" height="45.0" transform="translate(697.5, 549.8333333333334) rotate(0)" rx="3" ry="3" /><text class="key-text" dominant-baseline="middle" text-anchor="middle" transform="translate(720.0, 572.3333333333334) rotate(0)">&#8595;</text><rect class="key-base" width="60" height="60" transform="translate(750.0, 539.0) rotate(0)" rx="8" ry="8" /><rect class="key-cap" width="45.0" height="45.0" transform="translate(757.5, 542.3333333333334) rotate(0)" rx="3" ry="3" /><text class="key-text" dominant-baseline="middle" text-anchor="middle" transform="translate(780.0, 564.8333333333334) rotate(0)">&#8594;</text><rect class="key-base" width="60" height="60" transform="translate(810.0, 546.5) rotate(0)" rx="8" ry="8" /><rect class="key-cap" width="45.0" height="45.0" transform="translate(817.5, 549.8333333333334) rotate(0)" rx="3" ry="3" /><text class="key-text" dominant-baseline="middle" text-anchor="middle" transform="translate(840.0, 572.3333333333334) rotate(0)"></text><rect class="key-base" width="60" height="60" transform="translate(870.0, 561.5) rotate(0)" rx="8" ry="8" /><rect class="key-cap" width="45.0" height="45.0" transform="translate(877.5, 564.8333333333334) rotate(0)" rx="3" ry="3" /><text class="key-text" dominant-baseline="middle" text-anchor="middle" transform="translate(900.0, 587.3333333333334) rotate(0)"></text><rect class="key-base" width="60" height="60" transform="translate(930.0, 569.0) rotate(0)" rx="8" ry="8" /><rect class="key-cap" width="45.0" height="45.0" transform="translate(937.5, 572.3333333333334) rotate(0)" rx="3" ry="3" /><text class="key-text" dominant-baseline="middle" text-anchor="middle" transform="translate(960.0, 594.8333333333334) rotate(0)">CALC</text><rect class="key-base" width="60" height="60" transform="translate(150.0, 606.5) rotate(0)" rx="8" ry="8" /><rect class="key-cap" width="45.0" height="45.0" transform="translate(157.5, 609.8333333333334) rotate(0)" rx="3" ry="3" /><text class="key-text" dominant-baseline="middle" text-anchor="middle" transform="translate(180.0, 632.3333333333334) rotate(0)">ALT</text><rect class="key-base" width="60" height="60" transform="translate(210.0, 608.0) rotate(0)" rx="8" ry="8" /><rect class="key-cap" width="45.0" height="45.0" transform="translate(217.5, 611.3333333333334) rotate(0)" rx="3" ry="3" /><text class="key-text" dominant-baseline="middle" text-anchor="middle" transform="translate(240.0, 633.8333333333334) rotate(0)">GUI</text><rect class="key-base" width="60" height="60" transform="translate(270.0, 614.0) rotate(0)" rx="8" ry="8" /><rect class="key-cap" width="45.0" height="45.0" transform="translate(277.5, 617.3333333333334) rotate(0)" rx="3" ry="3" /><text class="key-text" dominant-baseline="middle" text-anchor="middle" transform="translate(300.0, 639.8333333333334) rotate(0)">LOWER</text><rect class="key-base" width="60" height="90.0" transform="translate(348.0, 605.0) rotate(30)" rx="8" ry="8" /><rect class="key-cap" width="45.0" height="67.5" transform="translate(354.0, 614.0) rotate(30)" rx="3" ry="3" /><text class="key-text"  transform="translate(366.0, 674.0) rotate(-60)">SPACE</text><rect class="key-base" width="60" height="90.0" transform="translate(582.0, 605.0) rotate(-30)" rx="8" ry="8" /><rect class="key-cap" width="45.0" height="67.5" transform="translate(588.0, 614.0) rotate(-30)" rx="3" ry="3" /><text class="key-text"  transform="translate(595.5, 632.0) rotate(60)">SPACE</text><rect class="key-base" width="60" height="60" transform="translate(660, 614.0) rotate(0)" rx="8" ry="8" /><rect class="key-cap" width="45.0" height="45.0" transform="translate(667.5, 617.3333333333334) rotate(0)" rx="3" ry="3" /><text class="key-text" dominant-baseline="middle" text-anchor="middle" transform="translate(690.0, 639.8333333333334) rotate(0)">RAISE</text><rect class="key-base" width="60" height="60" transform="translate(720, 608.0) rotate(0)" rx="8" ry="8" /><rect class="key-cap" width="45.0" height="45.0" transform="translate(727.5, 611.3333333333334) rotate(0)" rx="3" ry="3" /><text class="key-text" dominant-baseline="middle" text-anchor="middle" transform="translate(750.0, 633.8333333333334) rotate(0)"></text><rect class="key-base" width="60" height="60" transform="translate(780, 608.0) rotate(0)" rx="8" ry="8" /><rect class="key-cap" width="45.0" height="45.0" transform="translate(787.5, 611.3333333333334) rotate(0)" rx="3" ry="3" /><text class="key-text" dominant-baseline="middle" text-anchor="middle" transform="translate(810.0, 633.8333333333334) rotate(0)"></text><rect class="key-base" width="60" height="60" transform="translate(0, 738.0) rotate(0)" rx="8" ry="8" /><rect class="key-cap" width="45.0" height="45.0" transform="translate(7.5, 741.3333333333334) rotate(0)" rx="3" ry="3" /><text class="key-text" dominant-baseline="middle" text-anchor="middle" transform="translate(30.0, 763.8333333333334) rotate(0)">EE_CLR</text><rect class="key-base" width="60" height="60" transform="translate(60, 730.5) rotate(0)" rx="8" ry="8" /><rect class="key-cap" width="45.0" height="45.0" transform="translate(67.5, 733.8333333333334) rotate(0)" rx="3" ry="3" /><text class="key-text" dominant-baseline="middle" text-anchor="middle" transform="translate(90.0, 756.3333333333334) rotate(0)">~</text><rect class="key-base" width="60" height="60" transform="translate(120, 715.5) rotate(0)" rx="8" ry="8" /><rect class="key-cap" width="45.0" height="45.0" transform="translate(127.5, 718.8333333333334) rotate(0)" rx="3" ry="3" /><text class="key-text" dominant-baseline="middle" text-anchor="middle" transform="translate(150.0, 741.3333333333334) rotate(0)">MPLY</text><rect class="key-base" width="60" height="60" transform="translate(180, 708.0) rotate(0)" rx="8" ry="8" /><rect class="key-cap" width="45.0" height="45.0" transform="translate(187.5, 711.3333333333334) rotate(0)" rx="3" ry="3" /><text class="key-text" dominant-baseline="middle" text-anchor="middle" transform="translate(210.0, 733.8333333333334) rotate(0)">MUTE</text><rect class="key-base" width="60" height="60" transform="translate(240, 715.5) rotate(0)" rx="8" ry="8" /><rect class="key-cap" width="45.0" height="45.0" transform="translate(247.5, 718.8333333333334) rotate(0)" rx="3" ry="3" /><text class="key-text" dominant-baseline="middle" text-anchor="middle" transform="translate(270.0, 741.3333333333334) rotate(0)">VOL +</text><rect class="key-base" width="60" height="60" transform="translate(300, 723.0) rotate(0)" rx="8" ry="8" /><rect class="key-cap" width="45.0" height="45.0" transform="translate(307.5, 726.3333333333334) rotate(0)" rx="3" ry="3" /><text class="key-text" dominant-baseline="middle" text-anchor="middle" transform="translate(330.0, 748.8333333333334) rotate(0)">VOL -</text><rect class="key-base" width="60" height="60" transform="translate(630.0, 723.0) rotate(0)" rx="8" ry="8" /><rect class="key-cap" width="45.0" height="45.0" transform="translate(637.5, 726.3333333333334) rotate(0)" rx="3" ry="3" /><text class="key-text" dominant-baseline="middle" text-anchor="middle" transform="translate(660.0, 748.8333333333334) rotate(0)">F6</text><rect class="key-base" width="60" height="60" transform="translate(690.0, 715.5) rotate(0)" rx="8" ry="8" /><rect class="key-cap" width="45.0" height="45.0" transform="translate(697.5, 718.8333333333334) rotate(0)" rx="3" ry="3" /><text class="key-text" dominant-baseline="middle" text-anchor="middle" transform="translate(720.0, 741.3333333333334) rotate(0)">F7</text><rect class="key-base" width="60" height="60" transform="translate(750.0, 708.0) rotate(0)" rx="8" ry="8" /><rect class="key-cap" width="45.0" height="45.0" transform="translate(757.5, 711.3333333333334) rotate(0)" rx="3" ry="3" /><text class="key-text" dominant-baseline="middle" text-anchor="middle" transform="translate(780.0, 733.8333333333334) rotate(0)">F8</text><rect class="key-base" width="60" height="60" transform="translate(810.0, 715.5) rotate(0)" rx="8" ry="8" /><rect class="key-cap" width="45.0" height="45.0" transform="translate(817.5, 718.8333333333334) rotate(0)" rx="3" ry="3" /><text class="key-text" dominant-baseline="middle" text-anchor="middle" transform="translate(840.0, 741.3333333333334) rotate(0)">F9</text><rect class="key-base" width="60" height="60" transform="translate(870.0, 730.5) rotate(0)" rx="8" ry="8" /><rect class="key-cap" width="45.0" height="45.0" transform="translate(877.5, 733.8333333333334) rotate(0)" rx="3" ry="3" /><text class="key-text" dominant-baseline="middle" text-anchor="middle" transform="translate(900.0, 756.3333333333334) rotate(0)">F10</text><rect class="key-base" width="60" height="60" transform="translate(930.0, 738.0) rotate(0)" rx="8" ry="8" /><rect class="key-cap" width="45.0" height="45.0" transform="translate(937.5, 741.3333333333334) rotate(0)" rx="3" ry="3" /><text class="key-text" dominant-baseline="middle" text-anchor="middle" transform="translate(960.0, 763.8333333333334) rotate(0)">&#8998;</text><rect class="key-base" width="60" height="60" transform="translate(0, 798.0) rotate(0)" rx="8" ry="8" /><rect class="key-cap" width="45.0" height="45.0" transform="translate(7.5, 801.3333333333334) rotate(0)" rx="3" ry="3" /><text class="key-text" dominant-baseline="middle" text-anchor="middle" transform="translate(30.0, 823.8333333333334) rotate(0)">+</text><rect class="key-base" width="60" height="60" transform="translate(60, 790.5) rotate(0)" rx="8" ry="8" /><rect class="key-cap" width="45.0" height="45.0" transform="translate(67.5, 793.8333333333334) rotate(0)" rx="3" ry="3" /><text class="key-text" dominant-baseline="middle" text-anchor="middle" transform="translate(90.0, 816.3333333333334) rotate(0)">=</text><rect class="key-base" width="60" height="60" transform="translate(120, 775.5) rotate(0)" rx="8" ry="8" /><rect class="key-cap" width="45.0" height="45.0" transform="translate(127.5, 778.8333333333334) rotate(0)" rx="3" ry="3" /><text class="key-text" dominant-baseline="middle" text-anchor="middle" transform="translate(150.0, 801.3333333333334) rotate(0)">\</text><rect class="key-base" width="60" height="60" transform="translate(180, 768.0) rotate(0)" rx="8" ry="8" /><rect class="key-cap" width="45.0" height="45.0" transform="translate(187.5, 771.3333333333334) rotate(0)" rx="3" ry="3" /><text class="key-text" dominant-baseline="middle" text-anchor="middle" transform="translate(210.0, 793.8333333333334) rotate(0)">|</text><rect class="key-base" width="60" height="60" transform="translate(240, 775.5) rotate(0)" rx="8" ry="8" /><rect class="key-cap" width="45.0" height="45.0" transform="translate(247.5, 778.8333333333334) rotate(0)" rx="3" ry="3" /><text class="key-text" dominant-baseline="middle" text-anchor="middle" transform="translate(270.0, 801.3333333333334) rotate(0)">-</text><rect class="key-base" width="60" height="60" transform="translate(300, 783.0) rotate(0)" rx="8" ry="8" /><rect class="key-cap" width="45.0" height="45.0" transform="translate(307.5, 786.3333333333334) rotate(0)" rx="3" ry="3" /><text class="key-text" dominant-baseline="middle" text-anchor="middle" transform="translate(330.0, 808.8333333333334) rotate(0)">+</text><rect class="key-base" width="60" height="60" transform="translate(630.0, 783.0) rotate(0)" rx="8" ry="8" /><rect class="key-cap" width="45.0" height="45.0" transform="translate(637.5, 786.3333333333334) rotate(0)" rx="3" ry="3" /><text class="key-text" dominant-baseline="middle" text-anchor="middle" transform="translate(660.0, 808.8333333333334) rotate(0)">&amp;</text><rect class="key-base" width="60" height="60" transform="translate(690.0, 775.5) rotate(0)" rx="8" ry="8" /><rect class="key-cap" width="45.0" height="45.0" transform="translate(697.5, 778.8333333333334) rotate(0)" rx="3" ry="3" /><text class="key-text" dominant-baseline="middle" text-anchor="middle" transform="translate(720.0, 801.3333333333334) rotate(0)">+</text><rect class="key-base" width="60" height="60" transform="translate(750.0, 768.0) rotate(0)" rx="8" ry="8" /><rect class="key-cap" width="45.0" height="45.0" transform="translate(757.5, 771.3333333333334) rotate(0)" rx="3" ry="3" /><text class="key-text" dominant-baseline="middle" text-anchor="middle" transform="translate(780.0, 793.8333333333334) rotate(0)">-</text><rect class="key-base" width="60" height="60" transform="translate(810.0, 775.5) rotate(0)" rx="8" ry="8" /><rect class="key-cap" width="45.0" height="45.0" transform="translate(817.5, 778.8333333333334) rotate(0)" rx="3" ry="3" /><text class="key-text" dominant-baseline="middle" text-anchor="middle" transform="translate(840.0, 801.3333333333334) rotate(0)"></text><rect class="key-base" width="60" height="60" transform="translate(870.0, 790.5) rotate(0)" rx="8" ry="8" /><rect class="key-cap" width="45.0" height="45.0" transform="translate(877.5, 793.8333333333334) rotate(0)" rx="3" ry="3" /><text class="key-text" dominant-baseline="middle" text-anchor="middle" transform="translate(900.0, 816.3333333333334) rotate(0)"></text><rect class="key-base" width="60" height="60" transform="translate(930.0, 798.0) rotate(0)" rx="8" ry="8" /><rect class="key-cap" width="45.0" height="45.0" transform="translate(937.5, 801.3333333333334) rotate(0)" rx="3" ry="3" /><text class="key-text" dominant-baseline="middle" text-anchor="middle" transform="translate(960.0, 823.8333333333334) rotate(0)"></text><rect class="key-base" width="60" height="60" transform="translate(0, 858.0) rotate(0)" rx="8" ry="8" /><rect class="key-cap" width="45.0" height="45.0" transform="translate(7.5, 861.3333333333334) rotate(0)" rx="3" ry="3" /><text class="key-text" dominant-baseline="middle" text-anchor="middle" transform="translate(30.0, 883.8333333333334) rotate(0)">F1</text><rect class="key-base" width="60" height="60" transform="translate(60, 850.5) rotate(0)" rx="8" ry="8" /><rect class="key-cap" width="45.0" height="45.0" transform="translate(67.5, 853.8333333333334) rotate(0)" rx="3" ry="3" /><text class="key-text" dominant-baseline="middle" text-anchor="middle" transform="translate(90.0, 876.3333333333334) rotate(0)">F2</text><rect class="key-base" width="60" height="60" transform="translate(120, 835.5) rotate(0)" rx="8" ry="8" /><rect class="key-cap" width="45.0" height="45.0" transform="translate(127.5, 838.8333333333334) rotate(0)" rx="3" ry="3" /><text class="key-text" dominant-baseline="middle" text-anchor="middle" transform="translate(150.0, 861.3333333333334) rotate(0)">F3</text><rect class="key-base" width="60" height="60" transform="translate(180, 828.0) rotate(0)" rx="8" ry="8" /><rect class="key-cap" width="45.0" height="45.0" transform="translate(187.5, 831.3333333333334) rotate(0)" rx="3" ry="3" /><text class="key-text" dominant-baseline="middle" text-anchor="middle" transform="translate(210.0, 853.8333333333334) rotate(0)">F4</text><rect class="key-base" width="60" height="60" transform="translate(240, 835.5) rotate(0)" rx="8" ry="8" /><rect class="key-cap" width="45.0" height="45.0" transform="translate(247.5, 838.8333333333334) rotate(0)" rx="3" ry="3" /><text class="key-text" dominant-baseline="middle" text-anchor="middle" transform="translate(270.0, 861.3333333333334) rotate(0)">F5</text><rect class="key-base" width="60" height="60" transform="translate(300, 843.0) rotate(0)" rx="8" ry="8" /><rect class="key-cap" width="45.0" height="45.0" transform="translate(307.5, 846.3333333333334) rotate(0)" rx="3" ry="3" /><text class="key-text" dominant-baseline="middle" text-anchor="middle" transform="translate(330.0, 868.8333333333334) rotate(0)">F6</text><rect class="key-base" width="60" height="60" transform="translate(630.0, 843.0) rotate(0)" rx="8" ry="8" /><rect class="key-cap" width="45.0" height="45.0" transform="translate(637.5, 846.3333333333334) rotate(0)" rx="3" ry="3" /><text class="key-text" dominant-baseline="middle" text-anchor="middle" transform="translate(660.0, 868.8333333333334) rotate(0)">=</text><rect class="key-base" width="60" height="60" transform="translate(690.0, 835.5) rotate(0)" rx="8" ry="8" /><rect class="key-cap" width="45.0" height="45.0" transform="translate(697.5, 838.8333333333334) rotate(0)" rx="3" ry="3" /><text class="key-text" dominant-baseline="middle" text-anchor="middle" transform="translate(720.0, 861.3333333333334) rotate(0)">&#8593;</text><rect class="key-base" width="60" height="60" transform="translate(750.0, 828.0) rotate(0)" rx="8" ry="8" /><rect class="key-cap" width="45.0" height="45.0" transform="translate(757.5, 831.3333333333334) rotate(0)" rx="3" ry="3" /><text class="key-text" dominant-baseline="middle" text-anchor="middle" transform="translate(780.0, 853.8333333333334) rotate(0)"></text><rect class="key-base" width="60" height="60" transform="translate(810.0, 835.5) rotate(0)" rx="8" ry="8" /><rect class="key-cap" width="45.0" height="45.0" transform="translate(817.5, 838.8333333333334) rotate(0)" rx="3" ry="3" /><text class="key-text" dominant-baseline="middle" text-anchor="middle" transform="translate(840.0, 861.3333333333334) rotate(0)"></text><rect class="key-base" width="60" height="60" transform="translate(870.0, 850.5) rotate(0)" rx="8" ry="8" /><rect class="key-cap" width="45.0" height="45.0" transform="translate(877.5, 853.8333333333334) rotate(0)" rx="3" ry="3" /><text class="key-text" dominant-baseline="middle" text-anchor="middle" transform="translate(900.0, 876.3333333333334) rotate(0)"></text><rect class="key-base" width="60" height="60" transform="translate(930.0, 858.0) rotate(0)" rx="8" ry="8" /><rect class="key-cap" width="45.0" height="45.0" transform="translate(937.5, 861.3333333333334) rotate(0)" rx="3" ry="3" /><text class="key-text" dominant-baseline="middle" text-anchor="middle" transform="translate(960.0, 883.8333333333334) rotate(0)"></text><rect class="key-base" width="60" height="60" transform="translate(0, 918.0) rotate(0)" rx="8" ry="8" /><rect class="key-cap" width="45.0" height="45.0" transform="translate(7.5, 921.3333333333334) rotate(0)" rx="3" ry="3" /><text class="key-text" dominant-baseline="middle" text-anchor="middle" transform="translate(30.0, 943.8333333333334) rotate(0)">F7</text><rect class="key-base" width="60" height="60" transform="translate(60, 910.5) rotate(0)" rx="8" ry="8" /><rect class="key-cap" width="45.0" height="45.0" transform="translate(67.5, 913.8333333333334) rotate(0)" rx="3" ry="3" /><text class="key-text" dominant-baseline="middle" text-anchor="middle" transform="translate(90.0, 936.3333333333334) rotate(0)">F8</text><rect class="key-base" width="60" height="60" transform="translate(120, 895.5) rotate(0)" rx="8" ry="8" /><rect class="key-cap" width="45.0" height="45.0" transform="translate(127.5, 898.8333333333334) rotate(0)" rx="3" ry="3" /><text class="key-text" dominant-baseline="middle" text-anchor="middle" transform="translate(150.0, 921.3333333333334) rotate(0)">F9</text><rect class="key-base" width="60" height="60" transform="translate(180, 888.0) rotate(0)" rx="8" ry="8" /><rect class="key-cap" width="45.0" height="45.0" transform="translate(187.5, 891.3333333333334) rotate(0)" rx="3" ry="3" /><text class="key-text" dominant-baseline="middle" text-anchor="middle" transform="translate(210.0, 913.8333333333334) rotate(0)">F10</text><rect class="key-base" width="60" height="60" transform="translate(240, 895.5) rotate(0)" rx="8" ry="8" /><rect class="key-cap" width="45.0" height="45.0" transform="translate(247.5, 898.8333333333334) rotate(0)" rx="3" ry="3" /><text class="key-text" dominant-baseline="middle" text-anchor="middle" transform="translate(270.0, 921.3333333333334) rotate(0)">F11</text><rect class="key-base" width="60" height="60" transform="translate(300, 903.0) rotate(0)" rx="8" ry="8" /><rect class="key-cap" width="45.0" height="45.0" transform="translate(307.5, 906.3333333333334) rotate(0)" rx="3" ry="3" /><text class="key-text" dominant-baseline="middle" text-anchor="middle" transform="translate(330.0, 928.8333333333334) rotate(0)">F12</text><rect class="key-base" width="60" height="60" transform="translate(360, 873.0) rotate(0)" rx="8" ry="8" /><rect class="key-cap" width="45.0" height="45.0" transform="translate(367.5, 876.3333333333334) rotate(0)" rx="3" ry="3" /><text class="key-text" dominant-baseline="middle" text-anchor="middle" transform="translate(390.0, 898.8333333333334) rotate(0)"></text><rect class="key-base" width="60" height="60" transform="translate(570.0, 873.0) rotate(0)" rx="8" ry="8" /><rect class="key-cap" width="45.0" height="45.0" transform="translate(577.5, 876.3333333333334) rotate(0)" rx="3" ry="3" /><text class="key-text" dominant-baseline="middle" text-anchor="middle" transform="translate(600.0, 898.8333333333334) rotate(0)"></text><rect class="key-base" width="60" height="60" transform="translate(630.0, 903.0) rotate(0)" rx="8" ry="8" /><rect class="key-cap" width="45.0" height="45.0" transform="translate(637.5, 906.3333333333334) rotate(0)" rx="3" ry="3" /><text class="key-text" dominant-baseline="middle" text-anchor="middle" transform="translate(660.0, 928.8333333333334) rotate(0)">&#8592;</text><rect class="key-base" width="60" height="60" transform="translate(690.0, 895.5) rotate(0)" rx="8" ry="8" /><rect class="key-cap" width="45.0" height="45.0" transform="translate(697.5, 898.8333333333334) rotate(0)" rx="3" ry="3" /><text class="key-text" dominant-baseline="middle" text-anchor="middle" transform="translate(720.0, 921.3333333333334) rotate(0)">&#8595;</text><rect class="key-base" width="60" height="60" transform="translate(750.0, 888.0) rotate(0)" rx="8" ry="8" /><rect class="key-cap" width="45.0" height="45.0" transform="translate(757.5, 891.3333333333334) rotate(0)" rx="3" ry="3" /><text class="key-text" dominant-baseline="middle" text-anchor="middle" transform="translate(780.0, 913.8333333333334) rotate(0)">&#8594;</text><rect class="key-base" width="60" height="60" transform="translate(810.0, 895.5) rotate(0)" rx="8" ry="8" /><rect class="key-cap" width="45.0" height="45.0" transform="translate(817.5, 898.8333333333334) rotate(0)" rx="3" ry="3" /><text class="key-text" dominant-baseline="middle" text-anchor="middle" transform="translate(840.0, 921.3333333333334) rotate(0)"></text><rect class="key-base" width="60" height="60" transform="translate(870.0, 910.5) rotate(0)" rx="8" ry="8" /><rect class="key-cap" width="45.0" height="45.0" transform="translate(877.5, 913.8333333333334) rotate(0)" rx="3" ry="3" /><text class="key-text" dominant-baseline="middle" text-anchor="middle" transform="translate(900.0, 936.3333333333334) rotate(0)"></text><rect class="key-base" width="60" height="60" transform="translate(930.0, 918.0) rotate(0)" rx="8" ry="8" /><rect class="key-cap" width="45.0" height="45.0" transform="translate(937.5, 921.3333333333334) rotate(0)" rx="3" ry="3" /><text class="key-text" dominant-baseline="middle" text-anchor="middle" transform="translate(960.0, 943.8333333333334) rotate(0)">CALC</text><rect class="key-base" width="60" height="60" transform="translate(150.0, 955.5) rotate(0)" rx="8" ry="8" /><rect class="key-cap" width="45.0" height="45.0" transform="translate(157.5, 958.8333333333334) rotate(0)" rx="3" ry="3" /><text class="key-text" dominant-baseline="middle" text-anchor="middle" transform="translate(180.0, 981.3333333333334) rotate(0)"></text><rect class="key-base" width="60" height="60" transform="translate(210.0, 957.0) rotate(0)" rx="8" ry="8" /><rect class="key-cap" width="45.0" height="45.0" transform="translate(217.5, 960.3333333333334) rotate(0)" rx="3" ry="3" /><text class="key-text" dominant-baseline="middle" text-anchor="middle" transform="translate(240.0, 982.8333333333334) rotate(0)"></text><rect class="key-base" width="60" height="60" transform="translate(270.0, 963.0) rotate(0)" rx="8" ry="8" /><rect class="key-cap" width="45.0" height="45.0" transform="translate(277.5, 966.3333333333334) rotate(0)" rx="3" ry="3" /><text class="key-text" dominant-baseline="middle" text-anchor="middle" transform="translate(300.0, 988.8333333333334) rotate(0)"></text><rect class="key-base" width="60" height="90.0" transform="translate(348.0, 954.0) rotate(30)" rx="8" ry="8" /><rect class="key-cap" width="45.0" height="67.5" transform="translate(354.0, 963.0) rotate(30)" rx="3" ry="3" /><text class="key-text"  transform="translate(366.0, 1023.0) rotate(-60)"></text><rect class="key-base" width="60" height="90.0" transform="translate(582.0, 954.0) rotate(-30)" rx="8" ry="8" /><rect class="key-cap" width="45.0" height="67.5" transform="translate(588.0, 963.0) rotate(-30)" rx="3" ry="3" /><text class="key-text"  transform="translate(595.5, 981.0) rotate(60)"></text><rect class="key-base" width="60" height="60" transform="translate(660, 963.0) rotate(0)" rx="8" ry="8" /><rect class="key-cap" width="45.0" height="45.0" transform="translate(667.5, 966.3333333333334) rotate(0)" rx="3" ry="3" /><text class="key-text" dominant-baseline="middle" text-anchor="middle" transform="translate(690.0, 988.8333333333334) rotate(0)">RAISE</text><rect class="key-base" width="60" height="60" transform="translate(720, 957.0) rotate(0)" rx="8" ry="8" /><rect class="key-cap" width="45.0" height="45.0" transform="translate(727.5, 960.3333333333334) rotate(0)" rx="3" ry="3" /><text class="key-text" dominant-baseline="middle" text-anchor="middle" transform="translate(750.0, 982.8333333333334) rotate(0)"></text><rect class="key-base" width="60" height="60" transform="translate(780, 957.0) rotate(0)" rx="8" ry="8" /><rect class="key-cap" width="45.0" height="45.0" transform="translate(787.5, 960.3333333333334) rotate(0)" rx="3" ry="3" /><text class="key-text" dominant-baseline="middle" text-anchor="middle" transform="translate(810.0, 982.8333333333334) rotate(0)"></text></svg>