<svg version="1.1" xmlns="http://www.w3.org/2000/svg"><style>svg {width:990.0px; height:1125.0px;}<style>rect {transform-origin: center; transform-box: fill-box;}text {transform-origin: center; transform-box: fill-box; font-family: sans-serif; font-size: 14;}.key-base {stroke: black; fill: #C3C3C3; stroke-width=1;}.key-cap {stroke: #BFBBBB; fill: white; stroke-width=1;}.key-text {fill=black; pointer-events: none;letter-spacing: -1px;}</style><rect fill="transparent" /><rect class="key-base" width="60" height="60" transform="translate(0, 40.0) rotate(0)" rx="8" ry="8" /><rect class="key-cap" width="45.0" height="45.0" transform="translate(7.5, 43.333333333333336) rotate(0)" rx="3" ry="3" /><rect class="key-base" width="60" height="60" transform="translate(60, 32.5) rotate(0)" rx="8" ry="8" /><rect class="key-cap" width="45.0" height="45.0" transform="translate(67.5, 35.833333333333336) rotate(0)" rx="3" ry="3" /><rect class="key-base" width="60" height="60" transform="translate(120, 17.5) rotate(0)" rx="8" ry="8" /><rect class="key-cap" width="45.0" height="45.0" transform="translate(127.5, 20.833333333333332) rotate(0)" rx="3" ry="3" /><rect class="key-base" width="60" height="60" transform="translate(180, 10) rotate(0)" rx="8" ry="8" /><rect class="key-cap" width="45.0" height="45.0" transform="translate(187.5, 13.333333333333334) rotate(0)" rx="3" ry="3" /><rect class="key-base" width="60" height="60" transform="translate(240, 17.5) rotate(0)" rx="8" ry="8" /><rect class="key-cap" width="45.0" height="45.0" transform="translate(247.5, 20.833333333333332) rotate(0)" rx="3" ry="3" /><rect class="key-base" width="60" height="60" transform="translate(300, 25.0) rotate(0)" rx="8" ry="8" /><rect class="key-cap" width="45.0" height="45.0" transform="translate(307.5, 28.333333333333332) rotate(0)" rx="3" ry="3" /><rect class="key-base" width="60" height="60" transform="translate(630.0, 25.0) rotate(0)" rx="8" ry="8" /><rect class="key-cap" width="45.0" height="45.0" transform="translate(637.5, 28.333333333333332) rotate(0)" rx="3" ry="3" /><rect class="key-base" width="60" height="60" transform="translate(690.0, 17.5) rotate(0)" rx="8" ry="8" /><rect class="key-cap" width="45.0" height="45.0" transform="translate(697.5, 20.833333333333332) rotate(0)" rx="3" ry="3" /><rect class="key-base" width="60" height="60" transform="translate(750.0, 10) rotate(0)" rx="8" ry="8" /><rect class="key-cap" width="45.0" height="45.0" transform="translate(757.5, 13.333333333333334) rotate(0)" rx="3" ry="3" /><rect class="key-base" width="60" height="60" transform="translate(810.0, 17.5) rotate(0)" rx="8" ry="8" /><rect class="key-cap" width="45.0" height="45.0" transform="translate(817.5, 20.833333333333332) rotate(0)" rx="3" ry="3" /><rect class="key-base" width="60" height="60" transform="translate(870.0, 32.5) rotate(0)" rx="8" ry="8" /><rect class="key-cap" width="45.0" height="45.0" transform="translate(877.5, 35.833333333333336) rotate(0)" rx="3" ry="3" /><rect class="key-base" width="60" height="60" transform="translate(930.0, 40.0) rotate(0)" rx="8" ry="8" /><rect class="key-cap" width="45.0" height="45.0" transform="translate(937.5, 43.333333333333336) rotate(0)" rx="3" ry="3" /><rect class="key-base" width="60" height="60" transform="translate(0, 100.0) rotate(0)" rx="8" ry="8" /><rect class="key-cap" width="45.0" height="45.0" transform="translate(7.5, 103.33333333333333) rotate(0)" rx="3" ry="3" /><rect class="key-base" width="60" height="60" transform="translate(60, 92.5) rotate(0)" rx="8" ry="8" /><rect class="key-cap" width="45.0" height="45.0" transform="translate(67.5, 95.83333333333333) rotate(0)" rx="3" ry="3" /><rect class="key-base" width="60" height="60" transform="translate(120, 77.5) rotate(0)" rx="8" ry="8" /><rect class="key-cap" width="45.0" height="45.0" transform="translate(127.5, 80.83333333333333) rotate(0)" rx="3" ry="3" /><rect class="key-base" width="60" height="60" transform="translate(180, 70) rotate(0)" rx="8" ry="8" /><rect class="key-cap" width="45.0" height="45.0" transform="translate(187.5, 73.33333333333333) rotate(0)" rx="3" ry="3" /><rect class="key-base" width="60" height="60" transform="translate(240, 77.5) rotate(0)" rx="8" ry="8" /><rect class="key-cap" width="45.0" height="45.0" transform="translate(247.5, 80.83333333333333) rotate(0)" rx="3" ry="3" /><rect class="key-base" width="60" height="60" transform="translate(300, 85.0) rotate(0)" rx="8" ry="8" /><rect class="key-cap" width="45.0" height="45.0" transform="translate(307.5, 88.33333333333333) rotate(0)" rx="3" ry="3" /><rect class="key-base" width="60" height="60" transform="translate(630.0, 85.0) rotate(0)" rx="8" ry="8" /><rect class="key-cap" width="45.0" height="45.0" transform="translate(637.5, 88.33333333333333) rotate(0)" rx="3" ry="3" /><rect class="key-base" width="60" height="60" transform="translate(690.0, 77.5) rotate(0)" rx="8" ry="8" /><rect class="key-cap" width="45.0" height="45.0" transform="translate(697.5, 80.83333333333333) rotate(0)" rx="3" ry="3" /><rect class="key-base" width="60" height="60" transform="translate(750.0, 70) rotate(0)" rx="8" ry="8" /><rect class="key-cap" width="45.0" height="45.0" transform="translate(757.5, 73.33333333333333) rotate(0)" rx="3" ry="3" /><rect class="key-base" width="60" height="60" transform="translate(810.0, 77.5) rotate(0)" rx="8" ry="8" /><rect class="key-cap" width="45.0" height="45.0" transform="translate(817.5, 80.83333333333333) rotate(0)" rx="3" ry="3" /><rect class="key-base" width="60" height="60" transform="translate(870.0, 92.5) rotate(0)" rx="8" ry="8" /><rect class="key-cap" width="45.0" height="45.0" transform="translate(877.5, 95.83333333333333) rotate(0)" rx="3" ry="3" /><rect class="key-base" width="60" height="60" transform="translate(930.0, 100.0) rotate(0)" rx="8" ry="8" /><rect class="key-cap" width="45.0" height="45.0" transform="translate(937.5, 103.33333333333333) rotate(0)" rx="3" ry="3" /><rect class="key-base" width="60" height="60" transform="translate(0, 160.0) rotate(0)" rx="8" ry="8" /><rect class="key-cap" width="45.0" height="45.0" transform="translate(7.5, 163.33333333333334) rotate(0)" rx="3" ry="3" /><rect class="key-base" width="60" height="60" transform="translate(60, 152.5) rotate(0)" rx="8" ry="8" /><rect class="key-cap" width="45.0" height="45.0" transform="translate(67.5, 155.83333333333334) rotate(0)" rx="3" ry="3" /><rect class="key-base" width="60" height="60" transform="translate(120, 137.5) rotate(0)" rx="8" ry="8" /><rect class="key-cap" width="45.0" height="45.0" transform="translate(127.5, 140.83333333333334) rotate(0)" rx="3" ry="3" /><rect class="key-base" width="60" height="60" transform="translate(180, 130) rotate(0)" rx="8" ry="8" /><rect class="key-cap" width="45.0" height="45.0" transform="translate(187.5, 133.33333333333334) rotate(0)" rx="3" ry="3" /><rect class="key-base" width="60" height="60" transform="translate(240, 137.5) rotate(0)" rx="8" ry="8" /><rect class="key-cap" width="45.0" height="45.0" transform="translate(247.5, 140.83333333333334) rotate(0)" rx="3" ry="3" /><rect class="key-base" width="60" height="60" transform="translate(300, 145.0) rotate(0)" rx="8" ry="8" /><rect class="key-cap" width="45.0" height="45.0" transform="translate(307.5, 148.33333333333334) rotate(0)" rx="3" ry="3" /><rect class="key-base" width="60" height="60" transform="translate(630.0, 145.0) rotate(0)" rx="8" ry="8" /><rect class="key-cap" width="45.0" height="45.0" transform="translate(637.5, 148.33333333333334) rotate(0)" rx="3" ry="3" /><rect class="key-base" width="60" height="60" transform="translate(690.0, 137.5) rotate(0)" rx="8" ry="8" /><rect class="key-cap" width="45.0" height="45.0" transform="translate(697.5, 140.83333333333334) rotate(0)" rx="3" ry="3" /><rect class="key-base" width="60" height="60" transform="translate(750.0, 130) rotate(0)" rx="8" ry="8" /><rect class="key-cap" width="45.0" height="45.0" transform="translate(757.5, 133.33333333333334) rotate(0)" rx="3" ry="3" /><rect class="key-base" width="60" height="60" transform="translate(810.0, 137.5) rotate(0)" rx="8" ry="8" /><rect class="key-cap" width="45.0" height="45.0" transform="translate(817.5, 140.83333333333334) rotate(0)" rx="3" ry="3" /><rect class="key-base" width="60" height="60" transform="translate(870.0, 152.5) rotate(0)" rx="8" ry="8" /><rect class="key-cap" width="45.0" height="45.0" transform="translate(877.5, 155.83333333333334) rotate(0)" rx="3" ry="3" /><rect class="key-base" width="60" height="60" transform="translate(930.0, 160.0) rotate(0)" rx="8" ry="8" /><rect class="key-cap" width="45.0" height="45.0" transform="translate(937.5, 163.33333333333334) rotate(0)" rx="3" ry="3" /><rect class="key-base" width="60" height="60" transform="translate(0, 220.0) rotate(0)" rx="8" ry="8" /><rect class="key-cap" width="45.0" height="45.0" transform="translate(7.5, 223.33333333333334) rotate(0)" rx="3" ry="3" /><rect class="key-base" width="60" height="60" transform="translate(60, 212.5) rotate(0)" rx="8" ry="8" /><rect class="key-cap" width="45.0" height="45.0" transform="translate(67.5, 215.83333333333334) rotate(0)" rx="3" ry="3" /><rect class="key-base" width="60" height="60" transform="translate(120, 197.5) rotate(0)" rx="8" ry="8" /><rect class="key-cap" width="45.0" height="45.0" transform="translate(127.5, 200.83333333333334) rotate(0)" rx="3" ry="3" /><rect class="key-base" width="60" height="60" transform="translate(180, 190) rotate(0)" rx="8" ry="8" /><rect class="key-cap" width="45.0" height="45.0" transform="translate(187.5, 193.33333333333334) rotate(0)" rx="3" ry="3" /><rect class="key-base" width="60" height="60" transform="translate(240, 197.5) rotate(0)" rx="8" ry="8" /><rect class="key-cap" width="45.0" height="45.0" transform="translate(247.5, 200.83333333333334) rotate(0)" rx="3" ry="3" /><rect class="key-base" width="60" height="60" transform="translate(300, 205.0) rotate(0)" rx="8" ry="8" /><rect class="key-cap" width="45.0" height="45.0" transform="translate(307.5, 208.33333333333334) rotate(0)" rx="3" ry="3" /><rect class="key-base" width="60" height="60" transform="translate(360, 175.0) rotate(0)" rx="8" ry="8" /><rect class="key-cap" width="45.0" height="45.0" transform="translate(367.5, 178.33333333333334) rotate(0)" rx="3" ry="3" /><rect class="key-base" width="60" height="60" transform="translate(570.0, 175.0) rotate(0)" rx="8" ry="8" /><rect class="key-cap" width="45.0" height="45.0" transform="translate(577.5, 178.33333333333334) rotate(0)" rx="3" ry="3" /><rect class="key-base" width="60" height="60" transform="translate(630.0, 205.0) rotate(0)" rx="8" ry="8" /><rect class="key-cap" width="45.0" height="45.0" transform="translate(637.5, 208.33333333333334) rotate(0)" rx="3" ry="3" /><rect class="key-base" width="60" height="60" transform="translate(690.0, 197.5) rotate(0)" rx="8" ry="8" /><rect class="key-cap" width="45.0" height="45.0" transform="translate(697.5, 200.83333333333334) rotate(0)" rx="3" ry="3" /><rect class="key-base" width="60" height="60" transform="translate(750.0, 190) rotate(0)" rx="8" ry="8" /><rect class="key-cap" width="45.0" height="45.0" transform="translate(757.5, 193.33333333333334) rotate(0)" rx="3" ry="3" /><rect class="key-base" width="60" height="60" transform="translate(810.0, 197.5) rotate(0)" rx="8" ry="8" /><rect class="key-cap" width="45.0" height="45.0" transform="translate(817.5, 200.83333333333334) rotate(0)" rx="3" ry="3" /><rect class="key-base" width="60" height="60" transform="translate(870.0, 212.5) rotate(0)" rx="8" ry="8" /><rect class="key-cap" width="45.0" height="45.0" transform="translate(877.5, 215.83333333333334) rotate(0)" rx="3" ry="3" /><rect class="key-base" width="60" height="60" transform="translate(930.0, 220.0) rotate(0)" rx="8" ry="8" /><rect class="key-cap" width="45.0" height="45.0" transform="translate(937.5, 223.33333333333334) rotate(0)" rx="3" ry="3" /><rect class="key-base" width="60" height="60" transform="translate(150.0, 257.5) rotate(0)" rx="8" ry="8" /><rect class="key-cap" width="45.0" height="45.0" transform="translate(157.5, 260.8333333333333) rotate(0)" rx="3" ry="3" /><rect class="key-base" width="60" height="60" transform="translate(210.0, 259.0) rotate(0)" rx="8" ry="8" /><rect class="key-cap" width="45.0" height="45.0" transform="translate(217.5, 262.3333333333333) rotate(0)" rx="3" ry="3" /><rect class="key-base" width="60" height="60" transform="translate(270.0, 265.0) rotate(0)" rx="8" ry="8" /><rect class="key-cap" width="45.0" height="45.0" transform="translate(277.5, 268.3333333333333) rotate(0)" rx="3" ry="3" /><rect class="key-base" width="60" height="90.0" transform="translate(348.0, 255.99999999999997) rotate(30)" rx="8" ry="8" /><rect class="key-cap" width="45.0" height="67.5" transform="translate(355.5, 261.0) rotate(30)" rx="3" ry="3" /><rect class="key-base" width="60" height="90.0" transform="translate(582.0, 255.99999999999997) rotate(-30)" rx="8" ry="8" /><rect class="key-cap" width="45.0" height="67.5" transform="translate(589.5, 261.0) rotate(-30)" rx="3" ry="3" /><rect class="key-base" width="60" height="60" transform="translate(660, 265.0) rotate(0)" rx="8" ry="8" /><rect class="key-cap" width="45.0" height="45.0" transform="translate(667.5, 268.3333333333333) rotate(0)" rx="3" ry="3" /><rect class="key-base" width="60" height="60" transform="translate(720, 259.0) rotate(0)" rx="8" ry="8" /><rect class="key-cap" width="45.0" height="45.0" transform="translate(727.5, 262.3333333333333) rotate(0)" rx="3" ry="3" /><rect class="key-base" width="60" height="60" transform="translate(780, 259.0) rotate(0)" rx="8" ry="8" /><rect class="key-cap" width="45.0" height="45.0" transform="translate(787.5, 262.3333333333333) rotate(0)" rx="3" ry="3" /><text class="key-text" transform="translate(10.5, 55.333333333333336) rotate(0)">ESC</text><text class="key-text" transform="translate(70.5, 47.833333333333336) rotate(0)">1</text><text class="key-text" transform="translate(130.5, 32.83333333333333) rotate(0)">2</text><text class="key-text" transform="translate(190.5, 25.333333333333336) rotate(0)">3</text><text class="key-text" transform="translate(250.5, 32.83333333333333) rotate(0)">4</text><text class="key-text" transform="translate(310.5, 40.33333333333333) rotate(0)">5</text><text class="key-text" transform="translate(640.5, 40.33333333333333) rotate(0)">6</text><text class="key-text" transform="translate(700.5, 32.83333333333333) rotate(0)">7</text><text class="key-text" transform="translate(760.5, 25.333333333333336) rotate(0)">8</text><text class="key-text" transform="translate(820.5, 32.83333333333333) rotate(0)">9</text><text class="key-text" transform="translate(880.5, 47.833333333333336) rotate(0)">0</text><text class="key-text" transform="translate(940.5, 55.333333333333336) rotate(0)">&#9003;</text><text class="key-text" transform="translate(10.5, 115.33333333333333) rotate(0)">TAB</text><text class="key-text" transform="translate(70.5, 107.83333333333333) rotate(0)">Q</text><text class="key-text" transform="translate(130.5, 92.83333333333333) rotate(0)">W</text><text class="key-text" transform="translate(190.5, 85.33333333333333) rotate(0)">E</text><text class="key-text" transform="translate(250.5, 92.83333333333333) rotate(0)">R</text><text class="key-text" transform="translate(310.5, 100.33333333333333) rotate(0)">T</text><text class="key-text" transform="translate(640.5, 100.33333333333333) rotate(0)">Y</text><text class="key-text" transform="translate(700.5, 92.83333333333333) rotate(0)">U</text><text class="key-text" transform="translate(760.5, 85.33333333333333) rotate(0)">I</text><text class="key-text" transform="translate(820.5, 92.83333333333333) rotate(0)">O</text><text class="key-text" transform="translate(880.5, 107.83333333333333) rotate(0)">P</text><text class="key-text" transform="translate(940.5, 115.33333333333333) rotate(0)">\</text><text class="key-text" transform="translate(10.5, 175.33333333333334) rotate(0)">SHIFT</text><text class="key-text" transform="translate(70.5, 167.83333333333334) rotate(0)">A</text><text class="key-text" transform="translate(130.5, 152.83333333333334) rotate(0)">S</text><text class="key-text" transform="translate(190.5, 145.33333333333334) rotate(0)">D</text><text class="key-text" transform="translate(250.5, 152.83333333333334) rotate(0)">F</text><text class="key-text" transform="translate(310.5, 160.33333333333334) rotate(0)">G</text><text class="key-text" transform="translate(640.5, 160.33333333333334) rotate(0)">H</text><text class="key-text" transform="translate(700.5, 152.83333333333334) rotate(0)">J</text><text class="key-text" transform="translate(760.5, 145.33333333333334) rotate(0)">K</text><text class="key-text" transform="translate(820.5, 152.83333333333334) rotate(0)">L</text><text class="key-text" transform="translate(880.5, 167.83333333333334) rotate(0)">;</text><text class="key-text" transform="translate(940.5, 175.33333333333334) rotate(0)">'</text><text class="key-text" transform="translate(10.5, 235.33333333333334) rotate(0)">CTRL</text><text class="key-text" transform="translate(70.5, 227.83333333333334) rotate(0)">Z</text><text class="key-text" transform="translate(130.5, 212.83333333333334) rotate(0)">X</text><text class="key-text" transform="translate(190.5, 205.33333333333334) rotate(0)">C</text><text class="key-text" transform="translate(250.5, 212.83333333333334) rotate(0)">V</text><text class="key-text" transform="translate(310.5, 220.33333333333334) rotate(0)">B</text><text class="key-text" transform="translate(370.5, 190.33333333333334) rotate(0)">_______</text><text class="key-text" transform="translate(580.5, 190.33333333333334) rotate(0)">`</text><text class="key-text" transform="translate(640.5, 220.33333333333334) rotate(0)">N</text><text class="key-text" transform="translate(700.5, 212.83333333333334) rotate(0)">M</text><text class="key-text" transform="translate(760.5, 205.33333333333334) rotate(0)">,</text><text class="key-text" transform="translate(820.5, 212.83333333333334) rotate(0)">.</text><text class="key-text" transform="translate(880.5, 227.83333333333334) rotate(0)">/</text><text class="key-text" transform="translate(940.5, 235.33333333333334) rotate(0)">&#8629;</text><text class="key-text" transform="translate(160.5, 272.8333333333333) rotate(0)">ALT</text><text class="key-text" transform="translate(220.5, 274.3333333333333) rotate(0)">GUI</text><text class="key-text" transform="translate(280.5, 280.3333333333333) rotate(0)">LOWER</text><text class="key-text" transform="translate(367.5, 321.0) rotate(-60)">SPACE</text><text class="key-text" transform="translate(597.0, 279.0) rotate(60)">SPACE</text><text class="key-text" transform="translate(670.5, 280.3333333333333) rotate(0)">RAISE</text><text class="key-text" transform="translate(730.5, 274.3333333333333) rotate(0)">HOME</text><text class="key-text" transform="translate(790.5, 274.3333333333333) rotate(0)">END</text><text class="key-text" transform="translate(10.5, 67.33333333333334) rotate(0)">`</text><text class="key-text" transform="translate(70.5, 59.833333333333336) rotate(0)">F1</text><text class="key-text" transform="translate(130.5, 44.83333333333333) rotate(0)">F2</text><text class="key-text" transform="translate(190.5, 37.333333333333336) rotate(0)">F3</text><text class="key-text" transform="translate(250.5, 44.83333333333333) rotate(0)">F4</text><text class="key-text" transform="translate(310.5, 52.33333333333333) rotate(0)">F5</text><text class="key-text" transform="translate(640.5, 52.33333333333333) rotate(0)">F6</text><text class="key-text" transform="translate(700.5, 44.83333333333333) rotate(0)">F7</text><text class="key-text" transform="translate(760.5, 37.333333333333336) rotate(0)">F8</text><text class="key-text" transform="translate(820.5, 44.83333333333333) rotate(0)">F9</text><text class="key-text" transform="translate(880.5, 59.833333333333336) rotate(0)">F10</text><text class="key-text" transform="translate(940.5, 67.33333333333334) rotate(0)">&#8998;</text><text class="key-text" transform="translate(10.5, 127.33333333333333) rotate(0)">TAB</text><text class="key-text" transform="translate(70.5, 119.83333333333333) rotate(0)">!</text><text class="key-text" transform="translate(130.5, 104.83333333333333) rotate(0)">@</text><text class="key-text" transform="translate(190.5, 97.33333333333333) rotate(0)">{</text><text class="key-text" transform="translate(250.5, 104.83333333333333) rotate(0)">}</text><text class="key-text" transform="translate(310.5, 112.33333333333333) rotate(0)">|</text><text class="key-text" transform="translate(640.5, 112.33333333333333) rotate(0)">&amp;</text><text class="key-text" transform="translate(700.5, 104.83333333333333) rotate(0)">+</text><text class="key-text" transform="translate(760.5, 97.33333333333333) rotate(0)">-</text><text class="key-text" transform="translate(820.5, 104.83333333333333) rotate(0)"></text><text class="key-text" transform="translate(880.5, 119.83333333333333) rotate(0)"></text><text class="key-text" transform="translate(940.5, 127.33333333333333) rotate(0)"></text><text class="key-text" transform="translate(10.5, 187.33333333333334) rotate(0)">SHIFT</text><text class="key-text" transform="translate(70.5, 179.83333333333334) rotate(0)">#</text><text class="key-text" transform="translate(130.5, 164.83333333333334) rotate(0)">$</text><text class="key-text" transform="translate(190.5, 157.33333333333334) rotate(0)">(</text><text class="key-text" transform="translate(250.5, 164.83333333333334) rotate(0)">)</text><text class="key-text" transform="translate(310.5, 172.33333333333334) rotate(0)">`</text><text class="key-text" transform="translate(640.5, 172.33333333333334) rotate(0)">=</text><text class="key-text" transform="translate(700.5, 164.83333333333334) rotate(0)">&#8593;</text><text class="key-text" transform="translate(760.5, 157.33333333333334) rotate(0)"></text><text class="key-text" transform="translate(820.5, 164.83333333333334) rotate(0)"></text><text class="key-text" transform="translate(880.5, 179.83333333333334) rotate(0)"></text><text class="key-text" transform="translate(940.5, 187.33333333333334) rotate(0)"></text><text class="key-text" transform="translate(10.5, 247.33333333333334) rotate(0)">CTRL</text><text class="key-text" transform="translate(70.5, 239.83333333333334) rotate(0)">%</text><text class="key-text" transform="translate(130.5, 224.83333333333334) rotate(0)">^</text><text class="key-text" transform="translate(190.5, 217.33333333333334) rotate(0)">[</text><text class="key-text" transform="translate(250.5, 224.83333333333334) rotate(0)">]</text><text class="key-text" transform="translate(310.5, 232.33333333333334) rotate(0)">~</text><text class="key-text" transform="translate(370.5, 202.33333333333334) rotate(0)">_______</text><text class="key-text" transform="translate(580.5, 202.33333333333334) rotate(0)">`</text><text class="key-text" transform="translate(640.5, 232.33333333333334) rotate(0)">&#8592;</text><text class="key-text" transform="translate(700.5, 224.83333333333334) rotate(0)">&#8595;</text><text class="key-text" transform="translate(760.5, 217.33333333333334) rotate(0)">&#8594;</text><text class="key-text" transform="translate(820.5, 224.83333333333334) rotate(0)"></text><text class="key-text" transform="translate(880.5, 239.83333333333334) rotate(0)"></text><text class="key-text" transform="translate(940.5, 247.33333333333334) rotate(0)">CALC</text><text class="key-text" transform="translate(160.5, 284.8333333333333) rotate(0)">ALT</text><text class="key-text" transform="translate(220.5, 286.3333333333333) rotate(0)">GUI</text><text class="key-text" transform="translate(280.5, 292.3333333333333) rotate(0)">LOWER</text><text class="key-text" transform="translate(367.5, 321.0) rotate(-60)">SPACE</text><text class="key-text" transform="translate(597.0, 279.0) rotate(60)">SPACE</text><text class="key-text" transform="translate(670.5, 292.3333333333333) rotate(0)">RAISE</text><text class="key-text" transform="translate(730.5, 286.3333333333333) rotate(0)"></text><text class="key-text" transform="translate(790.5, 286.3333333333333) rotate(0)"></text><text class="key-text" transform="translate(10.5, 83.33333333333334) rotate(0)">EE_CLR</text><text class="key-text" transform="translate(70.5, 75.83333333333334) rotate(0)">~</text><text class="key-text" transform="translate(130.5, 60.83333333333333) rotate(0)">MPLY</text><text class="key-text" transform="translate(190.5, 53.333333333333336) rotate(0)">MUTE</text><text class="key-text" transform="translate(250.5, 60.83333333333333) rotate(0)">VOL +</text><text class="key-text" transform="translate(310.5, 68.33333333333333) rotate(0)">VOL -</text><text class="key-text" transform="translate(640.5, 68.33333333333333) rotate(0)">F6</text><text class="key-text" transform="translate(700.5, 60.83333333333333) rotate(0)">F7</text><text class="key-text" transform="translate(760.5, 53.333333333333336) rotate(0)">F8</text><text class="key-text" transform="translate(820.5, 60.83333333333333) rotate(0)">F9</text><text class="key-text" transform="translate(880.5, 75.83333333333334) rotate(0)">F10</text><text class="key-text" transform="translate(940.5, 83.33333333333334) rotate(0)">&#8998;</text><text class="key-text" transform="translate(10.5, 143.33333333333331) rotate(0)">+</text><text class="key-text" transform="translate(70.5, 135.83333333333331) rotate(0)">=</text><text class="key-text" transform="translate(130.5, 120.83333333333333) rotate(0)">\</text><text class="key-text" transform="translate(190.5, 113.33333333333333) rotate(0)">|</text><text class="key-text" transform="translate(250.5, 120.83333333333333) rotate(0)">-</text><text class="key-text" transform="translate(310.5, 128.33333333333331) rotate(0)">+</text><text class="key-text" transform="translate(640.5, 128.33333333333331) rotate(0)">&amp;</text><text class="key-text" transform="translate(700.5, 120.83333333333333) rotate(0)">+</text><text class="key-text" transform="translate(760.5, 113.33333333333333) rotate(0)">-</text><text class="key-text" transform="translate(820.5, 120.83333333333333) rotate(0)"></text><text class="key-text" transform="translate(880.5, 135.83333333333331) rotate(0)"></text><text class="key-text" transform="translate(940.5, 143.33333333333331) rotate(0)"></text><text class="key-text" transform="translate(10.5, 203.33333333333334) rotate(0)">F1</text><text class="key-text" transform="translate(70.5, 195.83333333333334) rotate(0)">F2</text><text class="key-text" transform="translate(130.5, 180.83333333333334) rotate(0)">F3</text><text class="key-text" transform="translate(190.5, 173.33333333333334) rotate(0)">F4</text><text class="key-text" transform="translate(250.5, 180.83333333333334) rotate(0)">F5</text><text class="key-text" transform="translate(310.5, 188.33333333333334) rotate(0)">F6</text><text class="key-text" transform="translate(640.5, 188.33333333333334) rotate(0)">=</text><text class="key-text" transform="translate(700.5, 180.83333333333334) rotate(0)">&#8593;</text><text class="key-text" transform="translate(760.5, 173.33333333333334) rotate(0)"></text><text class="key-text" transform="translate(820.5, 180.83333333333334) rotate(0)"></text><text class="key-text" transform="translate(880.5, 195.83333333333334) rotate(0)"></text><text class="key-text" transform="translate(940.5, 203.33333333333334) rotate(0)"></text><text class="key-text" transform="translate(10.5, 263.33333333333337) rotate(0)">F7</text><text class="key-text" transform="translate(70.5, 255.83333333333334) rotate(0)">F8</text><text class="key-text" transform="translate(130.5, 240.83333333333334) rotate(0)">F9</text><text class="key-text" transform="translate(190.5, 233.33333333333334) rotate(0)">F10</text><text class="key-text" transform="translate(250.5, 240.83333333333334) rotate(0)">F11</text><text class="key-text" transform="translate(310.5, 248.33333333333334) rotate(0)">F12</text><text class="key-text" transform="translate(370.5, 218.33333333333334) rotate(0)"></text><text class="key-text" transform="translate(580.5, 218.33333333333334) rotate(0)"></text><text class="key-text" transform="translate(640.5, 248.33333333333334) rotate(0)">&#8592;</text><text class="key-text" transform="translate(700.5, 240.83333333333334) rotate(0)">&#8595;</text><text class="key-text" transform="translate(760.5, 233.33333333333334) rotate(0)">&#8594;</text><text class="key-text" transform="translate(820.5, 240.83333333333334) rotate(0)"></text><text class="key-text" transform="translate(880.5, 255.83333333333334) rotate(0)"></text><text class="key-text" transform="translate(940.5, 263.33333333333337) rotate(0)">CALC</text><text class="key-text" transform="translate(160.5, 300.8333333333333) rotate(0)"></text><text class="key-text" transform="translate(220.5, 302.3333333333333) rotate(0)"></text><text class="key-text" transform="translate(280.5, 308.3333333333333) rotate(0)"></text><text class="key-text" transform="translate(367.5, 321.0) rotate(-60)"></text><text class="key-text" transform="translate(597.0, 279.0) rotate(60)"></text><text class="key-text" transform="translate(670.5, 308.3333333333333) rotate(0)">RAISE</text><text class="key-text" transform="translate(730.5, 302.3333333333333) rotate(0)"></text><text class="key-text" transform="translate(790.5, 302.3333333333333) rotate(0)"></text></svg>