<svg xmlns="http://www.w3.org/2000/svg" viewBox="0 -0.5 8 316" shape-rendering="crispEdges">
<path stroke="#9ca0bf" d="M0 0h8M0 1h8M0 2h8M0 3h8M0 4h8M0 5h8M0 6h8M0 7h8M0 8h8M0 9h8M0 10h8M0 11h8M0 12h8M0 13h8M0 14h8M0 15h8M0 16h8M0 17h8M0 18h8M0 19h8M0 20h8M0 21h8M0 22h8M0 23h8M0 24h8M0 25h8M0 26h8M0 27h8M1 28h7M0 29h8M0 30h8M0 31h8M0 32h8M0 33h8M0 34h8M0 35h8M1 36h7M0 37h8M0 38h8M0 39h8M0 40h4M5 40h3M0 41h8M0 42h8M0 43h8M1 44h3M5 44h3M0 45h8M0 46h8M0 47h8M1 48h3M5 48h3M0 49h8M0 50h8M0 51h8M1 52h3M5 52h3M0 53h8M0 54h2M3 54h5M0 55h8M1 56h3M5 56h3M0 57h8M0 58h6M7 58h1M0 59h8M1 60h3M5 60h3M0 61h8M0 62h2M3 62h3M7 62h1M0 63h8M1 64h3M5 64h3M0 65h8M0 66h2M3 66h3M7 66h1M0 67h8M1 68h1M3 68h1M5 68h3M0 69h8M0 70h2M3 70h3M7 70h1M0 71h8M1 72h3M5 72h1M7 72h1M0 73h8M0 74h2M3 74h3M7 74h1M0 75h8M1 76h1M3 76h1M5 76h1M7 76h1M0 77h8M0 78h2M3 78h3M7 78h1M0 79h8M1 80h1M3 80h1M5 80h1M7 80h1M0 81h8M0 82h2M3 82h3M7 82h1M0 83h8M1 84h1M3 84h1M5 84h1M7 84h1M0 85h8M1 86h1M3 86h3M7 86h1M0 87h8M1 88h1M3 88h1M5 88h1M7 88h1M0 89h8M0 90h2M3 90h1M5 90h1M7 90h1M0 91h8M1 92h1M3 92h1M5 92h1M7 92h1M0 93h8M1 94h1M3 94h1M5 94h1M7 94h1M0 95h8M1 96h1M3 96h1M5 96h1M7 96h1M0 97h8M1 98h1M3 98h1M5 98h1M7 98h1M0 99h8M1 100h1M3 100h1M5 100h1M7 100h1M0 101h1M2 101h6M1 102h1M3 102h1M5 102h1M7 102h1M0 103h8M1 104h1M3 104h1M5 104h1M7 104h1M0 105h5M6 105h2M1 106h1M3 106h1M5 106h1M7 106h1M0 107h8M1 108h1M3 108h1M5 108h1M7 108h1M0 109h1M2 109h3M6 109h2M1 110h1M3 110h1M5 110h1M7 110h1M0 111h8M1 112h1M3 112h1M5 112h1M7 112h1M0 113h1M2 113h3M6 113h2M1 114h1M3 114h1M5 114h1M7 114h1M0 115h8M1 116h1M3 116h1M5 116h1M7 116h1M0 117h1M2 117h3M6 117h2M1 118h1M3 118h1M5 118h1M7 118h1M0 119h3M4 119h4M1 120h1M3 120h1M5 120h1M7 120h1M0 121h1M2 121h3M6 121h2M1 122h1M3 122h1M5 122h1M7 122h1M0 123h7M1 124h1M3 124h1M5 124h1M7 124h1M0 125h1M2 125h3M6 125h2M1 126h1M3 126h1M5 126h1M7 126h1M0 127h3M4 127h3M1 128h1M3 128h1M5 128h1M7 128h1M0 129h1M2 129h3M6 129h2M1 130h1M3 130h1M5 130h1M7 130h1M0 131h3M4 131h3M1 132h1M3 132h1M5 132h1M7 132h1M0 133h1M2 133h3M6 133h2M1 134h1M3 134h1M5 134h1M7 134h1M0 135h3M4 135h3M1 136h1M3 136h1M5 136h1M7 136h1M0 137h1M2 137h3M6 137h2M1 138h1M3 138h1M5 138h1M7 138h1M0 139h3M4 139h3M1 140h1M3 140h1M5 140h1M7 140h1M0 141h1M2 141h1M4 141h1M6 141h2M1 142h1M3 142h1M5 142h1M7 142h1M0 143h3M4 143h3M1 144h1M3 144h1M5 144h1M7 144h1M0 145h1M2 145h3M6 145h1M1 146h1M3 146h1M5 146h1M7 146h1M0 147h3M4 147h3M1 148h1M3 148h1M5 148h1M7 148h1M0 149h1M2 149h1M4 149h1M6 149h1M1 150h1M3 150h1M5 150h1M7 150h1M0 151h3M4 151h3M1 152h1M3 152h1M5 152h1M7 152h1M0 153h1M2 153h1M4 153h1M6 153h1M1 154h1M3 154h1M5 154h1M7 154h1M0 155h3M4 155h3M1 156h1M3 156h1M5 156h1M7 156h1M0 157h1M2 157h1M4 157h1M6 157h1M1 158h1M3 158h1M5 158h1M7 158h1M0 159h1M2 159h1M4 159h3M1 160h1M3 160h1M5 160h1M7 160h1M0 161h1M2 161h1M4 161h1M6 161h1M1 162h1M3 162h1M5 162h1M7 162h1M0 163h3M4 163h1M6 163h1M1 164h1M3 164h1M5 164h1M7 164h1M0 165h1M2 165h1M4 165h1M6 165h1M1 166h1M3 166h1M5 166h1M7 166h1M0 167h1M2 167h1M4 167h1M6 167h1M1 168h1M3 168h1M5 168h1M7 168h1M0 169h1M2 169h1M4 169h1M6 169h1M1 170h1M3 170h1M5 170h1M7 170h1M0 171h1M2 171h1M4 171h1M6 171h1M3 172h1M5 172h1M7 172h1M0 173h1M2 173h1M4 173h1M6 173h1M1 174h1M3 174h1M5 174h1M7 174h1M0 175h1M2 175h1M4 175h1M6 175h1M1 176h1M3 176h1M5 176h1M7 176h1M0 177h1M2 177h1M4 177h1M6 177h1M1 178h1M3 178h1M5 178h1M7 178h1M0 179h1M2 179h1M4 179h1M6 179h1M3 180h1M5 180h1M7 180h1M0 181h1M2 181h1M4 181h1M6 181h1M1 182h1M3 182h1M5 182h1M7 182h1M0 183h1M2 183h1M4 183h1M6 183h1M1 184h1M3 184h1M7 184h1M0 185h1M2 185h1M4 185h1M6 185h1M1 186h1M3 186h1M5 186h1M7 186h1M0 187h1M2 187h1M4 187h1M6 187h1M3 188h1M7 188h1M0 189h1M2 189h1M4 189h1M6 189h1M1 190h1M3 190h1M5 190h1M7 190h1M0 191h1M2 191h1M4 191h1M6 191h1M3 192h1M7 192h1M0 193h1M2 193h1M4 193h1M6 193h1M1 194h1M3 194h1M5 194h1M7 194h1M0 195h1M2 195h1M4 195h1M6 195h1M3 196h1M7 196h1M0 197h1M2 197h1M4 197h1M6 197h1M1 198h1M5 198h1M7 198h1M0 199h1M2 199h1M4 199h1M6 199h1M3 200h1M7 200h1M0 201h1M2 201h1M4 201h1M6 201h1M1 202h1M3 202h1M5 202h1M0 203h1M2 203h1M4 203h1M6 203h1M3 204h1M7 204h1M0 205h1M2 205h1M4 205h1M6 205h1M1 206h1M5 206h1M0 207h1M2 207h1M4 207h1M6 207h1M3 208h1M7 208h1M0 209h1M2 209h1M4 209h1M6 209h1M1 210h1M5 210h1M0 211h1M2 211h1M4 211h1M6 211h1M7 212h1M0 213h1M2 213h1M4 213h1M6 213h1M1 214h1M5 214h1M0 215h1M2 215h1M4 215h1M6 215h1M3 216h1M0 217h1M2 217h1M4 217h1M6 217h1M1 218h1M5 218h1M0 219h1M2 219h1M4 219h1M6 219h1M0 221h1M2 221h1M4 221h1M6 221h1M1 222h1M5 222h1M0 223h1M2 223h1M4 223h1M6 223h1M0 225h1M2 225h1M4 225h1M6 225h1M1 226h1M5 226h1M0 227h1M2 227h1M4 227h1M6 227h1M0 229h1M2 229h1M4 229h1M6 229h1M5 230h1M0 231h1M2 231h1M4 231h1M6 231h1M0 233h1M2 233h1M4 233h1M6 233h1M1 234h1M0 235h1M2 235h1M4 235h1M6 235h1M0 237h1M2 237h1M4 237h1M6 237h1M0 239h1M2 239h1M4 239h1M6 239h1M0 241h1M2 241h1M4 241h1M6 241h1M0 243h1M2 243h1M4 243h1M6 243h1M0 245h1M2 245h1M4 245h1M6 245h1M0 247h1M2 247h1M4 247h1M6 247h1M0 249h1M2 249h1M4 249h1M6 249h1M0 251h1M2 251h1M4 251h1M6 251h1M2 253h1M4 253h1M6 253h1M0 255h1M2 255h1M4 255h1M6 255h1M0 257h1M2 257h1M6 257h1M0 259h1M2 259h1M4 259h1M6 259h1M2 261h1M6 261h1M0 263h1M2 263h1M4 263h1M6 263h1M2 265h1M6 265h1M0 267h1M2 267h1M4 267h1M6 267h1M2 269h1M6 269h1M0 271h1M4 271h1M6 271h1M2 273h1M6 273h1M0 275h1M2 275h1M4 275h1M2 277h1M6 277h1M0 279h1M4 279h1M2 281h1M6 281h1M0 283h1M4 283h1M6 285h1M0 287h1M4 287h1M2 289h1M0 291h1M4 291h1M0 295h1M4 295h1M0 299h1M4 299h1M4 303h1M0 307h1M0 315h1" />
<path stroke="#888cb1" d="M0 28h1M0 36h1M4 40h1M0 44h1M4 44h1M0 48h1M4 48h1M0 52h1M4 52h1M2 54h1M0 56h1M4 56h1M6 58h1M0 60h1M4 60h1M2 62h1M6 62h1M0 64h1M4 64h1M2 66h1M6 66h1M0 68h1M2 68h1M4 68h1M2 70h1M6 70h1M0 72h1M4 72h1M6 72h1M2 74h1M6 74h1M0 76h1M2 76h1M4 76h1M6 76h1M2 78h1M6 78h1M0 80h1M2 80h1M4 80h1M6 80h1M2 82h1M6 82h1M0 84h1M2 84h1M4 84h1M6 84h1M0 86h1M2 86h1M6 86h1M0 88h1M2 88h1M4 88h1M6 88h1M2 90h1M4 90h1M6 90h1M0 92h1M2 92h1M4 92h1M6 92h1M0 94h1M2 94h1M4 94h1M6 94h1M0 96h1M2 96h1M4 96h1M6 96h1M0 98h1M2 98h1M4 98h1M6 98h1M0 100h1M2 100h1M4 100h1M6 100h1M1 101h1M0 102h1M2 102h1M4 102h1M6 102h1M0 104h1M2 104h1M4 104h1M6 104h1M5 105h1M0 106h1M2 106h1M4 106h1M6 106h1M0 108h1M2 108h1M4 108h1M6 108h1M1 109h1M5 109h1M0 110h1M2 110h1M4 110h1M6 110h1M0 112h1M2 112h1M4 112h1M6 112h1M1 113h1M5 113h1M0 114h1M2 114h1M4 114h1M6 114h1M0 116h1M2 116h1M4 116h1M6 116h1M1 117h1M5 117h1M0 118h1M2 118h1M4 118h1M6 118h1M3 119h1M0 120h1M2 120h1M4 120h1M6 120h1M1 121h1M5 121h1M0 122h1M2 122h1M4 122h1M6 122h1M7 123h1M0 124h1M2 124h1M4 124h1M6 124h1M1 125h1M5 125h1M0 126h1M2 126h1M4 126h1M6 126h1M3 127h1M7 127h1M0 128h1M2 128h1M4 128h1M6 128h1M1 129h1M5 129h1M0 130h1M2 130h1M4 130h1M6 130h1M3 131h1M7 131h1M0 132h1M2 132h1M4 132h1M6 132h1M1 133h1M5 133h1M0 134h1M2 134h1M4 134h1M6 134h1M3 135h1M7 135h1M0 136h1M2 136h1M4 136h1M6 136h1M1 137h1M5 137h1M0 138h1M2 138h1M4 138h1M6 138h1M3 139h1M7 139h1M0 140h1M2 140h1M4 140h1M6 140h1M1 141h1M3 141h1M5 141h1M0 142h1M2 142h1M4 142h1M6 142h1M3 143h1M7 143h1M0 144h1M2 144h1M4 144h1M6 144h1M1 145h1M5 145h1M7 145h1M0 146h1M2 146h1M4 146h1M6 146h1M3 147h1M7 147h1M0 148h1M2 148h1M4 148h1M6 148h1M1 149h1M3 149h1M5 149h1M7 149h1M0 150h1M2 150h1M4 150h1M6 150h1M3 151h1M7 151h1M0 152h1M2 152h1M4 152h1M6 152h1M1 153h1M3 153h1M5 153h1M7 153h1M0 154h1M2 154h1M4 154h1M6 154h1M3 155h1M7 155h1M0 156h1M2 156h1M4 156h1M6 156h1M1 157h1M3 157h1M5 157h1M7 157h1M0 158h1M2 158h1M4 158h1M6 158h1M1 159h1M3 159h1M7 159h1M0 160h1M2 160h1M4 160h1M6 160h1M1 161h1M3 161h1M5 161h1M7 161h1M0 162h1M2 162h1M4 162h1M6 162h1M3 163h1M5 163h1M7 163h1M0 164h1M2 164h1M4 164h1M6 164h1M1 165h1M3 165h1M5 165h1M7 165h1M0 166h1M2 166h1M4 166h1M6 166h1M1 167h1M3 167h1M5 167h1M7 167h1M0 168h1M2 168h1M4 168h1M6 168h1M1 169h1M3 169h1M5 169h1M7 169h1M0 170h1M2 170h1M4 170h1M6 170h1M1 171h1M3 171h1M5 171h1M7 171h1M0 172h3M4 172h1M6 172h1M1 173h1M3 173h1M5 173h1M7 173h1M0 174h1M2 174h1M4 174h1M6 174h1M1 175h1M3 175h1M5 175h1M7 175h1M0 176h1M2 176h1M4 176h1M6 176h1M1 177h1M3 177h1M5 177h1M7 177h1M0 178h1M2 178h1M4 178h1M6 178h1M1 179h1M3 179h1M5 179h1M7 179h1M0 180h3M4 180h1M6 180h1M1 181h1M3 181h1M5 181h1M7 181h1M0 182h1M2 182h1M4 182h1M6 182h1M1 183h1M3 183h1M5 183h1M7 183h1M0 184h1M2 184h1M4 184h3M1 185h1M3 185h1M5 185h1M7 185h1M0 186h1M2 186h1M4 186h1M6 186h1M1 187h1M3 187h1M5 187h1M7 187h1M0 188h3M4 188h3M1 189h1M3 189h1M5 189h1M7 189h1M0 190h1M2 190h1M4 190h1M6 190h1M1 191h1M3 191h1M5 191h1M7 191h1M0 192h3M4 192h3M1 193h1M3 193h1M5 193h1M7 193h1M0 194h1M2 194h1M4 194h1M6 194h1M1 195h1M3 195h1M5 195h1M7 195h1M0 196h3M4 196h3M1 197h1M3 197h1M5 197h1M7 197h1M0 198h1M2 198h3M6 198h1M1 199h1M3 199h1M5 199h1M7 199h1M0 200h3M4 200h3M1 201h1M3 201h1M5 201h1M7 201h1M0 202h1M2 202h1M4 202h1M6 202h2M1 203h1M3 203h1M5 203h1M7 203h1M0 204h3M4 204h3M1 205h1M3 205h1M5 205h1M7 205h1M0 206h1M2 206h3M6 206h2M1 207h1M3 207h1M5 207h1M7 207h1M0 208h3M4 208h3M1 209h1M3 209h1M5 209h1M7 209h1M0 210h1M2 210h3M6 210h2M1 211h1M3 211h1M5 211h1M7 211h1M0 212h7M1 213h1M3 213h1M5 213h1M7 213h1M0 214h1M2 214h3M6 214h2M1 215h1M3 215h1M5 215h1M7 215h1M0 216h3M4 216h4M1 217h1M3 217h1M5 217h1M7 217h1M0 218h1M2 218h3M6 218h2M1 219h1M3 219h1M5 219h1M7 219h1M0 220h8M1 221h1M3 221h1M5 221h1M7 221h1M0 222h1M2 222h3M6 222h2M1 223h1M3 223h1M5 223h1M7 223h1M0 224h8M1 225h1M3 225h1M5 225h1M7 225h1M0 226h1M2 226h3M6 226h2M1 227h1M3 227h1M5 227h1M7 227h1M0 228h8M1 229h1M3 229h1M5 229h1M7 229h1M0 230h5M6 230h2M1 231h1M3 231h1M5 231h1M7 231h1M0 232h8M1 233h1M3 233h1M5 233h1M7 233h1M0 234h1M2 234h6M1 235h1M3 235h1M5 235h1M7 235h1M0 236h8M1 237h1M3 237h1M5 237h1M7 237h1M0 238h8M1 239h1M3 239h1M5 239h1M7 239h1M0 240h8M1 241h1M3 241h1M5 241h1M7 241h1M0 242h8M1 243h1M3 243h1M5 243h1M7 243h1M0 244h8M1 245h1M3 245h1M5 245h1M7 245h1M0 246h8M1 247h1M3 247h1M5 247h1M7 247h1M0 248h8M1 249h1M3 249h1M5 249h1M7 249h1M0 250h8M1 251h1M3 251h1M5 251h1M7 251h1M0 252h8M0 253h2M3 253h1M5 253h1M7 253h1M0 254h8M1 255h1M3 255h1M5 255h1M7 255h1M0 256h8M1 257h1M3 257h3M7 257h1M0 258h8M1 259h1M3 259h1M5 259h1M7 259h1M0 260h8M0 261h2M3 261h3M7 261h1M0 262h8M1 263h1M3 263h1M5 263h1M7 263h1M0 264h8M0 265h2M3 265h3M7 265h1M0 266h8M1 267h1M3 267h1M5 267h1M7 267h1M0 268h8M0 269h2M3 269h3M7 269h1M0 270h8M1 271h3M5 271h1M7 271h1M0 272h8M0 273h2M3 273h3M7 273h1M0 274h8M1 275h1M3 275h1M5 275h3M0 276h8M0 277h2M3 277h3M7 277h1M0 278h8M1 279h3M5 279h3M0 280h8M0 281h2M3 281h3M7 281h1M0 282h8M1 283h3M5 283h3M0 284h8M0 285h6M7 285h1M0 286h8M1 287h3M5 287h3M0 288h8M0 289h2M3 289h5M0 290h8M1 291h3M5 291h3M0 292h8M0 293h8M0 294h8M1 295h3M5 295h3M0 296h8M0 297h8M0 298h8M1 299h3M5 299h3M0 300h8M0 301h8M0 302h8M0 303h4M5 303h3M0 304h8M0 305h8M0 306h8M1 307h7M0 308h8M0 309h8M0 310h8M0 311h8M0 312h8M0 313h8M0 314h8M1 315h7" />
</svg>
